STARTFONT 2.1
COMMENT
COMMENT Converted from OpenType font "JF-Dot-K14-2004.ttf" by "otf2bdf 3.0".
COMMENT
FONT -FreeType-JF Dot K14 2004-Medium-R-Normal--17-120-100-100-P-143-ISO10646-1
SIZE 12 100 100
FONTBOUNDINGBOX 14 14 0 -2
STARTPROPERTIES 19
FOUNDRY "FreeType"
FAMILY_NAME "JF Dot K14 2004"
WEIGHT_NAME "Medium"
SLANT "R"
SETWIDTH_NAME "Normal"
ADD_STYLE_NAME ""
PIXEL_SIZE 17
POINT_SIZE 120
RESOLUTION_X 100
RESOLUTION_Y 100
SPACING "P"
AVERAGE_WIDTH 143
CHARSET_REGISTRY "ISO10646"
CHARSET_ENCODING "1"
FONT_ASCENT 12
FONT_DESCENT 1
COPYRIGHT "-FreeType-JF Dot K14 2004-Medium-R-Normal--17-120-100-100-P-143-ISO10646-1"
_OTF_FONTFILE "JF-Dot-K14-2004.ttf"
_OTF_PSNAME "JF-Dot-K14-2004-Regular"
ENDPROPERTIES
CHARS 8927
STARTCHAR 0020
ENCODING 32
SWIDTH 420 0
DWIDTH 7 0
BBX 7 14 0 -2
BITMAP
00
00
00
00
00
00
00
00
00
00
00
00
00
00
ENDCHAR
STARTCHAR 0021
ENCODING 33
SWIDTH 420 0
DWIDTH 7 0
BBX 7 14 0 -2
BITMAP
00
00
10
10
10
10
10
10
10
00
10
10
00
00
ENDCHAR
STARTCHAR 0022
ENCODING 34
SWIDTH 420 0
DWIDTH 7 0
BBX 7 14 0 -2
BITMAP
00
6C
24
24
48
00
00
00
00
00
00
00
00
00
ENDCHAR
STARTCHAR 0023
ENCODING 35
SWIDTH 420 0
DWIDTH 7 0
BBX 7 14 0 -2
BITMAP
00
00
28
28
28
7C
28
28
7C
28
28
28
00
00
ENDCHAR
STARTCHAR 0024
ENCODING 36
SWIDTH 420 0
DWIDTH 7 0
BBX 7 14 0 -2
BITMAP
00
00
10
78
94
94
50
38
14
94
94
78
10
00
ENDCHAR
STARTCHAR 0025
ENCODING 37
SWIDTH 420 0
DWIDTH 7 0
BBX 7 14 0 -2
BITMAP
00
00
64
94
98
70
10
20
38
64
A4
98
00
00
ENDCHAR
STARTCHAR 0026
ENCODING 38
SWIDTH 420 0
DWIDTH 7 0
BBX 7 14 0 -2
BITMAP
00
00
30
48
48
48
30
64
94
88
98
64
00
00
ENDCHAR
STARTCHAR 0027
ENCODING 39
SWIDTH 420 0
DWIDTH 7 0
BBX 7 14 0 -2
BITMAP
00
30
10
10
20
00
00
00
00
00
00
00
00
00
ENDCHAR
STARTCHAR 0028
ENCODING 40
SWIDTH 420 0
DWIDTH 7 0
BBX 7 14 0 -2
BITMAP
00
04
08
10
10
20
20
20
20
20
10
10
08
04
ENDCHAR
STARTCHAR 0029
ENCODING 41
SWIDTH 420 0
DWIDTH 7 0
BBX 7 14 0 -2
BITMAP
00
40
20
10
10
08
08
08
08
08
10
10
20
40
ENDCHAR
STARTCHAR 002A
ENCODING 42
SWIDTH 420 0
DWIDTH 7 0
BBX 7 14 0 -2
BITMAP
00
00
00
00
10
54
38
10
38
54
10
00
00
00
ENDCHAR
STARTCHAR 002B
ENCODING 43
SWIDTH 420 0
DWIDTH 7 0
BBX 7 14 0 -2
BITMAP
00
00
00
00
10
10
10
7C
10
10
10
00
00
00
ENDCHAR
STARTCHAR 002C
ENCODING 44
SWIDTH 420 0
DWIDTH 7 0
BBX 7 14 0 -2
BITMAP
00
00
00
00
00
00
00
00
00
00
30
10
10
20
ENDCHAR
STARTCHAR 002D
ENCODING 45
SWIDTH 420 0
DWIDTH 7 0
BBX 7 14 0 -2
BITMAP
00
00
00
00
00
00
00
7C
00
00
00
00
00
00
ENDCHAR
STARTCHAR 002E
ENCODING 46
SWIDTH 420 0
DWIDTH 7 0
BBX 7 14 0 -2
BITMAP
00
00
00
00
00
00
00
00
00
00
30
30
00
00
ENDCHAR
STARTCHAR 002F
ENCODING 47
SWIDTH 420 0
DWIDTH 7 0
BBX 7 14 0 -2
BITMAP
00
04
04
08
08
10
10
10
20
20
40
40
80
80
ENDCHAR
STARTCHAR 0030
ENCODING 48
SWIDTH 420 0
DWIDTH 7 0
BBX 7 14 0 -2
BITMAP
00
00
30
48
84
84
84
84
84
84
48
30
00
00
ENDCHAR
STARTCHAR 0031
ENCODING 49
SWIDTH 420 0
DWIDTH 7 0
BBX 7 14 0 -2
BITMAP
00
00
10
30
50
10
10
10
10
10
10
7C
00
00
ENDCHAR
STARTCHAR 0032
ENCODING 50
SWIDTH 420 0
DWIDTH 7 0
BBX 7 14 0 -2
BITMAP
00
00
78
84
84
04
08
08
10
20
40
FC
00
00
ENDCHAR
STARTCHAR 0033
ENCODING 51
SWIDTH 420 0
DWIDTH 7 0
BBX 7 14 0 -2
BITMAP
00
00
FC
04
08
10
38
04
04
84
84
78
00
00
ENDCHAR
STARTCHAR 0034
ENCODING 52
SWIDTH 420 0
DWIDTH 7 0
BBX 7 14 0 -2
BITMAP
00
00
08
18
28
28
48
48
88
FC
08
08
00
00
ENDCHAR
STARTCHAR 0035
ENCODING 53
SWIDTH 420 0
DWIDTH 7 0
BBX 7 14 0 -2
BITMAP
00
00
FC
80
80
F8
84
04
04
84
84
78
00
00
ENDCHAR
STARTCHAR 0036
ENCODING 54
SWIDTH 420 0
DWIDTH 7 0
BBX 7 14 0 -2
BITMAP
00
00
38
40
80
80
B8
C4
84
84
84
78
00
00
ENDCHAR
STARTCHAR 0037
ENCODING 55
SWIDTH 420 0
DWIDTH 7 0
BBX 7 14 0 -2
BITMAP
00
00
FC
04
08
08
10
10
20
20
40
40
00
00
ENDCHAR
STARTCHAR 0038
ENCODING 56
SWIDTH 420 0
DWIDTH 7 0
BBX 7 14 0 -2
BITMAP
00
00
78
84
84
48
30
48
84
84
84
78
00
00
ENDCHAR
STARTCHAR 0039
ENCODING 57
SWIDTH 420 0
DWIDTH 7 0
BBX 7 14 0 -2
BITMAP
00
00
78
84
84
84
8C
74
04
84
88
70
00
00
ENDCHAR
STARTCHAR 003A
ENCODING 58
SWIDTH 420 0
DWIDTH 7 0
BBX 7 14 0 -2
BITMAP
00
00
00
00
00
30
30
00
00
30
30
00
00
00
ENDCHAR
STARTCHAR 003B
ENCODING 59
SWIDTH 420 0
DWIDTH 7 0
BBX 7 14 0 -2
BITMAP
00
00
00
00
00
30
30
00
00
30
10
10
20
00
ENDCHAR
STARTCHAR 003C
ENCODING 60
SWIDTH 420 0
DWIDTH 7 0
BBX 7 14 0 -2
BITMAP
00
00
00
04
08
10
20
40
20
10
08
04
00
00
ENDCHAR
STARTCHAR 003D
ENCODING 61
SWIDTH 420 0
DWIDTH 7 0
BBX 7 14 0 -2
BITMAP
00
00
00
00
00
FC
00
00
FC
00
00
00
00
00
ENDCHAR
STARTCHAR 003E
ENCODING 62
SWIDTH 420 0
DWIDTH 7 0
BBX 7 14 0 -2
BITMAP
00
00
00
40
20
10
08
04
08
10
20
40
00
00
ENDCHAR
STARTCHAR 003F
ENCODING 63
SWIDTH 420 0
DWIDTH 7 0
BBX 7 14 0 -2
BITMAP
00
00
78
84
84
08
10
10
10
00
10
10
00
00
ENDCHAR
STARTCHAR 0040
ENCODING 64
SWIDTH 420 0
DWIDTH 7 0
BBX 7 14 0 -2
BITMAP
00
00
38
44
9C
A4
A4
A4
A4
9C
40
3C
00
00
ENDCHAR
STARTCHAR 0041
ENCODING 65
SWIDTH 420 0
DWIDTH 7 0
BBX 7 14 0 -2
BITMAP
00
00
30
30
48
48
48
78
84
84
84
84
00
00
ENDCHAR
STARTCHAR 0042
ENCODING 66
SWIDTH 420 0
DWIDTH 7 0
BBX 7 14 0 -2
BITMAP
00
00
F0
88
88
88
F0
88
84
84
88
F0
00
00
ENDCHAR
STARTCHAR 0043
ENCODING 67
SWIDTH 420 0
DWIDTH 7 0
BBX 7 14 0 -2
BITMAP
00
00
38
44
84
80
80
80
80
84
44
38
00
00
ENDCHAR
STARTCHAR 0044
ENCODING 68
SWIDTH 420 0
DWIDTH 7 0
BBX 7 14 0 -2
BITMAP
00
00
F0
88
84
84
84
84
84
84
88
F0
00
00
ENDCHAR
STARTCHAR 0045
ENCODING 69
SWIDTH 420 0
DWIDTH 7 0
BBX 7 14 0 -2
BITMAP
00
00
FC
80
80
80
F0
80
80
80
80
FC
00
00
ENDCHAR
STARTCHAR 0046
ENCODING 70
SWIDTH 420 0
DWIDTH 7 0
BBX 7 14 0 -2
BITMAP
00
00
FC
80
80
80
F0
80
80
80
80
80
00
00
ENDCHAR
STARTCHAR 0047
ENCODING 71
SWIDTH 420 0
DWIDTH 7 0
BBX 7 14 0 -2
BITMAP
00
00
38
44
84
80
80
9C
84
84
4C
34
00
00
ENDCHAR
STARTCHAR 0048
ENCODING 72
SWIDTH 420 0
DWIDTH 7 0
BBX 7 14 0 -2
BITMAP
00
00
84
84
84
84
FC
84
84
84
84
84
00
00
ENDCHAR
STARTCHAR 0049
ENCODING 73
SWIDTH 420 0
DWIDTH 7 0
BBX 7 14 0 -2
BITMAP
00
00
38
10
10
10
10
10
10
10
10
38
00
00
ENDCHAR
STARTCHAR 004A
ENCODING 74
SWIDTH 420 0
DWIDTH 7 0
BBX 7 14 0 -2
BITMAP
00
00
08
08
08
08
08
08
08
88
88
70
00
00
ENDCHAR
STARTCHAR 004B
ENCODING 75
SWIDTH 420 0
DWIDTH 7 0
BBX 7 14 0 -2
BITMAP
00
00
84
88
90
90
A0
D0
90
88
88
84
00
00
ENDCHAR
STARTCHAR 004C
ENCODING 76
SWIDTH 420 0
DWIDTH 7 0
BBX 7 14 0 -2
BITMAP
00
00
80
80
80
80
80
80
80
80
80
FC
00
00
ENDCHAR
STARTCHAR 004D
ENCODING 77
SWIDTH 420 0
DWIDTH 7 0
BBX 7 14 0 -2
BITMAP
00
00
84
CC
CC
B4
B4
84
84
84
84
84
00
00
ENDCHAR
STARTCHAR 004E
ENCODING 78
SWIDTH 420 0
DWIDTH 7 0
BBX 7 14 0 -2
BITMAP
00
00
84
84
C4
C4
A4
94
8C
8C
84
84
00
00
ENDCHAR
STARTCHAR 004F
ENCODING 79
SWIDTH 420 0
DWIDTH 7 0
BBX 7 14 0 -2
BITMAP
00
00
78
84
84
84
84
84
84
84
84
78
00
00
ENDCHAR
STARTCHAR 0050
ENCODING 80
SWIDTH 420 0
DWIDTH 7 0
BBX 7 14 0 -2
BITMAP
00
00
F8
84
84
84
84
F8
80
80
80
80
00
00
ENDCHAR
STARTCHAR 0051
ENCODING 81
SWIDTH 420 0
DWIDTH 7 0
BBX 7 14 0 -2
BITMAP
00
00
78
84
84
84
84
84
E4
94
8C
78
08
04
ENDCHAR
STARTCHAR 0052
ENCODING 82
SWIDTH 420 0
DWIDTH 7 0
BBX 7 14 0 -2
BITMAP
00
00
F8
84
84
84
84
F8
90
88
84
84
00
00
ENDCHAR
STARTCHAR 0053
ENCODING 83
SWIDTH 420 0
DWIDTH 7 0
BBX 7 14 0 -2
BITMAP
00
00
78
84
84
80
60
18
04
84
84
78
00
00
ENDCHAR
STARTCHAR 0054
ENCODING 84
SWIDTH 420 0
DWIDTH 7 0
BBX 7 14 0 -2
BITMAP
00
00
FE
10
10
10
10
10
10
10
10
10
00
00
ENDCHAR
STARTCHAR 0055
ENCODING 85
SWIDTH 420 0
DWIDTH 7 0
BBX 7 14 0 -2
BITMAP
00
00
84
84
84
84
84
84
84
84
84
78
00
00
ENDCHAR
STARTCHAR 0056
ENCODING 86
SWIDTH 420 0
DWIDTH 7 0
BBX 7 14 0 -2
BITMAP
00
00
84
84
84
84
48
48
48
30
30
30
00
00
ENDCHAR
STARTCHAR 0057
ENCODING 87
SWIDTH 420 0
DWIDTH 7 0
BBX 7 14 0 -2
BITMAP
00
00
44
44
44
54
54
54
54
54
28
28
00
00
ENDCHAR
STARTCHAR 0058
ENCODING 88
SWIDTH 420 0
DWIDTH 7 0
BBX 7 14 0 -2
BITMAP
00
00
84
84
48
48
30
30
48
48
84
84
00
00
ENDCHAR
STARTCHAR 0059
ENCODING 89
SWIDTH 420 0
DWIDTH 7 0
BBX 7 14 0 -2
BITMAP
00
00
44
44
44
28
28
10
10
10
10
10
00
00
ENDCHAR
STARTCHAR 005A
ENCODING 90
SWIDTH 420 0
DWIDTH 7 0
BBX 7 14 0 -2
BITMAP
00
00
FC
04
08
10
10
20
40
40
80
FC
00
00
ENDCHAR
STARTCHAR 005B
ENCODING 91
SWIDTH 420 0
DWIDTH 7 0
BBX 7 14 0 -2
BITMAP
00
3C
20
20
20
20
20
20
20
20
20
20
20
3C
ENDCHAR
STARTCHAR 005C
ENCODING 92
SWIDTH 420 0
DWIDTH 7 0
BBX 7 14 0 -2
BITMAP
00
00
44
28
28
10
7C
10
7C
10
10
10
00
00
ENDCHAR
STARTCHAR 005D
ENCODING 93
SWIDTH 420 0
DWIDTH 7 0
BBX 7 14 0 -2
BITMAP
00
78
08
08
08
08
08
08
08
08
08
08
08
78
ENDCHAR
STARTCHAR 005E
ENCODING 94
SWIDTH 420 0
DWIDTH 7 0
BBX 7 14 0 -2
BITMAP
00
30
48
84
00
00
00
00
00
00
00
00
00
00
ENDCHAR
STARTCHAR 005F
ENCODING 95
SWIDTH 420 0
DWIDTH 7 0
BBX 7 14 0 -2
BITMAP
00
00
00
00
00
00
00
00
00
00
00
00
00
FC
ENDCHAR
STARTCHAR 0060
ENCODING 96
SWIDTH 420 0
DWIDTH 7 0
BBX 7 14 0 -2
BITMAP
00
30
20
20
10
00
00
00
00
00
00
00
00
00
ENDCHAR
STARTCHAR 0061
ENCODING 97
SWIDTH 420 0
DWIDTH 7 0
BBX 7 14 0 -2
BITMAP
00
00
00
00
00
78
84
04
7C
84
84
7C
00
00
ENDCHAR
STARTCHAR 0062
ENCODING 98
SWIDTH 420 0
DWIDTH 7 0
BBX 7 14 0 -2
BITMAP
00
00
80
80
80
B8
C4
84
84
84
C4
B8
00
00
ENDCHAR
STARTCHAR 0063
ENCODING 99
SWIDTH 420 0
DWIDTH 7 0
BBX 7 14 0 -2
BITMAP
00
00
00
00
00
78
84
80
80
80
84
78
00
00
ENDCHAR
STARTCHAR 0064
ENCODING 100
SWIDTH 420 0
DWIDTH 7 0
BBX 7 14 0 -2
BITMAP
00
00
04
04
04
74
8C
84
84
84
8C
74
00
00
ENDCHAR
STARTCHAR 0065
ENCODING 101
SWIDTH 420 0
DWIDTH 7 0
BBX 7 14 0 -2
BITMAP
00
00
00
00
00
78
84
84
FC
80
84
78
00
00
ENDCHAR
STARTCHAR 0066
ENCODING 102
SWIDTH 420 0
DWIDTH 7 0
BBX 7 14 0 -2
BITMAP
00
00
18
24
20
20
F8
20
20
20
20
20
00
00
ENDCHAR
STARTCHAR 0067
ENCODING 103
SWIDTH 420 0
DWIDTH 7 0
BBX 7 14 0 -2
BITMAP
00
00
00
00
00
74
88
88
88
70
40
B8
84
78
ENDCHAR
STARTCHAR 0068
ENCODING 104
SWIDTH 420 0
DWIDTH 7 0
BBX 7 14 0 -2
BITMAP
00
00
80
80
80
B8
C4
84
84
84
84
84
00
00
ENDCHAR
STARTCHAR 0069
ENCODING 105
SWIDTH 420 0
DWIDTH 7 0
BBX 7 14 0 -2
BITMAP
00
00
10
10
00
30
10
10
10
10
10
10
00
00
ENDCHAR
STARTCHAR 006A
ENCODING 106
SWIDTH 420 0
DWIDTH 7 0
BBX 7 14 0 -2
BITMAP
00
00
08
08
00
18
08
08
08
08
08
08
10
60
ENDCHAR
STARTCHAR 006B
ENCODING 107
SWIDTH 420 0
DWIDTH 7 0
BBX 7 14 0 -2
BITMAP
00
00
80
80
80
88
90
A0
E0
90
88
84
00
00
ENDCHAR
STARTCHAR 006C
ENCODING 108
SWIDTH 420 0
DWIDTH 7 0
BBX 7 14 0 -2
BITMAP
00
00
30
10
10
10
10
10
10
10
10
10
00
00
ENDCHAR
STARTCHAR 006D
ENCODING 109
SWIDTH 420 0
DWIDTH 7 0
BBX 7 14 0 -2
BITMAP
00
00
00
00
00
68
54
54
54
54
54
44
00
00
ENDCHAR
STARTCHAR 006E
ENCODING 110
SWIDTH 420 0
DWIDTH 7 0
BBX 7 14 0 -2
BITMAP
00
00
00
00
00
B8
C4
84
84
84
84
84
00
00
ENDCHAR
STARTCHAR 006F
ENCODING 111
SWIDTH 420 0
DWIDTH 7 0
BBX 7 14 0 -2
BITMAP
00
00
00
00
00
78
84
84
84
84
84
78
00
00
ENDCHAR
STARTCHAR 0070
ENCODING 112
SWIDTH 420 0
DWIDTH 7 0
BBX 7 14 0 -2
BITMAP
00
00
00
00
00
B8
C4
84
84
84
C4
B8
80
80
ENDCHAR
STARTCHAR 0071
ENCODING 113
SWIDTH 420 0
DWIDTH 7 0
BBX 7 14 0 -2
BITMAP
00
00
00
00
00
74
8C
84
84
84
8C
74
04
04
ENDCHAR
STARTCHAR 0072
ENCODING 114
SWIDTH 420 0
DWIDTH 7 0
BBX 7 14 0 -2
BITMAP
00
00
00
00
00
B8
C4
84
80
80
80
80
00
00
ENDCHAR
STARTCHAR 0073
ENCODING 115
SWIDTH 420 0
DWIDTH 7 0
BBX 7 14 0 -2
BITMAP
00
00
00
00
00
78
84
40
30
08
84
78
00
00
ENDCHAR
STARTCHAR 0074
ENCODING 116
SWIDTH 420 0
DWIDTH 7 0
BBX 7 14 0 -2
BITMAP
00
00
20
20
20
F8
20
20
20
20
24
18
00
00
ENDCHAR
STARTCHAR 0075
ENCODING 117
SWIDTH 420 0
DWIDTH 7 0
BBX 7 14 0 -2
BITMAP
00
00
00
00
00
84
84
84
84
84
8C
74
00
00
ENDCHAR
STARTCHAR 0076
ENCODING 118
SWIDTH 420 0
DWIDTH 7 0
BBX 7 14 0 -2
BITMAP
00
00
00
00
00
44
44
44
28
28
10
10
00
00
ENDCHAR
STARTCHAR 0077
ENCODING 119
SWIDTH 420 0
DWIDTH 7 0
BBX 7 14 0 -2
BITMAP
00
00
00
00
00
44
44
54
54
54
28
28
00
00
ENDCHAR
STARTCHAR 0078
ENCODING 120
SWIDTH 420 0
DWIDTH 7 0
BBX 7 14 0 -2
BITMAP
00
00
00
00
00
84
48
48
30
48
48
84
00
00
ENDCHAR
STARTCHAR 0079
ENCODING 121
SWIDTH 420 0
DWIDTH 7 0
BBX 7 14 0 -2
BITMAP
00
00
00
00
00
84
84
48
48
30
10
20
20
C0
ENDCHAR
STARTCHAR 007A
ENCODING 122
SWIDTH 420 0
DWIDTH 7 0
BBX 7 14 0 -2
BITMAP
00
00
00
00
00
FC
08
10
20
20
40
FC
00
00
ENDCHAR
STARTCHAR 007B
ENCODING 123
SWIDTH 420 0
DWIDTH 7 0
BBX 7 14 0 -2
BITMAP
00
0C
10
10
10
10
10
20
10
10
10
10
10
0C
ENDCHAR
STARTCHAR 007C
ENCODING 124
SWIDTH 420 0
DWIDTH 7 0
BBX 7 14 0 -2
BITMAP
00
10
10
10
10
10
10
10
10
10
10
10
10
10
ENDCHAR
STARTCHAR 007D
ENCODING 125
SWIDTH 420 0
DWIDTH 7 0
BBX 7 14 0 -2
BITMAP
00
60
10
10
10
10
10
08
10
10
10
10
10
60
ENDCHAR
STARTCHAR 007E
ENCODING 126
SWIDTH 420 0
DWIDTH 7 0
BBX 7 14 0 -2
BITMAP
FE
00
00
00
00
00
00
00
00
00
00
00
00
00
ENDCHAR
STARTCHAR 00A0
ENCODING 160
SWIDTH 840 0
DWIDTH 14 0
BBX 13 1 0 -2
BITMAP
AAA8
ENDCHAR
STARTCHAR 00A1
ENCODING 161
SWIDTH 840 0
DWIDTH 14 0
BBX 3 14 6 -2
BITMAP
40
E0
40
00
40
40
40
E0
E0
E0
E0
E0
E0
40
ENDCHAR
STARTCHAR 00A2
ENCODING 162
SWIDTH 420 0
DWIDTH 7 0
BBX 6 9 0 -1
BITMAP
20
78
A4
A0
A0
A0
A4
78
20
ENDCHAR
STARTCHAR 00A3
ENCODING 163
SWIDTH 420 0
DWIDTH 7 0
BBX 5 9 1 0
BITMAP
30
48
40
40
F0
40
40
F0
48
ENDCHAR
STARTCHAR 00A4
ENCODING 164
SWIDTH 840 0
DWIDTH 14 0
BBX 12 12 1 -1
BITMAP
8010
4620
39C0
2040
2040
4020
4020
2040
2040
39C0
4620
8010
ENDCHAR
STARTCHAR 00A5
ENCODING 165
SWIDTH 420 0
DWIDTH 7 0
BBX 6 13 0 -2
BITMAP
80
80
40
40
20
20
20
10
10
08
08
04
04
ENDCHAR
STARTCHAR 00A6
ENCODING 166
SWIDTH 840 0
DWIDTH 14 0
BBX 1 11 7 0
BITMAP
80
80
80
80
80
00
80
80
80
80
80
ENDCHAR
STARTCHAR 00A7
ENCODING 167
SWIDTH 840 0
DWIDTH 14 0
BBX 5 14 5 -2
BITMAP
70
88
88
C0
60
70
98
C8
70
30
18
88
88
70
ENDCHAR
STARTCHAR 00A8
ENCODING 168
SWIDTH 840 0
DWIDTH 14 0
BBX 7 2 4 10
BITMAP
C6
C6
ENDCHAR
STARTCHAR 00A9
ENCODING 169
SWIDTH 840 0
DWIDTH 14 0
BBX 14 14 0 -2
BITMAP
0780
1860
2010
47A8
4C68
9824
9824
9804
9824
4C48
4788
2010
1860
0780
ENDCHAR
STARTCHAR 00AA
ENCODING 170
SWIDTH 840 0
DWIDTH 14 0
BBX 6 7 4 5
BITMAP
70
48
0C
7C
8C
8C
7C
ENDCHAR
STARTCHAR 00AB
ENCODING 171
SWIDTH 840 0
DWIDTH 14 0
BBX 6 5 7 0
BITMAP
24
48
D8
48
24
ENDCHAR
STARTCHAR 00AC
ENCODING 172
SWIDTH 420 0
DWIDTH 7 0
BBX 5 4 1 0
BITMAP
F8
08
08
08
ENDCHAR
STARTCHAR 00AD
ENCODING 173
SWIDTH 840 0
DWIDTH 14 0
BBX 13 8 0 -2
BITMAP
0FE0
0000
0000
0000
0000
0000
0000
AAA8
ENDCHAR
STARTCHAR 00AE
ENCODING 174
SWIDTH 840 0
DWIDTH 14 0
BBX 14 14 0 -2
BITMAP
0780
1860
2010
5F88
4C48
8C44
8F84
8C84
8C84
4C48
5E68
2010
1860
0780
ENDCHAR
STARTCHAR 00AF
ENCODING 175
SWIDTH 840 0
DWIDTH 14 0
BBX 10 1 2 11
BITMAP
FFC0
ENDCHAR
STARTCHAR 00B0
ENCODING 176
SWIDTH 840 0
DWIDTH 14 0
BBX 4 4 2 7
BITMAP
60
90
90
60
ENDCHAR
STARTCHAR 00B1
ENCODING 177
SWIDTH 840 0
DWIDTH 14 0
BBX 11 11 2 0
BITMAP
0400
0400
0400
0400
FFE0
0400
0400
0400
0400
0000
FFE0
ENDCHAR
STARTCHAR 00B2
ENCODING 178
SWIDTH 840 0
DWIDTH 14 0
BBX 6 7 4 5
BITMAP
78
8C
0C
78
C0
C0
FC
ENDCHAR
STARTCHAR 00B3
ENCODING 179
SWIDTH 840 0
DWIDTH 14 0
BBX 6 7 4 5
BITMAP
78
8C
0C
78
0C
8C
78
ENDCHAR
STARTCHAR 00B4
ENCODING 180
SWIDTH 840 0
DWIDTH 14 0
BBX 4 3 5 9
BITMAP
30
60
80
ENDCHAR
STARTCHAR 00B5
ENCODING 181
SWIDTH 420 0
DWIDTH 7 0
BBX 6 8 0 -2
BITMAP
44
44
44
44
6C
54
40
80
ENDCHAR
STARTCHAR 00B6
ENCODING 182
SWIDTH 840 0
DWIDTH 14 0
BBX 14 14 0 -2
BITMAP
0000
03C0
0740
0740
0740
0340
0140
0140
0140
0140
0140
0140
0140
0000
ENDCHAR
STARTCHAR 00B7
ENCODING 183
SWIDTH 840 0
DWIDTH 14 0
BBX 14 14 0 -2
BITMAP
0000
0000
0000
0000
0000
0000
0300
0300
0000
0000
0000
0000
0000
0000
ENDCHAR
STARTCHAR 00B8
ENCODING 184
SWIDTH 840 0
DWIDTH 14 0
BBX 14 14 0 -2
BITMAP
0000
0000
0000
0000
0000
0000
0000
0000
0000
0100
0180
0040
0240
0180
ENDCHAR
STARTCHAR 00B9
ENCODING 185
SWIDTH 840 0
DWIDTH 14 0
BBX 14 14 0 -2
BITMAP
0100
0300
0F00
0300
0300
0300
0FC0
0000
0000
0000
0000
0000
0000
0000
ENDCHAR
STARTCHAR 00BA
ENCODING 186
SWIDTH 840 0
DWIDTH 14 0
BBX 14 14 0 -2
BITMAP
0700
0D80
18C0
18C0
18C0
0880
0700
0000
0000
0000
0000
0000
0000
0000
ENDCHAR
STARTCHAR 00BB
ENCODING 187
SWIDTH 840 0
DWIDTH 14 0
BBX 14 14 0 -2
BITMAP
0000
0000
0000
0000
0000
0000
0000
0120
0090
00D8
0090
0120
0000
0000
ENDCHAR
STARTCHAR 00BC
ENCODING 188
SWIDTH 840 0
DWIDTH 14 0
BBX 14 14 0 -2
BITMAP
0800
1808
3810
0820
0840
0880
0910
3E30
0450
0890
1110
21F8
4010
0010
ENDCHAR
STARTCHAR 00BD
ENCODING 189
SWIDTH 840 0
DWIDTH 14 0
BBX 14 14 0 -2
BITMAP
0800
1808
3810
0820
0840
0880
09F0
3E88
0588
0830
1040
2080
4100
01F8
ENDCHAR
STARTCHAR 00BE
ENCODING 190
SWIDTH 840 0
DWIDTH 14 0
BBX 14 14 0 -2
BITMAP
1C00
2208
0210
0C20
0240
2280
2510
1A30
0450
0890
1110
21F8
4010
0010
ENDCHAR
STARTCHAR 00BF
ENCODING 191
SWIDTH 840 0
DWIDTH 14 0
BBX 14 14 0 -2
BITMAP
0600
0600
0000
0200
0200
0200
0100
0180
18C0
18C0
10C0
0980
0700
0000
ENDCHAR
STARTCHAR 00C0
ENCODING 192
SWIDTH 840 0
DWIDTH 14 0
BBX 14 14 0 -2
BITMAP
0180
0080
0040
0380
0380
04C0
0440
0860
0FE0
1030
1030
7878
0000
0000
ENDCHAR
STARTCHAR 00C1
ENCODING 193
SWIDTH 840 0
DWIDTH 14 0
BBX 14 14 0 -2
BITMAP
0300
0200
0400
0380
0380
04C0
04C0
0860
0FE0
1030
1030
7878
0000
0000
ENDCHAR
STARTCHAR 00C2
ENCODING 194
SWIDTH 840 0
DWIDTH 14 0
BBX 14 14 0 -2
BITMAP
0100
0280
0440
0380
0380
04C0
04C0
0860
0FE0
1030
1030
7878
0000
0000
ENDCHAR
STARTCHAR 00C3
ENCODING 195
SWIDTH 840 0
DWIDTH 14 0
BBX 14 14 0 -2
BITMAP
0320
04C0
0000
0380
0380
04C0
04C0
0860
0FE0
1030
1030
7878
0000
0000
ENDCHAR
STARTCHAR 00C4
ENCODING 196
SWIDTH 840 0
DWIDTH 14 0
BBX 14 14 0 -2
BITMAP
0CC0
0CC0
0000
0380
0380
04C0
04C0
0860
0FE0
1030
1030
7878
0000
0000
ENDCHAR
STARTCHAR 00C5
ENCODING 197
SWIDTH 840 0
DWIDTH 14 0
BBX 14 14 0 -2
BITMAP
0180
0240
0240
0380
0380
04C0
04C0
0860
0FE0
1030
1030
7878
0000
0000
ENDCHAR
STARTCHAR 00C6
ENCODING 198
SWIDTH 840 0
DWIDTH 14 0
BBX 14 14 0 -2
BITMAP
0000
07F8
0388
0384
0580
0990
09F0
1190
3F80
2184
4188
E3F8
0000
0000
ENDCHAR
STARTCHAR 00C7
ENCODING 199
SWIDTH 840 0
DWIDTH 14 0
BBX 14 14 0 -2
BITMAP
0000
03D0
0C30
1810
3010
3000
3000
3000
3000
1810
0C30
03C0
0180
0700
ENDCHAR
STARTCHAR 00C8
ENCODING 200
SWIDTH 840 0
DWIDTH 14 0
BBX 14 14 0 -2
BITMAP
0300
0100
0080
3FE0
0C20
0C10
0C40
0FC0
0C40
0C08
0C10
3FF0
0000
0000
ENDCHAR
STARTCHAR 00C9
ENCODING 201
SWIDTH 840 0
DWIDTH 14 0
BBX 14 14 0 -2
BITMAP
0180
0100
0200
3FE0
0C20
0C10
0C40
0FC0
0C40
0C08
0C10
3FF0
0000
0000
ENDCHAR
STARTCHAR 00CA
ENCODING 202
SWIDTH 840 0
DWIDTH 14 0
BBX 14 14 0 -2
BITMAP
0100
0280
0440
3FE0
0C20
0C10
0C40
0FC0
0C40
0C08
0C10
3FF0
0000
0000
ENDCHAR
STARTCHAR 00CB
ENCODING 203
SWIDTH 840 0
DWIDTH 14 0
BBX 14 14 0 -2
BITMAP
0CC0
0CC0
0000
3FE0
0C20
0C10
0C40
0FC0
0C40
0C08
0C10
3FF0
0000
0000
ENDCHAR
STARTCHAR 00CC
ENCODING 204
SWIDTH 840 0
DWIDTH 14 0
BBX 14 14 0 -2
BITMAP
0300
0100
0080
0FC0
0300
0300
0300
0300
0300
0300
0300
0FC0
0000
0000
ENDCHAR
STARTCHAR 00CD
ENCODING 205
SWIDTH 840 0
DWIDTH 14 0
BBX 14 14 0 -2
BITMAP
0180
0100
0200
0FC0
0300
0300
0300
0300
0300
0300
0300
0FC0
0000
0000
ENDCHAR
STARTCHAR 00CE
ENCODING 206
SWIDTH 840 0
DWIDTH 14 0
BBX 14 14 0 -2
BITMAP
0200
0500
0880
0FC0
0300
0300
0300
0300
0300
0300
0300
0FC0
0000
0000
ENDCHAR
STARTCHAR 00CF
ENCODING 207
SWIDTH 840 0
DWIDTH 14 0
BBX 14 14 0 -2
BITMAP
0CC0
0CC0
0000
0FC0
0300
0300
0300
0300
0300
0300
0300
0FC0
0000
0000
ENDCHAR
STARTCHAR 00D0
ENCODING 208
SWIDTH 840 0
DWIDTH 14 0
BBX 14 14 0 -2
BITMAP
0000
3F80
0C60
0C30
0C18
0C18
7F98
0C18
0C18
0C30
0C60
3F80
0000
0000
ENDCHAR
STARTCHAR 00D1
ENCODING 209
SWIDTH 840 0
DWIDTH 14 0
BBX 14 14 0 -2
BITMAP
0640
0980
3870
1C20
1620
1620
1320
11A0
11A0
10E0
1060
3860
0000
0000
ENDCHAR
STARTCHAR 00D2
ENCODING 210
SWIDTH 840 0
DWIDTH 14 0
BBX 14 14 0 -2
BITMAP
0300
0100
0080
0380
0C60
1830
3018
3018
3018
1830
0C60
0380
0000
0000
ENDCHAR
STARTCHAR 00D3
ENCODING 211
SWIDTH 840 0
DWIDTH 14 0
BBX 14 14 0 -2
BITMAP
0180
0100
0200
0380
0C60
1830
3018
3018
3018
1830
0C60
0380
0000
0000
ENDCHAR
STARTCHAR 00D4
ENCODING 212
SWIDTH 840 0
DWIDTH 14 0
BBX 14 14 0 -2
BITMAP
0100
0280
0440
0380
0C60
1830
3018
3018
3018
1830
0C60
0380
0000
0000
ENDCHAR
STARTCHAR 00D5
ENCODING 213
SWIDTH 840 0
DWIDTH 14 0
BBX 14 14 0 -2
BITMAP
0640
0980
0000
0380
0C60
1830
3018
3018
3018
1830
0C60
0380
0000
0000
ENDCHAR
STARTCHAR 00D6
ENCODING 214
SWIDTH 840 0
DWIDTH 14 0
BBX 14 14 0 -2
BITMAP
0CC0
0CC0
0000
0380
0C60
1830
3018
3018
3018
1830
0C60
0380
0000
0000
ENDCHAR
STARTCHAR 00D7
ENCODING 215
SWIDTH 840 0
DWIDTH 14 0
BBX 14 14 0 -2
BITMAP
0000
2008
1010
0820
0440
0280
0100
0280
0440
0820
1010
2008
0000
0000
ENDCHAR
STARTCHAR 00D8
ENCODING 216
SWIDTH 840 0
DWIDTH 14 0
BBX 14 14 0 -2
BITMAP
0000
0388
0C70
1830
3058
3098
3118
3218
3418
1830
1C60
2380
0000
0000
ENDCHAR
STARTCHAR 00D9
ENCODING 217
SWIDTH 840 0
DWIDTH 14 0
BBX 14 14 0 -2
BITMAP
0300
0100
0080
3C38
1810
1810
1810
1810
1810
1810
0C20
03C0
0000
0000
ENDCHAR
STARTCHAR 00DA
ENCODING 218
SWIDTH 840 0
DWIDTH 14 0
BBX 14 14 0 -2
BITMAP
0180
0100
0200
3C38
1810
1810
1810
1810
1810
1810
0C20
03C0
0000
0000
ENDCHAR
STARTCHAR 00DB
ENCODING 219
SWIDTH 840 0
DWIDTH 14 0
BBX 14 14 0 -2
BITMAP
0100
0280
0440
3C38
1810
1810
1810
1810
1810
1810
0C20
03C0
0000
0000
ENDCHAR
STARTCHAR 00DC
ENCODING 220
SWIDTH 840 0
DWIDTH 14 0
BBX 14 14 0 -2
BITMAP
0CC0
0CC0
0000
3C38
1810
1810
1810
1810
1810
1810
0C20
03C0
0000
0000
ENDCHAR
STARTCHAR 00DD
ENCODING 221
SWIDTH 840 0
DWIDTH 14 0
BBX 14 14 0 -2
BITMAP
0180
0100
3E78
1820
0C40
0680
0300
0300
0300
0300
0300
0FC0
0000
0000
ENDCHAR
STARTCHAR 00DE
ENCODING 222
SWIDTH 840 0
DWIDTH 14 0
BBX 14 14 0 -2
BITMAP
0000
3F00
0C00
0F80
0C60
0C30
0C30
0C60
0F80
0C00
0C00
3F00
0000
0000
ENDCHAR
STARTCHAR 00DF
ENCODING 223
SWIDTH 840 0
DWIDTH 14 0
BBX 14 14 0 -2
BITMAP
0000
0380
0440
0C60
0C40
0D80
0C60
0C60
0C60
0C60
0D40
1C80
0000
0000
ENDCHAR
STARTCHAR 00E0
ENCODING 224
SWIDTH 840 0
DWIDTH 14 0
BBX 14 14 0 -2
BITMAP
0300
0100
0080
0000
0780
0C40
0C60
03E0
0C60
1860
18E0
0F30
0000
0000
ENDCHAR
STARTCHAR 00E1
ENCODING 225
SWIDTH 840 0
DWIDTH 14 0
BBX 14 14 0 -2
BITMAP
0180
0100
0200
0000
0780
0C40
0C60
03E0
0C60
1860
18E0
0F30
0000
0000
ENDCHAR
STARTCHAR 00E2
ENCODING 226
SWIDTH 840 0
DWIDTH 14 0
BBX 14 14 0 -2
BITMAP
0100
0280
0440
0000
0780
0C40
0C60
03E0
0C60
1860
18E0
0F30
0000
0000
ENDCHAR
STARTCHAR 00E3
ENCODING 227
SWIDTH 840 0
DWIDTH 14 0
BBX 14 14 0 -2
BITMAP
0000
0640
0980
0000
0780
0C40
0C60
03E0
0C60
1860
18E0
0F30
0000
0000
ENDCHAR
STARTCHAR 00E4
ENCODING 228
SWIDTH 840 0
DWIDTH 14 0
BBX 14 14 0 -2
BITMAP
0000
0CC0
0CC0
0000
0780
0C40
0C60
03E0
0C60
1860
18E0
0F30
0000
0000
ENDCHAR
STARTCHAR 00E5
ENCODING 229
SWIDTH 840 0
DWIDTH 14 0
BBX 14 14 0 -2
BITMAP
0300
0480
0480
0300
0780
0C40
0C60
03E0
0C60
1860
18E0
0F30
0000
0000
ENDCHAR
STARTCHAR 00E6
ENCODING 230
SWIDTH 840 0
DWIDTH 14 0
BBX 14 14 0 -2
BITMAP
0000
0000
0000
0000
1C60
3390
2318
1FF8
2300
6308
6788
3B70
0000
0000
ENDCHAR
STARTCHAR 00E7
ENCODING 231
SWIDTH 840 0
DWIDTH 14 0
BBX 14 14 0 -2
BITMAP
0000
0000
0000
0000
0380
0C60
1820
1800
1800
1820
0C60
0380
0300
0E00
ENDCHAR
STARTCHAR 00E8
ENCODING 232
SWIDTH 840 0
DWIDTH 14 0
BBX 14 14 0 -2
BITMAP
0300
0100
0080
0000
07C0
0820
1830
1FF0
1800
1810
0C30
03C0
0000
0000
ENDCHAR
STARTCHAR 00E9
ENCODING 233
SWIDTH 840 0
DWIDTH 14 0
BBX 14 14 0 -2
BITMAP
0180
0100
0200
0000
07C0
0820
1830
1FF0
1800
1810
0C30
03C0
0000
0000
ENDCHAR
STARTCHAR 00EA
ENCODING 234
SWIDTH 840 0
DWIDTH 14 0
BBX 14 14 0 -2
BITMAP
0100
0280
0440
0000
07C0
0820
1830
1FF0
1800
1810
0C30
03C0
0000
0000
ENDCHAR
STARTCHAR 00EB
ENCODING 235
SWIDTH 840 0
DWIDTH 14 0
BBX 14 14 0 -2
BITMAP
0000
0CC0
0CC0
0000
07C0
0820
1830
1FF0
1800
1810
0C30
03C0
0000
0000
ENDCHAR
STARTCHAR 00EC
ENCODING 236
SWIDTH 840 0
DWIDTH 14 0
BBX 14 14 0 -2
BITMAP
0000
0300
0100
0080
0000
0F00
0300
0300
0300
0300
0300
0FC0
0000
0000
ENDCHAR
STARTCHAR 00ED
ENCODING 237
SWIDTH 840 0
DWIDTH 14 0
BBX 14 14 0 -2
BITMAP
0000
0180
0100
0200
0000
0F00
0300
0300
0300
0300
0300
0FC0
0000
0000
ENDCHAR
STARTCHAR 00EE
ENCODING 238
SWIDTH 840 0
DWIDTH 14 0
BBX 14 14 0 -2
BITMAP
0000
0100
0280
0440
0000
0F00
0300
0300
0300
0300
0300
0FC0
0000
0000
ENDCHAR
STARTCHAR 00EF
ENCODING 239
SWIDTH 840 0
DWIDTH 14 0
BBX 14 14 0 -2
BITMAP
0000
0CC0
0CC0
0000
0000
0F00
0300
0300
0300
0300
0300
0FC0
0000
0000
ENDCHAR
STARTCHAR 00F0
ENCODING 240
SWIDTH 840 0
DWIDTH 14 0
BBX 14 14 0 -2
BITMAP
0000
0720
08C0
0340
0460
0060
0760
08E0
1860
1860
1860
08C0
0780
0000
ENDCHAR
STARTCHAR 00F1
ENCODING 241
SWIDTH 840 0
DWIDTH 14 0
BBX 14 14 0 -2
BITMAP
0000
0640
0980
0000
1DC0
0E20
0C30
0C30
0C30
0C30
0C30
1E78
0000
0000
ENDCHAR
STARTCHAR 00F2
ENCODING 242
SWIDTH 840 0
DWIDTH 14 0
BBX 14 14 0 -2
BITMAP
0300
0100
0080
0000
0380
0C60
1830
1830
1830
1830
0C60
0380
0000
0000
ENDCHAR
STARTCHAR 00F3
ENCODING 243
SWIDTH 840 0
DWIDTH 14 0
BBX 14 14 0 -2
BITMAP
0180
0100
0200
0000
0380
0C60
1830
1830
1830
1830
0C60
0380
0000
0000
ENDCHAR
STARTCHAR 00F4
ENCODING 244
SWIDTH 840 0
DWIDTH 14 0
BBX 14 14 0 -2
BITMAP
0100
0280
0440
0000
0380
0C60
1830
1830
1830
1830
0C60
0380
0000
0000
ENDCHAR
STARTCHAR 00F5
ENCODING 245
SWIDTH 840 0
DWIDTH 14 0
BBX 14 14 0 -2
BITMAP
0000
0640
0980
0000
0380
0C60
1830
1830
1830
1830
0C60
0380
0000
0000
ENDCHAR
STARTCHAR 00F6
ENCODING 246
SWIDTH 840 0
DWIDTH 14 0
BBX 14 14 0 -2
BITMAP
0000
0CC0
0CC0
0000
0380
0C60
1830
1830
1830
1830
0C60
0380
0000
0000
ENDCHAR
STARTCHAR 00F7
ENCODING 247
SWIDTH 840 0
DWIDTH 14 0
BBX 14 14 0 -2
BITMAP
0000
0100
0380
0100
0000
0000
3FF8
0000
0000
0100
0380
0100
0000
0000
ENDCHAR
STARTCHAR 00F8
ENCODING 248
SWIDTH 840 0
DWIDTH 14 0
BBX 14 14 0 -2
BITMAP
0000
0000
0000
0000
03A0
0C60
18B0
1930
1930
1A30
0C60
0B80
0000
0000
ENDCHAR
STARTCHAR 00F9
ENCODING 249
SWIDTH 840 0
DWIDTH 14 0
BBX 14 14 0 -2
BITMAP
0300
0100
0080
0000
1CF0
0C30
0C30
0C30
0C30
0C30
0C70
0798
0000
0000
ENDCHAR
STARTCHAR 00FA
ENCODING 250
SWIDTH 840 0
DWIDTH 14 0
BBX 14 14 0 -2
BITMAP
0180
0100
0200
0000
1CF0
0C30
0C30
0C30
0C30
0C30
0C70
0798
0000
0000
ENDCHAR
STARTCHAR 00FB
ENCODING 251
SWIDTH 840 0
DWIDTH 14 0
BBX 14 14 0 -2
BITMAP
0100
0280
0440
0000
1CF0
0C30
0C30
0C30
0C30
0C30
0C70
0798
0000
0000
ENDCHAR
STARTCHAR 00FC
ENCODING 252
SWIDTH 840 0
DWIDTH 14 0
BBX 14 14 0 -2
BITMAP
0000
0CC0
0CC0
0000
1CF0
0C30
0C30
0C30
0C30
0C30
0C70
0798
0000
0000
ENDCHAR
STARTCHAR 00FD
ENCODING 253
SWIDTH 840 0
DWIDTH 14 0
BBX 14 14 0 -2
BITMAP
0180
0100
0200
0000
1F70
0C20
0620
0640
0340
0380
0180
1900
1900
0E00
ENDCHAR
STARTCHAR 00FE
ENCODING 254
SWIDTH 840 0
DWIDTH 14 0
BBX 14 14 0 -2
BITMAP
1C00
0C00
0C00
0C00
0DC0
0E60
0C30
0C30
0C30
0C30
0E60
0DC0
0C00
1E00
ENDCHAR
STARTCHAR 00FF
ENCODING 255
SWIDTH 840 0
DWIDTH 14 0
BBX 14 14 0 -2
BITMAP
0000
0CC0
0CC0
0000
1F70
0C20
0620
0640
0340
0380
0180
1900
1900
0E00
ENDCHAR
STARTCHAR 0100
ENCODING 256
SWIDTH 840 0
DWIDTH 14 0
BBX 14 14 0 -2
BITMAP
0FC0
0000
0100
0380
0380
04C0
04C0
0860
0FE0
1030
1030
7878
0000
0000
ENDCHAR
STARTCHAR 0101
ENCODING 257
SWIDTH 840 0
DWIDTH 14 0
BBX 14 14 0 -2
BITMAP
0000
0000
0FC0
0000
0780
0C40
0C60
03E0
0C60
1860
18E0
0F30
0000
0000
ENDCHAR
STARTCHAR 0102
ENCODING 258
SWIDTH 840 0
DWIDTH 14 0
BBX 14 14 0 -2
BITMAP
0440
0380
0000
0380
0380
04C0
04C0
0860
0FE0
1030
1030
7878
0000
0000
ENDCHAR
STARTCHAR 0103
ENCODING 259
SWIDTH 840 0
DWIDTH 14 0
BBX 14 14 0 -2
BITMAP
0000
0440
0380
0000
0780
0C40
0C60
03E0
0C60
1860
18E0
0F30
0000
0000
ENDCHAR
STARTCHAR 0104
ENCODING 260
SWIDTH 840 0
DWIDTH 14 0
BBX 14 14 0 -2
BITMAP
0000
0100
0100
0380
0380
04C0
04C0
0860
0FE0
1030
1030
7878
0020
0018
ENDCHAR
STARTCHAR 0105
ENCODING 261
SWIDTH 840 0
DWIDTH 14 0
BBX 14 14 0 -2
BITMAP
0000
0000
0000
0000
0780
0C40
0C60
03E0
0C60
1860
18E0
0F30
0010
000C
ENDCHAR
STARTCHAR 0106
ENCODING 262
SWIDTH 840 0
DWIDTH 14 0
BBX 14 14 0 -2
BITMAP
0180
0100
0200
03D0
0C30
1810
3010
3000
3000
1810
0C30
03C0
0000
0000
ENDCHAR
STARTCHAR 0107
ENCODING 263
SWIDTH 840 0
DWIDTH 14 0
BBX 14 14 0 -2
BITMAP
0180
0100
0200
0000
0380
0C60
1820
1800
1800
1820
0C60
0380
0000
0000
ENDCHAR
STARTCHAR 0108
ENCODING 264
SWIDTH 840 0
DWIDTH 14 0
BBX 14 14 0 -2
BITMAP
0100
0280
0440
03D0
0C30
1810
3010
3000
3000
1810
0C30
03C0
0000
0000
ENDCHAR
STARTCHAR 0109
ENCODING 265
SWIDTH 840 0
DWIDTH 14 0
BBX 14 14 0 -2
BITMAP
0100
0280
0440
0000
0380
0C60
1820
1800
1800
1820
0C60
0380
0000
0000
ENDCHAR
STARTCHAR 010C
ENCODING 268
SWIDTH 840 0
DWIDTH 14 0
BBX 14 14 0 -2
BITMAP
0440
0280
0100
03D0
0C30
1810
3010
3000
3000
1810
0C30
03C0
0000
0000
ENDCHAR
STARTCHAR 010D
ENCODING 269
SWIDTH 840 0
DWIDTH 14 0
BBX 14 14 0 -2
BITMAP
0440
0280
0100
0000
0380
0C60
1820
1800
1800
1820
0C60
0380
0000
0000
ENDCHAR
STARTCHAR 010E
ENCODING 270
SWIDTH 840 0
DWIDTH 14 0
BBX 14 14 0 -2
BITMAP
0440
0280
0100
3F80
0C60
0C30
0C18
0C18
0C18
0C30
0C60
3F80
0000
0000
ENDCHAR
STARTCHAR 010F
ENCODING 271
SWIDTH 840 0
DWIDTH 14 0
BBX 14 14 0 -2
BITMAP
0440
0280
01E0
0060
0060
0760
0CE0
1860
1860
1860
0CE0
0370
0000
0000
ENDCHAR
STARTCHAR 0111
ENCODING 273
SWIDTH 840 0
DWIDTH 14 0
BBX 14 14 0 -2
BITMAP
0000
00E0
0060
07F0
0060
0360
0CE0
1860
1860
1860
0CE0
0370
0000
0000
ENDCHAR
STARTCHAR 0112
ENCODING 274
SWIDTH 840 0
DWIDTH 14 0
BBX 14 14 0 -2
BITMAP
0FC0
0000
3FE0
0C20
0C10
0C40
0FC0
0C40
0C00
0C08
0C10
3FF0
0000
0000
ENDCHAR
STARTCHAR 0113
ENCODING 275
SWIDTH 840 0
DWIDTH 14 0
BBX 14 14 0 -2
BITMAP
0000
0000
0FC0
0000
07C0
0820
1830
1FF0
1800
1810
0C30
03C0
0000
0000
ENDCHAR
STARTCHAR 0118
ENCODING 280
SWIDTH 840 0
DWIDTH 14 0
BBX 14 14 0 -2
BITMAP
0000
3FE0
0C20
0C10
0C00
0C40
0FC0
0C40
0C00
0C08
0C10
3FF0
0020
0018
ENDCHAR
STARTCHAR 0119
ENCODING 281
SWIDTH 840 0
DWIDTH 14 0
BBX 14 14 0 -2
BITMAP
0000
0000
0000
0000
07C0
0820
1830
1FF0
1800
1810
0C30
03C0
0040
0030
ENDCHAR
STARTCHAR 011A
ENCODING 282
SWIDTH 840 0
DWIDTH 14 0
BBX 14 14 0 -2
BITMAP
0440
0280
0100
3FE0
0C20
0C10
0C40
0FC0
0C40
0C08
0C10
3FF0
0000
0000
ENDCHAR
STARTCHAR 011B
ENCODING 283
SWIDTH 840 0
DWIDTH 14 0
BBX 14 14 0 -2
BITMAP
0440
0280
0100
0000
07C0
0820
1830
1FF0
1800
1810
0C30
03C0
0000
0000
ENDCHAR
STARTCHAR 011C
ENCODING 284
SWIDTH 840 0
DWIDTH 14 0
BBX 14 14 0 -2
BITMAP
0100
0280
0440
03D0
0C30
1810
3000
30F8
3030
1830
0C60
0380
0000
0000
ENDCHAR
STARTCHAR 011D
ENCODING 285
SWIDTH 840 0
DWIDTH 14 0
BBX 14 14 0 -2
BITMAP
0100
0280
0440
0000
07E0
0CC0
08C0
0880
0700
0C00
0FC0
18E0
0820
07C0
ENDCHAR
STARTCHAR 0124
ENCODING 292
SWIDTH 840 0
DWIDTH 14 0
BBX 14 14 0 -2
BITMAP
0100
0280
0440
3C78
1830
1830
1830
1FF0
1830
1830
1830
3C78
0000
0000
ENDCHAR
STARTCHAR 0125
ENCODING 293
SWIDTH 840 0
DWIDTH 14 0
BBX 14 14 0 -2
BITMAP
0080
1D40
0E20
0C00
0DC0
0E60
0C30
0C30
0C30
0C30
0C30
1E78
0000
0000
ENDCHAR
STARTCHAR 0127
ENCODING 295
SWIDTH 840 0
DWIDTH 14 0
BBX 14 14 0 -2
BITMAP
0000
1C00
0C00
1F80
0C00
0DC0
0E60
0C30
0C30
0C30
0C30
1E78
0000
0000
ENDCHAR
STARTCHAR 012A
ENCODING 298
SWIDTH 840 0
DWIDTH 14 0
BBX 14 14 0 -2
BITMAP
0FC0
0000
0FC0
0300
0300
0300
0300
0300
0300
0300
0300
0FC0
0000
0000
ENDCHAR
STARTCHAR 012B
ENCODING 299
SWIDTH 840 0
DWIDTH 14 0
BBX 14 14 0 -2
BITMAP
0000
0000
0FC0
0000
0000
0F00
0300
0300
0300
0300
0300
0FC0
0000
0000
ENDCHAR
STARTCHAR 0134
ENCODING 308
SWIDTH 840 0
DWIDTH 14 0
BBX 14 14 0 -2
BITMAP
0100
0280
0440
01F8
0060
0060
0060
1060
3860
3060
18C0
0700
0000
0000
ENDCHAR
STARTCHAR 0135
ENCODING 309
SWIDTH 840 0
DWIDTH 14 0
BBX 14 14 0 -2
BITMAP
0000
0100
0280
0440
0000
0F80
0180
0180
0180
0180
0180
1980
1900
0E00
ENDCHAR
STARTCHAR 0139
ENCODING 313
SWIDTH 840 0
DWIDTH 14 0
BBX 14 14 0 -2
BITMAP
00C0
3E80
0D00
0C00
0C00
0C00
0C00
0C00
0C00
0C08
0C10
3FF0
0000
0000
ENDCHAR
STARTCHAR 013A
ENCODING 314
SWIDTH 840 0
DWIDTH 14 0
BBX 14 14 0 -2
BITMAP
0180
0100
0200
0F00
0300
0300
0300
0300
0300
0300
0300
0FC0
0000
0000
ENDCHAR
STARTCHAR 013D
ENCODING 317
SWIDTH 840 0
DWIDTH 14 0
BBX 14 14 0 -2
BITMAP
0220
3D40
0C80
0C00
0C00
0C00
0C00
0C00
0C00
0C08
0C10
3FF0
0000
0000
ENDCHAR
STARTCHAR 013E
ENCODING 318
SWIDTH 840 0
DWIDTH 14 0
BBX 14 14 0 -2
BITMAP
0440
0280
0100
0F00
0300
0300
0300
0300
0300
0300
0300
0FC0
0000
0000
ENDCHAR
STARTCHAR 0141
ENCODING 321
SWIDTH 840 0
DWIDTH 14 0
BBX 14 14 0 -2
BITMAP
0000
3F00
0C00
0C00
0D00
0E00
0C00
1C00
2C00
0C08
0C10
3FF0
0000
0000
ENDCHAR
STARTCHAR 0142
ENCODING 322
SWIDTH 840 0
DWIDTH 14 0
BBX 14 14 0 -2
BITMAP
0000
0F00
0300
0340
0380
0300
0700
0B00
0300
0300
0300
0FC0
0000
0000
ENDCHAR
STARTCHAR 0143
ENCODING 323
SWIDTH 840 0
DWIDTH 14 0
BBX 14 14 0 -2
BITMAP
0180
0100
3A70
1C20
1620
1620
1320
11A0
11A0
10E0
1060
3860
0000
0000
ENDCHAR
STARTCHAR 0144
ENCODING 324
SWIDTH 840 0
DWIDTH 14 0
BBX 14 14 0 -2
BITMAP
0180
0100
0200
0000
1DC0
0E20
0C30
0C30
0C30
0C30
0C30
1E78
0000
0000
ENDCHAR
STARTCHAR 0147
ENCODING 327
SWIDTH 840 0
DWIDTH 14 0
BBX 14 14 0 -2
BITMAP
0640
0980
0000
3870
1C20
1E20
1720
13A0
11A0
10E0
1060
3860
0000
0000
ENDCHAR
STARTCHAR 0148
ENCODING 328
SWIDTH 840 0
DWIDTH 14 0
BBX 14 14 0 -2
BITMAP
0440
0280
0100
0000
1DC0
0E20
0C30
0C30
0C30
0C30
0C30
1E78
0000
0000
ENDCHAR
STARTCHAR 014B
ENCODING 331
SWIDTH 840 0
DWIDTH 14 0
BBX 14 14 0 -2
BITMAP
0000
0000
0000
0000
1DC0
0E20
0C30
0C30
0C30
0C30
0C30
1E30
0120
01C0
ENDCHAR
STARTCHAR 014C
ENCODING 332
SWIDTH 840 0
DWIDTH 14 0
BBX 14 14 0 -2
BITMAP
0FC0
0000
0380
0C60
1830
3018
3018
3018
3018
1830
0C60
0380
0000
0000
ENDCHAR
STARTCHAR 014D
ENCODING 333
SWIDTH 840 0
DWIDTH 14 0
BBX 14 14 0 -2
BITMAP
0000
0000
0FC0
0000
0380
0C60
1830
1830
1830
1830
0C60
0380
0000
0000
ENDCHAR
STARTCHAR 0150
ENCODING 336
SWIDTH 840 0
DWIDTH 14 0
BBX 14 14 0 -2
BITMAP
0660
0440
0880
0380
0C60
1830
3018
3018
3018
1830
0C60
0380
0000
0000
ENDCHAR
STARTCHAR 0151
ENCODING 337
SWIDTH 840 0
DWIDTH 14 0
BBX 14 14 0 -2
BITMAP
0360
0240
0480
0000
0380
0C60
1830
1830
1830
1830
0C60
0380
0000
0000
ENDCHAR
STARTCHAR 0152
ENCODING 338
SWIDTH 840 0
DWIDTH 14 0
BBX 14 14 0 -2
BITMAP
0000
1DF8
3388
2184
6180
6190
61F0
6190
6180
2184
3388
1DF8
0000
0000
ENDCHAR
STARTCHAR 0153
ENCODING 339
SWIDTH 840 0
DWIDTH 14 0
BBX 14 14 0 -2
BITMAP
0000
0000
0000
0000
1C60
3790
6318
63F8
6300
6308
3788
1CF0
0000
0000
ENDCHAR
STARTCHAR 0154
ENCODING 340
SWIDTH 840 0
DWIDTH 14 0
BBX 14 14 0 -2
BITMAP
0180
0100
0200
3FC0
0C70
0C30
0C60
0F80
0CC0
0C60
0C70
3E38
0000
0000
ENDCHAR
STARTCHAR 0155
ENCODING 341
SWIDTH 840 0
DWIDTH 14 0
BBX 14 14 0 -2
BITMAP
0180
0100
0200
0000
1DC0
0E60
0C60
0C00
0C00
0C00
0C00
1E00
0000
0000
ENDCHAR
STARTCHAR 0158
ENCODING 344
SWIDTH 840 0
DWIDTH 14 0
BBX 14 14 0 -2
BITMAP
0440
0280
0100
3FC0
0C30
0C30
0C60
0F80
0CC0
0C60
0C30
3E38
0000
0000
ENDCHAR
STARTCHAR 0159
ENCODING 345
SWIDTH 840 0
DWIDTH 14 0
BBX 14 14 0 -2
BITMAP
0440
0280
0100
0000
1DC0
0E60
0C60
0C00
0C00
0C00
0C00
1E00
0000
0000
ENDCHAR
STARTCHAR 015A
ENCODING 346
SWIDTH 840 0
DWIDTH 14 0
BBX 14 14 0 -2
BITMAP
0180
0100
0200
07A0
0860
1820
0F00
07C0
11E0
1830
1C20
13C0
0000
0000
ENDCHAR
STARTCHAR 015B
ENCODING 347
SWIDTH 840 0
DWIDTH 14 0
BBX 14 14 0 -2
BITMAP
0180
0100
0200
0000
0FC0
1840
1C00
0F00
03C0
10E0
1860
17C0
0000
0000
ENDCHAR
STARTCHAR 015C
ENCODING 348
SWIDTH 840 0
DWIDTH 14 0
BBX 14 14 0 -2
BITMAP
0100
0280
0440
07A0
0860
1820
0F00
07C0
11E0
1830
1C20
13C0
0000
0000
ENDCHAR
STARTCHAR 015D
ENCODING 349
SWIDTH 840 0
DWIDTH 14 0
BBX 14 14 0 -2
BITMAP
0200
0500
0880
0000
0FC0
1840
1C00
0F00
03C0
10E0
1860
17C0
0000
0000
ENDCHAR
STARTCHAR 015E
ENCODING 350
SWIDTH 840 0
DWIDTH 14 0
BBX 14 14 0 -2
BITMAP
0000
07A0
0860
1820
1C00
0F00
03C0
00E0
1030
1830
1C20
13C0
0100
0600
ENDCHAR
STARTCHAR 015F
ENCODING 351
SWIDTH 840 0
DWIDTH 14 0
BBX 14 14 0 -2
BITMAP
0000
0000
0000
0000
0FC0
1840
1C00
0F00
03C0
10E0
1860
17C0
0100
0600
ENDCHAR
STARTCHAR 0160
ENCODING 352
SWIDTH 840 0
DWIDTH 14 0
BBX 14 14 0 -2
BITMAP
0440
0280
0100
07A0
0860
1820
0F00
07C0
11E0
1830
1C20
13C0
0000
0000
ENDCHAR
STARTCHAR 0161
ENCODING 353
SWIDTH 840 0
DWIDTH 14 0
BBX 14 14 0 -2
BITMAP
0440
0280
0100
0000
0FC0
1840
1C00
0F00
03C0
10E0
1860
17C0
0000
0000
ENDCHAR
STARTCHAR 0162
ENCODING 354
SWIDTH 840 0
DWIDTH 14 0
BBX 14 14 0 -2
BITMAP
0000
3FF0
2310
4308
0300
0300
0300
0300
0300
0300
0300
0FC0
0200
0C00
ENDCHAR
STARTCHAR 0163
ENCODING 355
SWIDTH 840 0
DWIDTH 14 0
BBX 14 14 0 -2
BITMAP
0000
0000
0200
0600
0600
1FE0
0600
0600
0600
0600
0620
03C0
0100
0600
ENDCHAR
STARTCHAR 0164
ENCODING 356
SWIDTH 840 0
DWIDTH 14 0
BBX 14 14 0 -2
BITMAP
0440
0280
0100
3FF0
2310
4308
0300
0300
0300
0300
0300
0FC0
0000
0000
ENDCHAR
STARTCHAR 0165
ENCODING 357
SWIDTH 840 0
DWIDTH 14 0
BBX 14 14 0 -2
BITMAP
0220
0140
0280
0600
0600
1FE0
0600
0600
0600
0600
0620
03C0
0000
0000
ENDCHAR
STARTCHAR 016A
ENCODING 362
SWIDTH 840 0
DWIDTH 14 0
BBX 14 14 0 -2
BITMAP
0FC0
0000
3C38
1810
1810
1810
1810
1810
1810
1810
0C20
03C0
0000
0000
ENDCHAR
STARTCHAR 016B
ENCODING 363
SWIDTH 840 0
DWIDTH 14 0
BBX 14 14 0 -2
BITMAP
0000
0000
0FC0
0000
1CF0
0C30
0C30
0C30
0C30
0C30
0C70
0798
0000
0000
ENDCHAR
STARTCHAR 016C
ENCODING 364
SWIDTH 840 0
DWIDTH 14 0
BBX 14 14 0 -2
BITMAP
0440
0380
3C38
1810
1810
1810
1810
1810
1810
1810
0C20
03C0
0000
0000
ENDCHAR
STARTCHAR 016D
ENCODING 365
SWIDTH 840 0
DWIDTH 14 0
BBX 14 14 0 -2
BITMAP
0000
0440
0380
0000
1CF0
0C30
0C30
0C30
0C30
0C30
0C70
0798
0000
0000
ENDCHAR
STARTCHAR 016E
ENCODING 366
SWIDTH 840 0
DWIDTH 14 0
BBX 14 14 0 -2
BITMAP
0180
0240
0240
3DB8
1810
1810
1810
1810
1810
1810
0C20
03C0
0000
0000
ENDCHAR
STARTCHAR 016F
ENCODING 367
SWIDTH 840 0
DWIDTH 14 0
BBX 14 14 0 -2
BITMAP
0300
0480
0480
0300
1CF0
0C30
0C30
0C30
0C30
0C30
0C70
0798
0000
0000
ENDCHAR
STARTCHAR 0170
ENCODING 368
SWIDTH 840 0
DWIDTH 14 0
BBX 14 14 0 -2
BITMAP
0360
0240
0480
3C38
1810
1810
1810
1810
1810
1810
0C20
03C0
0000
0000
ENDCHAR
STARTCHAR 0171
ENCODING 369
SWIDTH 840 0
DWIDTH 14 0
BBX 14 14 0 -2
BITMAP
0360
0240
0480
0000
1CF0
0C30
0C30
0C30
0C30
0C30
0C70
0798
0000
0000
ENDCHAR
STARTCHAR 0179
ENCODING 377
SWIDTH 840 0
DWIDTH 14 0
BBX 14 14 0 -2
BITMAP
0180
0100
0200
1FF0
1060
20C0
0180
0300
0600
0C08
1810
3FF0
0000
0000
ENDCHAR
STARTCHAR 017A
ENCODING 378
SWIDTH 840 0
DWIDTH 14 0
BBX 14 14 0 -2
BITMAP
0180
0100
0200
0000
1FE0
10C0
0180
0300
0600
0C00
1820
1FE0
0000
0000
ENDCHAR
STARTCHAR 017B
ENCODING 379
SWIDTH 840 0
DWIDTH 14 0
BBX 14 14 0 -2
BITMAP
0300
0300
0000
1FF0
1060
20C0
0180
0300
0600
0C08
1810
3FF0
0000
0000
ENDCHAR
STARTCHAR 017C
ENCODING 380
SWIDTH 840 0
DWIDTH 14 0
BBX 14 14 0 -2
BITMAP
0000
0300
0300
0000
1FE0
10C0
0180
0300
0600
0C00
1820
1FE0
0000
0000
ENDCHAR
STARTCHAR 017D
ENCODING 381
SWIDTH 840 0
DWIDTH 14 0
BBX 14 14 0 -2
BITMAP
0440
0280
0100
1FF0
1060
20C0
0180
0300
0600
0C08
1810
3FF0
0000
0000
ENDCHAR
STARTCHAR 017E
ENCODING 382
SWIDTH 840 0
DWIDTH 14 0
BBX 14 14 0 -2
BITMAP
0440
0280
0100
0000
1FE0
10C0
0180
0300
0600
0C00
1820
1FE0
0000
0000
ENDCHAR
STARTCHAR 0193
ENCODING 403
SWIDTH 840 0
DWIDTH 14 0
BBX 14 14 0 -2
BITMAP
0000
03B8
0C68
1820
3000
3000
30F8
3030
3030
1830
0C60
0380
0000
0000
ENDCHAR
STARTCHAR 01C2
ENCODING 450
SWIDTH 840 0
DWIDTH 14 0
BBX 14 14 0 -2
BITMAP
0000
0100
0100
0100
0FE0
0100
0100
0100
0FE0
0100
0100
0100
0000
0000
ENDCHAR
STARTCHAR 01CD
ENCODING 461
SWIDTH 840 0
DWIDTH 14 0
BBX 14 14 0 -2
BITMAP
0440
0280
0100
0380
0380
04C0
04C0
0860
0FE0
1030
1030
7878
0000
0000
ENDCHAR
STARTCHAR 01CE
ENCODING 462
SWIDTH 840 0
DWIDTH 14 0
BBX 14 14 0 -2
BITMAP
0880
0500
0200
0000
0780
0C40
0C60
03E0
0C60
1860
18E0
0F30
0000
0000
ENDCHAR
STARTCHAR 01D0
ENCODING 464
SWIDTH 840 0
DWIDTH 14 0
BBX 14 14 0 -2
BITMAP
0000
0440
0280
0100
0000
0F00
0300
0300
0300
0300
0300
0FC0
0000
0000
ENDCHAR
STARTCHAR 01D1
ENCODING 465
SWIDTH 840 0
DWIDTH 14 0
BBX 14 14 0 -2
BITMAP
0440
0280
0100
0380
0C60
1830
3018
3018
3018
1830
0C60
0380
0000
0000
ENDCHAR
STARTCHAR 01D2
ENCODING 466
SWIDTH 840 0
DWIDTH 14 0
BBX 14 14 0 -2
BITMAP
0000
0440
0280
0100
0380
0C60
1830
1830
1830
1830
0C60
0380
0000
0000
ENDCHAR
STARTCHAR 01D4
ENCODING 468
SWIDTH 840 0
DWIDTH 14 0
BBX 14 14 0 -2
BITMAP
0000
0440
0280
0100
1CF0
0C30
0C30
0C30
0C30
0C30
0C70
0798
0000
0000
ENDCHAR
STARTCHAR 01D6
ENCODING 470
SWIDTH 840 0
DWIDTH 14 0
BBX 14 14 0 -2
BITMAP
0FE0
0000
0C60
0C60
0000
1CF0
0C30
0C30
0C30
0C30
0C70
0798
0000
0000
ENDCHAR
STARTCHAR 01D8
ENCODING 472
SWIDTH 840 0
DWIDTH 14 0
BBX 14 14 0 -2
BITMAP
0180
0100
0E60
0C60
0000
1CF0
0C30
0C30
0C30
0C30
0C70
0798
0000
0000
ENDCHAR
STARTCHAR 01DA
ENCODING 474
SWIDTH 840 0
DWIDTH 14 0
BBX 14 14 0 -2
BITMAP
0440
0280
0D60
0C60
0000
1CF0
0C30
0C30
0C30
0C30
0C70
0798
0000
0000
ENDCHAR
STARTCHAR 01DC
ENCODING 476
SWIDTH 840 0
DWIDTH 14 0
BBX 14 14 0 -2
BITMAP
0300
0100
0CE0
0C60
0000
1CF0
0C30
0C30
0C30
0C30
0C70
0798
0000
0000
ENDCHAR
STARTCHAR 01F8
ENCODING 504
SWIDTH 840 0
DWIDTH 14 0
BBX 14 14 0 -2
BITMAP
0600
3A70
1920
1C20
1620
1620
1320
11A0
11A0
10E0
1060
3860
0000
0000
ENDCHAR
STARTCHAR 01F9
ENCODING 505
SWIDTH 840 0
DWIDTH 14 0
BBX 14 14 0 -2
BITMAP
0300
0100
0080
0000
1DC0
0E20
0C30
0C30
0C30
0C30
0C30
1E78
0000
0000
ENDCHAR
STARTCHAR 01FD
ENCODING 509
SWIDTH 840 0
DWIDTH 14 0
BBX 14 14 0 -2
BITMAP
0180
0100
0200
0000
1C60
3390
2318
1FF8
2300
6308
6788
3B70
0000
0000
ENDCHAR
STARTCHAR 0250
ENCODING 592
SWIDTH 840 0
DWIDTH 14 0
BBX 14 14 0 -2
BITMAP
0000
0000
0000
0000
33C0
1C60
1860
18C0
1F00
18C0
08C0
0780
0000
0000
ENDCHAR
STARTCHAR 0251
ENCODING 593
SWIDTH 840 0
DWIDTH 14 0
BBX 14 14 0 -2
BITMAP
0000
0000
0000
0000
0360
0CE0
1860
1860
1860
1860
0CE0
0330
0000
0000
ENDCHAR
STARTCHAR 0252
ENCODING 594
SWIDTH 840 0
DWIDTH 14 0
BBX 14 14 0 -2
BITMAP
0000
0000
0000
0000
3300
1CC0
1860
1860
1860
1860
1CC0
1B00
0000
0000
ENDCHAR
STARTCHAR 0253
ENCODING 595
SWIDTH 840 0
DWIDTH 14 0
BBX 14 14 0 -2
BITMAP
0000
03C0
0460
0C60
0C00
0D80
0E60
0C30
0C30
0C30
0E60
1D80
0000
0000
ENDCHAR
STARTCHAR 0254
ENCODING 596
SWIDTH 840 0
DWIDTH 14 0
BBX 14 14 0 -2
BITMAP
0000
0000
0000
0000
0700
18C0
1060
0060
0060
1060
18C0
1700
0000
0000
ENDCHAR
STARTCHAR 0255
ENCODING 597
SWIDTH 840 0
DWIDTH 14 0
BBX 14 14 0 -2
BITMAP
0000
0000
0000
0000
0380
0C60
1820
1800
1840
18A0
0D20
03C0
0200
0400
ENDCHAR
STARTCHAR 0256
ENCODING 598
SWIDTH 840 0
DWIDTH 14 0
BBX 14 14 0 -2
BITMAP
0000
00E0
0060
0060
0360
0CE0
1860
1860
1860
1860
0CE0
0360
0068
0038
ENDCHAR
STARTCHAR 0257
ENCODING 599
SWIDTH 840 0
DWIDTH 14 0
BBX 14 14 0 -2
BITMAP
0000
0078
00C8
00C0
06C0
19C0
30C0
30C0
30C0
30C0
19C0
06E0
0000
0000
ENDCHAR
STARTCHAR 0258
ENCODING 600
SWIDTH 840 0
DWIDTH 14 0
BBX 14 14 0 -2
BITMAP
0000
0000
0000
0000
07C0
0820
1830
1FF0
0030
1030
1860
0780
0000
0000
ENDCHAR
STARTCHAR 0259
ENCODING 601
SWIDTH 840 0
DWIDTH 14 0
BBX 14 14 0 -2
BITMAP
0000
0000
0000
0000
0780
1860
1030
0030
1FF0
1830
0820
07C0
0000
0000
ENDCHAR
STARTCHAR 025A
ENCODING 602
SWIDTH 840 0
DWIDTH 14 0
BBX 14 14 0 -2
BITMAP
0000
0000
0000
0000
0788
19D8
10E4
0360
0460
1860
0C40
0780
0000
0000
ENDCHAR
STARTCHAR 025C
ENCODING 604
SWIDTH 840 0
DWIDTH 14 0
BBX 14 14 0 -2
BITMAP
0000
0000
0000
0000
07C0
1870
0030
03E0
0030
1030
0860
07C0
0000
0000
ENDCHAR
STARTCHAR 025E
ENCODING 606
SWIDTH 840 0
DWIDTH 14 0
BBX 14 14 0 -2
BITMAP
0000
0000
0000
0000
07C0
0870
1030
13E0
1030
1030
0860
07C0
0000
0000
ENDCHAR
STARTCHAR 025F
ENCODING 607
SWIDTH 840 0
DWIDTH 14 0
BBX 14 14 0 -2
BITMAP
0000
0000
0000
0000
0000
07E0
0180
0180
07E0
0180
0180
1980
1900
0E00
ENDCHAR
STARTCHAR 0260
ENCODING 608
SWIDTH 840 0
DWIDTH 14 0
BBX 14 14 0 -2
BITMAP
0000
0000
0000
0038
0748
18C0
30C0
30C0
30C0
19C0
06C0
30C0
3080
1F00
ENDCHAR
STARTCHAR 0261
ENCODING 609
SWIDTH 840 0
DWIDTH 14 0
BBX 14 14 0 -2
BITMAP
0000
0000
0000
0000
03A0
0C60
1860
1860
1860
0CE0
0360
1860
1840
0F80
ENDCHAR
STARTCHAR 0264
ENCODING 612
SWIDTH 840 0
DWIDTH 14 0
BBX 14 14 0 -2
BITMAP
0000
0000
0000
0000
1EF0
0C60
06C0
0380
0100
0380
0280
0100
0000
0000
ENDCHAR
STARTCHAR 0265
ENCODING 613
SWIDTH 840 0
DWIDTH 14 0
BBX 14 14 0 -2
BITMAP
0000
1E30
0C30
0C30
0C30
0C30
0C30
0670
03B0
0030
0030
0038
0000
0000
ENDCHAR
STARTCHAR 0266
ENCODING 614
SWIDTH 840 0
DWIDTH 14 0
BBX 14 14 0 -2
BITMAP
0000
03C0
0460
0C60
0C00
0DC0
0E60
0C30
0C30
0C30
0C30
1E78
0000
0000
ENDCHAR
STARTCHAR 0267
ENCODING 615
SWIDTH 840 0
DWIDTH 14 0
BBX 14 14 0 -2
BITMAP
0000
03C0
0460
0C60
0C00
0DC0
0E60
0C30
0C30
0C30
0C30
1E30
0120
01C0
ENDCHAR
STARTCHAR 0268
ENCODING 616
SWIDTH 840 0
DWIDTH 14 0
BBX 14 14 0 -2
BITMAP
0000
0100
0380
0100
0000
0F00
0300
0300
0FC0
0300
0300
0FC0
0000
0000
ENDCHAR
STARTCHAR 026C
ENCODING 620
SWIDTH 840 0
DWIDTH 14 0
BBX 14 14 0 -2
BITMAP
0000
0F00
0300
0300
0F00
1300
1300
1300
0FE0
0300
0300
0FC0
0000
0000
ENDCHAR
STARTCHAR 026D
ENCODING 621
SWIDTH 840 0
DWIDTH 14 0
BBX 14 14 0 -2
BITMAP
0000
0F00
0300
0300
0300
0300
0300
0300
0300
0300
0300
0300
0320
01E0
ENDCHAR
STARTCHAR 026E
ENCODING 622
SWIDTH 840 0
DWIDTH 14 0
BBX 14 14 0 -2
BITMAP
0000
3C00
0C00
0C00
0FF8
0C30
0C60
0C60
0CC0
0DF0
0C38
3E38
0630
03E0
ENDCHAR
STARTCHAR 026F
ENCODING 623
SWIDTH 840 0
DWIDTH 14 0
BBX 14 14 0 -2
BITMAP
0000
0000
0000
0000
7778
3330
3330
3330
3330
3330
3370
1DB8
0000
0000
ENDCHAR
STARTCHAR 0270
ENCODING 624
SWIDTH 840 0
DWIDTH 14 0
BBX 14 14 0 -2
BITMAP
0000
0000
0000
0000
7778
3330
3330
3330
3330
3330
3370
1DB0
0030
0038
ENDCHAR
STARTCHAR 0271
ENCODING 625
SWIDTH 840 0
DWIDTH 14 0
BBX 14 14 0 -2
BITMAP
0000
0000
0000
0000
76E0
3B30
3330
3330
3330
3330
3330
7B30
01B0
01E0
ENDCHAR
STARTCHAR 0272
ENCODING 626
SWIDTH 840 0
DWIDTH 14 0
BBX 14 14 0 -2
BITMAP
0000
0000
0000
0000
0EC0
0720
0630
0630
0630
0630
0630
6678
6400
3800
ENDCHAR
STARTCHAR 0273
ENCODING 627
SWIDTH 840 0
DWIDTH 14 0
BBX 14 14 0 -2
BITMAP
0000
0000
0000
0000
3B80
1C40
1860
1860
1860
1860
1860
3C60
0068
0038
ENDCHAR
STARTCHAR 0275
ENCODING 629
SWIDTH 840 0
DWIDTH 14 0
BBX 14 14 0 -2
BITMAP
0000
0000
0000
0000
07C0
0820
1830
1FF0
1830
1830
0C60
0380
0000
0000
ENDCHAR
STARTCHAR 0279
ENCODING 633
SWIDTH 840 0
DWIDTH 14 0
BBX 14 14 0 -2
BITMAP
0000
0000
0000
0000
01E0
00C0
00C0
00C0
00C0
18C0
19C0
0EE0
0000
0000
ENDCHAR
STARTCHAR 027A
ENCODING 634
SWIDTH 840 0
DWIDTH 14 0
BBX 14 14 0 -2
BITMAP
0000
01E0
00C0
00C0
00C0
00C0
00C0
00C0
00C0
18C0
19C0
0EE0
0000
0000
ENDCHAR
STARTCHAR 027B
ENCODING 635
SWIDTH 840 0
DWIDTH 14 0
BBX 14 14 0 -2
BITMAP
0000
0000
0000
0000
01E0
00C0
00C0
00C0
00C0
18C0
19C0
0EC0
00C8
0078
ENDCHAR
STARTCHAR 027D
ENCODING 637
SWIDTH 840 0
DWIDTH 14 0
BBX 14 14 0 -2
BITMAP
0000
0000
0000
0000
1DC0
0E60
0C60
0C00
0C00
0C00
0C00
0C00
0C80
0780
ENDCHAR
STARTCHAR 027E
ENCODING 638
SWIDTH 840 0
DWIDTH 14 0
BBX 14 14 0 -2
BITMAP
0000
0000
0000
0000
01C0
0320
0360
0360
0300
0300
0300
0FC0
0000
0000
ENDCHAR
STARTCHAR 0281
ENCODING 641
SWIDTH 840 0
DWIDTH 14 0
BBX 14 14 0 -2
BITMAP
0000
0000
0000
0000
1C70
0CB0
0D80
0E60
0C30
0C30
0E60
1D80
0000
0000
ENDCHAR
STARTCHAR 0282
ENCODING 642
SWIDTH 840 0
DWIDTH 14 0
BBX 14 14 0 -2
BITMAP
0000
0000
0000
0000
0FC0
1840
1C00
0F00
03C0
10E0
1860
17C0
1000
0C00
ENDCHAR
STARTCHAR 0283
ENCODING 643
SWIDTH 840 0
DWIDTH 14 0
BBX 14 14 0 -2
BITMAP
01E0
0330
0330
0300
0300
0300
0300
0300
0300
0300
0300
3300
3300
1E00
ENDCHAR
STARTCHAR 0284
ENCODING 644
SWIDTH 840 0
DWIDTH 14 0
BBX 14 14 0 -2
BITMAP
0000
0000
0000
00E0
0130
0330
0300
0300
0300
0300
0FC0
0300
1300
1E00
ENDCHAR
STARTCHAR 0288
ENCODING 648
SWIDTH 840 0
DWIDTH 14 0
BBX 14 14 0 -2
BITMAP
0000
0000
0200
0600
0600
1FE0
0600
0600
0600
0600
0600
0600
0640
03C0
ENDCHAR
STARTCHAR 0289
ENCODING 649
SWIDTH 840 0
DWIDTH 14 0
BBX 14 14 0 -2
BITMAP
0000
0000
0000
0000
1CF0
0C30
0C30
1FF8
0C30
0C30
0C70
0798
0000
0000
ENDCHAR
STARTCHAR 028A
ENCODING 650
SWIDTH 840 0
DWIDTH 14 0
BBX 14 14 0 -2
BITMAP
0000
0000
0000
0000
1EF0
1290
0440
0C60
1830
1830
0C60
07C0
0000
0000
ENDCHAR
STARTCHAR 028B
ENCODING 651
SWIDTH 840 0
DWIDTH 14 0
BBX 14 14 0 -2
BITMAP
0000
0000
0000
0000
1CF0
0C30
0C30
0C30
0C30
0C20
0C60
0780
0000
0000
ENDCHAR
STARTCHAR 028C
ENCODING 652
SWIDTH 840 0
DWIDTH 14 0
BBX 14 14 0 -2
BITMAP
0000
0000
0000
0000
0300
0300
0580
0580
08C0
08C0
1060
39F0
0000
0000
ENDCHAR
STARTCHAR 028D
ENCODING 653
SWIDTH 840 0
DWIDTH 14 0
BBX 14 14 0 -2
BITMAP
0000
0000
0000
0000
0CC0
0CC0
0CC0
0EE0
16E0
1330
1330
3B78
0000
0000
ENDCHAR
STARTCHAR 028E
ENCODING 654
SWIDTH 840 0
DWIDTH 14 0
BBX 14 14 0 -2
BITMAP
0000
0000
00E0
0130
0130
0300
0380
0580
04C0
08C0
0860
1DF0
0000
0000
ENDCHAR
STARTCHAR 0290
ENCODING 656
SWIDTH 840 0
DWIDTH 14 0
BBX 14 14 0 -2
BITMAP
0000
0000
0000
0000
1FE0
10C0
0180
0300
0600
0C00
1820
1FE0
0028
0018
ENDCHAR
STARTCHAR 0291
ENCODING 657
SWIDTH 840 0
DWIDTH 14 0
BBX 14 14 0 -2
BITMAP
0000
0000
0000
0000
1FE0
10C0
0180
0300
0640
0CA0
1920
1FE0
0200
0400
ENDCHAR
STARTCHAR 0292
ENCODING 658
SWIDTH 840 0
DWIDTH 14 0
BBX 14 14 0 -2
BITMAP
0000
0000
0000
0000
1FE0
10C0
1180
0180
0300
07C0
00E0
18E0
18C0
0F80
ENDCHAR
STARTCHAR 0294
ENCODING 660
SWIDTH 840 0
DWIDTH 14 0
BBX 14 14 0 -2
BITMAP
0000
0780
09C0
1060
1860
1860
03C0
0300
0300
0300
0300
0FC0
0000
0000
ENDCHAR
STARTCHAR 0295
ENCODING 661
SWIDTH 840 0
DWIDTH 14 0
BBX 14 14 0 -2
BITMAP
0000
0780
0E40
1820
1860
1860
0F00
0300
0300
0300
0300
0FC0
0000
0000
ENDCHAR
STARTCHAR 0298
ENCODING 664
SWIDTH 840 0
DWIDTH 14 0
BBX 14 14 0 -2
BITMAP
0000
0000
0FC0
1860
3030
2010
2310
2310
2010
3030
1860
0FC0
0000
0000
ENDCHAR
STARTCHAR 029D
ENCODING 669
SWIDTH 840 0
DWIDTH 14 0
BBX 14 14 0 -2
BITMAP
0000
0100
0380
0100
0000
0FC0
0300
0300
0300
0300
0300
1FC0
1300
0E00
ENDCHAR
STARTCHAR 02A1
ENCODING 673
SWIDTH 840 0
DWIDTH 14 0
BBX 14 14 0 -2
BITMAP
0000
0780
09C0
1060
1860
1860
03C0
0300
0FC0
0300
0300
0FC0
0000
0000
ENDCHAR
STARTCHAR 02A2
ENCODING 674
SWIDTH 840 0
DWIDTH 14 0
BBX 14 14 0 -2
BITMAP
0000
0780
0E40
1820
1860
1860
0F00
0300
0FC0
0300
0300
0FC0
0000
0000
ENDCHAR
STARTCHAR 02C7
ENCODING 711
SWIDTH 840 0
DWIDTH 14 0
BBX 14 14 0 -2
BITMAP
0820
0440
0280
0100
0000
0000
0000
0000
0000
0000
0000
0000
0000
0000
ENDCHAR
STARTCHAR 02C8
ENCODING 712
SWIDTH 840 0
DWIDTH 14 0
BBX 14 14 0 -2
BITMAP
0000
0100
0100
0100
0100
0000
0000
0000
0000
0000
0000
0000
0000
0000
ENDCHAR
STARTCHAR 02CC
ENCODING 716
SWIDTH 840 0
DWIDTH 14 0
BBX 14 14 0 -2
BITMAP
0000
0000
0000
0000
0000
0000
0000
0000
0000
0100
0100
0100
0100
0000
ENDCHAR
STARTCHAR 02D0
ENCODING 720
SWIDTH 840 0
DWIDTH 14 0
BBX 14 14 0 -2
BITMAP
0000
0000
0000
07C0
0380
0100
0100
0000
0100
0100
0380
07C0
0000
0000
ENDCHAR
STARTCHAR 02D1
ENCODING 721
SWIDTH 840 0
DWIDTH 14 0
BBX 14 14 0 -2
BITMAP
0000
0000
0000
07C0
0380
0100
0100
0000
0000
0000
0000
0000
0000
0000
ENDCHAR
STARTCHAR 02D8
ENCODING 728
SWIDTH 840 0
DWIDTH 14 0
BBX 14 14 0 -2
BITMAP
0840
0840
0480
0300
0000
0000
0000
0000
0000
0000
0000
0000
0000
0000
ENDCHAR
STARTCHAR 02D9
ENCODING 729
SWIDTH 840 0
DWIDTH 14 0
BBX 14 14 0 -2
BITMAP
0000
0300
0300
0000
0000
0000
0000
0000
0000
0000
0000
0000
0000
0000
ENDCHAR
STARTCHAR 02DB
ENCODING 731
SWIDTH 840 0
DWIDTH 14 0
BBX 14 14 0 -2
BITMAP
0000
0000
0000
0000
0000
0000
0000
0000
0040
0080
0080
0060
0060
0000
ENDCHAR
STARTCHAR 02DD
ENCODING 733
SWIDTH 840 0
DWIDTH 14 0
BBX 14 14 0 -2
BITMAP
0000
0140
0280
0500
0000
0000
0000
0000
0000
0000
0000
0000
0000
0000
ENDCHAR
STARTCHAR 02DE
ENCODING 734
SWIDTH 840 0
DWIDTH 14 0
BBX 14 14 0 -2
BITMAP
0000
0000
0000
0000
0000
0000
1C00
0480
0480
0300
0000
0000
0000
0000
ENDCHAR
STARTCHAR 02E5
ENCODING 741
SWIDTH 840 0
DWIDTH 14 0
BBX 14 14 0 -2
BITMAP
FF00
0100
0100
0100
0100
0100
0100
0100
0100
0100
0100
0100
0100
0100
ENDCHAR
STARTCHAR 02E6
ENCODING 742
SWIDTH 840 0
DWIDTH 14 0
BBX 14 14 0 -2
BITMAP
0100
0100
0100
FF00
0100
0100
0100
0100
0100
0100
0100
0100
0100
0100
ENDCHAR
STARTCHAR 02E7
ENCODING 743
SWIDTH 840 0
DWIDTH 14 0
BBX 14 14 0 -2
BITMAP
0100
0100
0100
0100
0100
0100
0100
FF00
0100
0100
0100
0100
0100
0100
ENDCHAR
STARTCHAR 02E8
ENCODING 744
SWIDTH 840 0
DWIDTH 14 0
BBX 14 14 0 -2
BITMAP
0100
0100
0100
0100
0100
0100
0100
0100
0100
0100
FF00
0100
0100
0100
ENDCHAR
STARTCHAR 02E9
ENCODING 745
SWIDTH 840 0
DWIDTH 14 0
BBX 14 14 0 -2
BITMAP
0100
0100
0100
0100
0100
0100
0100
0100
0100
0100
0100
0100
0100
FF00
ENDCHAR
STARTCHAR 0300
ENCODING 768
SWIDTH 840 0
DWIDTH 14 0
BBX 14 14 0 -2
BITMAP
0000
0600
0300
0080
0000
0000
0000
0000
0000
0000
0000
0000
0000
0000
ENDCHAR
STARTCHAR 0301
ENCODING 769
SWIDTH 840 0
DWIDTH 14 0
BBX 14 14 0 -2
BITMAP
0000
00C0
0180
0200
0000
0000
0000
0000
0000
0000
0000
0000
0000
0000
ENDCHAR
STARTCHAR 0302
ENCODING 770
SWIDTH 840 0
DWIDTH 14 0
BBX 14 14 0 -2
BITMAP
0000
0100
0280
0440
0000
0000
0000
0000
0000
0000
0000
0000
0000
0000
ENDCHAR
STARTCHAR 0303
ENCODING 771
SWIDTH 840 0
DWIDTH 14 0
BBX 14 14 0 -2
BITMAP
0000
0640
0980
0000
0000
0000
0000
0000
0000
0000
0000
0000
0000
0000
ENDCHAR
STARTCHAR 0304
ENCODING 772
SWIDTH 840 0
DWIDTH 14 0
BBX 14 14 0 -2
BITMAP
0000
07C0
0000
0000
0000
0000
0000
0000
0000
0000
0000
0000
0000
0000
ENDCHAR
STARTCHAR 0306
ENCODING 774
SWIDTH 840 0
DWIDTH 14 0
BBX 14 14 0 -2
BITMAP
0000
0840
0840
0480
0300
0000
0000
0000
0000
0000
0000
0000
0000
0000
ENDCHAR
STARTCHAR 0308
ENCODING 776
SWIDTH 840 0
DWIDTH 14 0
BBX 14 14 0 -2
BITMAP
0CC0
0CC0
0000
0000
0000
0000
0000
0000
0000
0000
0000
0000
0000
0000
ENDCHAR
STARTCHAR 030B
ENCODING 779
SWIDTH 840 0
DWIDTH 14 0
BBX 14 14 0 -2
BITMAP
0000
0140
0280
0500
0000
0000
0000
0000
0000
0000
0000
0000
0000
0000
ENDCHAR
STARTCHAR 030C
ENCODING 780
SWIDTH 840 0
DWIDTH 14 0
BBX 14 14 0 -2
BITMAP
0000
0440
0280
0100
0000
0000
0000
0000
0000
0000
0000
0000
0000
0000
ENDCHAR
STARTCHAR 030F
ENCODING 783
SWIDTH 840 0
DWIDTH 14 0
BBX 14 14 0 -2
BITMAP
0000
0500
0280
0140
0000
0000
0000
0000
0000
0000
0000
0000
0000
0000
ENDCHAR
STARTCHAR 0318
ENCODING 792
SWIDTH 840 0
DWIDTH 14 0
BBX 14 14 0 -2
BITMAP
0000
0000
0000
0000
0000
0000
0000
0000
0000
0100
0100
0F00
0100
0100
ENDCHAR
STARTCHAR 0319
ENCODING 793
SWIDTH 840 0
DWIDTH 14 0
BBX 14 14 0 -2
BITMAP
0000
0000
0000
0000
0000
0000
0000
0000
0000
0100
0100
01E0
0100
0100
ENDCHAR
STARTCHAR 031A
ENCODING 794
SWIDTH 840 0
DWIDTH 14 0
BBX 14 14 0 -2
BITMAP
0000
00E0
0020
0020
0000
0000
0000
0000
0000
0000
0000
0000
0000
0000
ENDCHAR
STARTCHAR 031C
ENCODING 796
SWIDTH 840 0
DWIDTH 14 0
BBX 14 14 0 -2
BITMAP
0000
0000
0000
0000
0000
0000
0000
0000
0000
0000
0380
0400
0400
0380
ENDCHAR
STARTCHAR 031D
ENCODING 797
SWIDTH 840 0
DWIDTH 14 0
BBX 14 14 0 -2
BITMAP
0000
0000
0000
0000
0000
0000
0000
0000
0000
0100
0100
0FE0
0000
0000
ENDCHAR
STARTCHAR 031E
ENCODING 798
SWIDTH 840 0
DWIDTH 14 0
BBX 14 14 0 -2
BITMAP
0000
0000
0000
0000
0000
0000
0000
0000
0000
0000
0000
0FE0
0100
0100
ENDCHAR
STARTCHAR 031F
ENCODING 799
SWIDTH 840 0
DWIDTH 14 0
BBX 14 14 0 -2
BITMAP
0000
0000
0000
0000
0000
0000
0000
0000
0000
0100
0100
0FE0
0100
0100
ENDCHAR
STARTCHAR 0320
ENCODING 800
SWIDTH 840 0
DWIDTH 14 0
BBX 14 14 0 -2
BITMAP
0000
0000
0000
0000
0000
0000
0000
0000
0000
0000
0000
0FE0
0000
0000
ENDCHAR
STARTCHAR 0324
ENCODING 804
SWIDTH 840 0
DWIDTH 14 0
BBX 14 14 0 -2
BITMAP
0000
0000
0000
0000
0000
0000
0000
0000
0000
0000
0000
0000
0CC0
0CC0
ENDCHAR
STARTCHAR 0325
ENCODING 805
SWIDTH 840 0
DWIDTH 14 0
BBX 14 14 0 -2
BITMAP
0000
0000
0000
0000
0000
0000
0000
0000
0000
0000
0380
0440
0440
0380
ENDCHAR
STARTCHAR 0329
ENCODING 809
SWIDTH 840 0
DWIDTH 14 0
BBX 14 14 0 -2
BITMAP
0000
0000
0000
0000
0000
0000
0000
0000
0000
0000
0100
0100
0100
0100
ENDCHAR
STARTCHAR 032A
ENCODING 810
SWIDTH 840 0
DWIDTH 14 0
BBX 14 14 0 -2
BITMAP
0000
0000
0000
0000
0000
0000
0000
0000
0000
0000
0FE0
0820
0820
0000
ENDCHAR
STARTCHAR 032C
ENCODING 812
SWIDTH 840 0
DWIDTH 14 0
BBX 14 14 0 -2
BITMAP
0000
0000
0000
0000
0000
0000
0000
0000
0000
0000
0000
0440
0280
0100
ENDCHAR
STARTCHAR 032F
ENCODING 815
SWIDTH 840 0
DWIDTH 14 0
BBX 14 14 0 -2
BITMAP
0000
0000
0000
0000
0000
0000
0000
0000
0000
0300
0480
0840
0840
0000
ENDCHAR
STARTCHAR 0330
ENCODING 816
SWIDTH 840 0
DWIDTH 14 0
BBX 14 14 0 -2
BITMAP
0000
0000
0000
0000
0000
0000
0000
0000
0000
0000
0000
0000
0640
0980
ENDCHAR
STARTCHAR 0334
ENCODING 820
SWIDTH 840 0
DWIDTH 14 0
BBX 14 14 0 -2
BITMAP
0000
0000
0000
0000
0000
0000
0640
0980
0000
0000
0000
0000
0000
0000
ENDCHAR
STARTCHAR 0339
ENCODING 825
SWIDTH 840 0
DWIDTH 14 0
BBX 14 14 0 -2
BITMAP
0000
0000
0000
0000
0000
0000
0000
0000
0000
0000
0380
0040
0040
0380
ENDCHAR
STARTCHAR 033A
ENCODING 826
SWIDTH 840 0
DWIDTH 14 0
BBX 14 14 0 -2
BITMAP
0000
0000
0000
0000
0000
0000
0000
0000
0000
0000
0820
0820
0FE0
0000
ENDCHAR
STARTCHAR 033B
ENCODING 827
SWIDTH 840 0
DWIDTH 14 0
BBX 14 14 0 -2
BITMAP
0000
0000
0000
0000
0000
0000
0000
0000
0000
0000
0FE0
0820
0FE0
0000
ENDCHAR
STARTCHAR 033C
ENCODING 828
SWIDTH 840 0
DWIDTH 14 0
BBX 14 14 0 -2
BITMAP
0000
0000
0000
0000
0000
0000
0000
0000
0000
0000
0000
0000
0CC0
1320
ENDCHAR
STARTCHAR 033D
ENCODING 829
SWIDTH 840 0
DWIDTH 14 0
BBX 14 14 0 -2
BITMAP
0480
0300
0480
0000
0000
0000
0000
0000
0000
0000
0000
0000
0000
0000
ENDCHAR
STARTCHAR 0361
ENCODING 865
SWIDTH 840 0
DWIDTH 14 0
BBX 14 14 0 -2
BITMAP
0000
0780
1860
2010
0000
0000
0000
0000
0000
0000
0000
0000
0000
0000
ENDCHAR
STARTCHAR 0391
ENCODING 913
SWIDTH 840 0
DWIDTH 14 0
BBX 14 14 0 -2
BITMAP
0000
0100
0100
0380
0380
04C0
04C0
0860
0FE0
1030
1030
7878
0000
0000
ENDCHAR
STARTCHAR 0392
ENCODING 914
SWIDTH 840 0
DWIDTH 14 0
BBX 14 14 0 -2
BITMAP
0000
3F80
0C60
0C30
0C30
0C60
0FC0
0C30
0C18
0C18
0C30
3FC0
0000
0000
ENDCHAR
STARTCHAR 0393
ENCODING 915
SWIDTH 840 0
DWIDTH 14 0
BBX 14 14 0 -2
BITMAP
0000
3FE0
0C60
0C10
0C00
0C00
0C00
0C00
0C00
0C00
0C00
3F00
0000
0000
ENDCHAR
STARTCHAR 0394
ENCODING 916
SWIDTH 840 0
DWIDTH 14 0
BBX 14 14 0 -2
BITMAP
0000
0100
0100
0380
0380
04C0
04C0
0860
0860
1030
1030
3FF8
0000
0000
ENDCHAR
STARTCHAR 0395
ENCODING 917
SWIDTH 840 0
DWIDTH 14 0
BBX 14 14 0 -2
BITMAP
0000
3FE0
0C20
0C10
0C00
0C40
0FC0
0C40
0C00
0C08
0C10
3FF0
0000
0000
ENDCHAR
STARTCHAR 0396
ENCODING 918
SWIDTH 840 0
DWIDTH 14 0
BBX 14 14 0 -2
BITMAP
0000
1FF0
1060
20C0
0180
0180
0300
0600
0600
0C08
1810
3FF0
0000
0000
ENDCHAR
STARTCHAR 0397
ENCODING 919
SWIDTH 840 0
DWIDTH 14 0
BBX 14 14 0 -2
BITMAP
0000
3C78
1830
1830
1830
1830
1FF0
1830
1830
1830
1830
3C78
0000
0000
ENDCHAR
STARTCHAR 0398
ENCODING 920
SWIDTH 840 0
DWIDTH 14 0
BBX 14 14 0 -2
BITMAP
0000
0380
0C60
1830
3018
3458
37D8
3458
3018
1830
0C60
0380
0000
0000
ENDCHAR
STARTCHAR 0399
ENCODING 921
SWIDTH 840 0
DWIDTH 14 0
BBX 14 14 0 -2
BITMAP
0000
0FC0
0300
0300
0300
0300
0300
0300
0300
0300
0300
0FC0
0000
0000
ENDCHAR
STARTCHAR 039A
ENCODING 922
SWIDTH 840 0
DWIDTH 14 0
BBX 14 14 0 -2
BITMAP
0000
3C78
1820
1840
1880
1980
1AC0
1CC0
1860
1860
1830
3C78
0000
0000
ENDCHAR
STARTCHAR 039B
ENCODING 923
SWIDTH 840 0
DWIDTH 14 0
BBX 14 14 0 -2
BITMAP
0000
0100
0100
0380
0380
04C0
04C0
0860
0860
1030
1030
3878
0000
0000
ENDCHAR
STARTCHAR 039C
ENCODING 924
SWIDTH 840 0
DWIDTH 14 0
BBX 14 14 0 -2
BITMAP
0000
3838
1830
1C70
1C70
16B0
16B0
1730
1330
1230
1030
3878
0000
0000
ENDCHAR
STARTCHAR 039D
ENCODING 925
SWIDTH 840 0
DWIDTH 14 0
BBX 14 14 0 -2
BITMAP
0000
3870
1820
1C20
1620
1620
1320
11A0
11A0
10E0
1060
3860
0000
0000
ENDCHAR
STARTCHAR 039E
ENCODING 926
SWIDTH 840 0
DWIDTH 14 0
BBX 14 14 0 -2
BITMAP
0000
1FF0
1FE0
2020
0000
1020
1FE0
1FE0
1020
0000
1010
1FE0
3FE0
0000
ENDCHAR
STARTCHAR 039F
ENCODING 927
SWIDTH 840 0
DWIDTH 14 0
BBX 14 14 0 -2
BITMAP
0000
0380
0C60
1830
3018
3018
3018
3018
3018
1830
0C60
0380
0000
0000
ENDCHAR
STARTCHAR 03A0
ENCODING 928
SWIDTH 840 0
DWIDTH 14 0
BBX 14 14 0 -2
BITMAP
0000
3FF8
1830
1830
1830
1830
1830
1830
1830
1830
1830
3C78
0000
0000
ENDCHAR
STARTCHAR 03A1
ENCODING 929
SWIDTH 840 0
DWIDTH 14 0
BBX 14 14 0 -2
BITMAP
0000
3F80
0C60
0C30
0C30
0C60
0F80
0C00
0C00
0C00
0C00
3F00
0000
0000
ENDCHAR
STARTCHAR 03A3
ENCODING 931
SWIDTH 840 0
DWIDTH 14 0
BBX 14 14 0 -2
BITMAP
0000
3FE0
1820
0C10
0600
0300
0180
0100
0200
0410
0820
3FE0
0000
0000
ENDCHAR
STARTCHAR 03A4
ENCODING 932
SWIDTH 840 0
DWIDTH 14 0
BBX 14 14 0 -2
BITMAP
0000
3FF0
2310
4308
0300
0300
0300
0300
0300
0300
0300
0FC0
0000
0000
ENDCHAR
STARTCHAR 03A5
ENCODING 933
SWIDTH 840 0
DWIDTH 14 0
BBX 14 14 0 -2
BITMAP
0000
0CC0
17A0
2310
2310
0300
0300
0300
0300
0300
0300
0FC0
0000
0000
ENDCHAR
STARTCHAR 03A6
ENCODING 934
SWIDTH 840 0
DWIDTH 14 0
BBX 14 14 0 -2
BITMAP
0000
0FC0
0300
0780
1B60
3330
3330
3330
1B60
0780
0300
0FC0
0000
0000
ENDCHAR
STARTCHAR 03A7
ENCODING 935
SWIDTH 840 0
DWIDTH 14 0
BBX 14 14 0 -2
BITMAP
0000
3C78
1820
0C40
0680
0300
0300
0380
04C0
0860
1030
3878
0000
0000
ENDCHAR
STARTCHAR 03A8
ENCODING 936
SWIDTH 840 0
DWIDTH 14 0
BBX 14 14 0 -2
BITMAP
0000
0FC0
0300
6318
3330
3330
3330
1320
0FC0
0300
0300
0FC0
0000
0000
ENDCHAR
STARTCHAR 03A9
ENCODING 937
SWIDTH 840 0
DWIDTH 14 0
BBX 14 14 0 -2
BITMAP
0000
0380
0C60
1830
3018
3018
3018
1830
0820
0440
2288
3EF8
0000
0000
ENDCHAR
STARTCHAR 03B1
ENCODING 945
SWIDTH 840 0
DWIDTH 14 0
BBX 14 14 0 -2
BITMAP
0000
0000
0000
0020
0720
0CA0
1860
1060
1040
10C0
1940
0E30
0000
0000
ENDCHAR
STARTCHAR 03B2
ENCODING 946
SWIDTH 840 0
DWIDTH 14 0
BBX 14 14 0 -2
BITMAP
0000
00E0
0110
0210
0210
0420
05C0
0420
0C20
0820
0C60
1BC0
1000
1000
ENDCHAR
STARTCHAR 03B3
ENCODING 947
SWIDTH 840 0
DWIDTH 14 0
BBX 14 14 0 -2
BITMAP
0000
0000
0000
0000
0630
0940
0180
0100
0100
0300
0300
0300
0200
0000
ENDCHAR
STARTCHAR 03B4
ENCODING 948
SWIDTH 840 0
DWIDTH 14 0
BBX 14 14 0 -2
BITMAP
0000
0380
04E0
0410
0200
0380
04C0
0C40
0840
08C0
0980
0700
0000
0000
ENDCHAR
STARTCHAR 03B5
ENCODING 949
SWIDTH 840 0
DWIDTH 14 0
BBX 14 14 0 -2
BITMAP
0000
0000
0000
0000
0380
0640
0400
0380
0600
0C00
0C40
0780
0000
0000
ENDCHAR
STARTCHAR 03B6
ENCODING 950
SWIDTH 840 0
DWIDTH 14 0
BBX 14 14 0 -2
BITMAP
0000
0400
0CE0
07C0
0200
0400
0400
0800
0800
0E00
0780
00C0
0640
0380
ENDCHAR
STARTCHAR 03B7
ENCODING 951
SWIDTH 840 0
DWIDTH 14 0
BBX 14 14 0 -2
BITMAP
0000
0000
0000
0000
0CC0
1720
0220
0420
0420
0C40
0840
08C0
0080
0080
ENDCHAR
STARTCHAR 03B8
ENCODING 952
SWIDTH 840 0
DWIDTH 14 0
BBX 14 14 0 -2
BITMAP
0000
00E0
0110
0210
0610
0430
0FF0
0C20
0860
0840
0880
0700
0000
0000
ENDCHAR
STARTCHAR 03B9
ENCODING 953
SWIDTH 840 0
DWIDTH 14 0
BBX 14 14 0 -2
BITMAP
0000
0000
0000
0000
0100
0300
0200
0600
0400
0400
0680
0300
0000
0000
ENDCHAR
STARTCHAR 03BA
ENCODING 954
SWIDTH 840 0
DWIDTH 14 0
BBX 14 14 0 -2
BITMAP
0000
0000
0000
0000
0470
04C0
0D00
0E00
0900
1900
11A0
10C0
0000
0000
ENDCHAR
STARTCHAR 03BB
ENCODING 955
SWIDTH 840 0
DWIDTH 14 0
BBX 14 14 0 -2
BITMAP
0000
0380
00C0
0040
00C0
0140
0140
0240
0640
0440
0C60
0830
0000
0000
ENDCHAR
STARTCHAR 03BC
ENCODING 956
SWIDTH 840 0
DWIDTH 14 0
BBX 14 14 0 -2
BITMAP
0000
0000
0000
0000
0420
0420
0460
0C40
0840
0840
0CE8
1B30
1000
1000
ENDCHAR
STARTCHAR 03BD
ENCODING 957
SWIDTH 840 0
DWIDTH 14 0
BBX 14 14 0 -2
BITMAP
0000
0000
0000
0000
0820
0C20
0440
0440
0480
0700
0E00
0800
0000
0000
ENDCHAR
STARTCHAR 03BE
ENCODING 958
SWIDTH 840 0
DWIDTH 14 0
BBX 14 14 0 -2
BITMAP
0300
0460
03E0
0200
0400
0400
03C0
04C0
0800
0800
0E00
0780
00C0
0780
ENDCHAR
STARTCHAR 03BF
ENCODING 959
SWIDTH 840 0
DWIDTH 14 0
BBX 14 14 0 -2
BITMAP
0000
0000
0000
0000
00C0
0320
0610
0C30
0C30
0860
04C0
0300
0000
0000
ENDCHAR
STARTCHAR 03C0
ENCODING 960
SWIDTH 840 0
DWIDTH 14 0
BBX 14 14 0 -2
BITMAP
0000
0000
0000
0C08
1FF0
2240
0440
0480
0880
0880
18C0
3060
0000
0000
ENDCHAR
STARTCHAR 03C1
ENCODING 961
SWIDTH 840 0
DWIDTH 14 0
BBX 14 14 0 -2
BITMAP
0000
0000
0000
0000
01E0
0310
0610
0410
0C30
0C20
0C60
1B80
1000
1000
ENDCHAR
STARTCHAR 03C2
ENCODING 962
SWIDTH 840 0
DWIDTH 14 0
BBX 14 14 0 -2
BITMAP
0000
0000
0000
01C0
03A0
0610
0C30
0830
0C60
0400
0200
0100
0480
0300
ENDCHAR
STARTCHAR 03C3
ENCODING 963
SWIDTH 840 0
DWIDTH 14 0
BBX 14 14 0 -2
BITMAP
0000
0000
0000
0000
01F0
0780
0C40
1840
1040
10C0
1180
0F00
0000
0000
ENDCHAR
STARTCHAR 03C4
ENCODING 964
SWIDTH 840 0
DWIDTH 14 0
BBX 14 14 0 -2
BITMAP
0000
0000
0000
0000
0630
0FE0
1100
0300
0200
0400
0680
0300
0000
0000
ENDCHAR
STARTCHAR 03C5
ENCODING 965
SWIDTH 840 0
DWIDTH 14 0
BBX 14 14 0 -2
BITMAP
0000
0000
0000
0000
0440
0460
0C20
0C20
0860
0840
08C0
0780
0000
0000
ENDCHAR
STARTCHAR 03C6
ENCODING 966
SWIDTH 840 0
DWIDTH 14 0
BBX 14 14 0 -2
BITMAP
0000
0080
0080
0080
0380
0DC0
1920
3130
3230
1260
0EC0
0700
0400
0400
ENDCHAR
STARTCHAR 03C7
ENCODING 967
SWIDTH 840 0
DWIDTH 14 0
BBX 14 14 0 -2
BITMAP
0000
0610
0B30
0160
0140
0180
0100
0300
0700
0500
0900
1900
31A0
20C0
ENDCHAR
STARTCHAR 03C8
ENCODING 968
SWIDTH 840 0
DWIDTH 14 0
BBX 14 14 0 -2
BITMAP
0000
0080
0080
0080
31A0
5930
0910
0910
1230
1260
12C0
0F00
0400
0400
ENDCHAR
STARTCHAR 03C9
ENCODING 969
SWIDTH 840 0
DWIDTH 14 0
BBX 14 14 0 -2
BITMAP
0000
0000
0000
0000
0820
1010
3110
2310
2230
2220
3660
1980
0000
0000
ENDCHAR
STARTCHAR 0401
ENCODING 1025
SWIDTH 840 0
DWIDTH 14 0
BBX 14 14 0 -2
BITMAP
0CC0
0CC0
3FE0
0C10
0C00
0C40
0FC0
0C40
0C00
0C08
0C10
3FF0
0000
0000
ENDCHAR
STARTCHAR 0410
ENCODING 1040
SWIDTH 840 0
DWIDTH 14 0
BBX 14 14 0 -2
BITMAP
0000
0100
0100
0380
0380
04C0
04C0
0860
0FE0
1030
1030
7878
0000
0000
ENDCHAR
STARTCHAR 0411
ENCODING 1041
SWIDTH 840 0
DWIDTH 14 0
BBX 14 14 0 -2
BITMAP
0000
3FE0
0C20
0C10
0C00
0C00
0F80
0C60
0C30
0C30
0C30
0C60
3F80
0000
ENDCHAR
STARTCHAR 0412
ENCODING 1042
SWIDTH 840 0
DWIDTH 14 0
BBX 14 14 0 -2
BITMAP
0000
3F80
0C60
0C30
0C30
0C60
0FC0
0C30
0C18
0C18
0C30
3FC0
0000
0000
ENDCHAR
STARTCHAR 0413
ENCODING 1043
SWIDTH 840 0
DWIDTH 14 0
BBX 14 14 0 -2
BITMAP
0000
3FE0
0C60
0C10
0C00
0C00
0C00
0C00
0C00
0C00
0C00
3F00
0000
0000
ENDCHAR
STARTCHAR 0414
ENCODING 1044
SWIDTH 840 0
DWIDTH 14 0
BBX 14 14 0 -2
BITMAP
0000
0FF0
0460
0460
0460
0460
0460
0460
0460
0860
0860
1FF8
3018
2008
ENDCHAR
STARTCHAR 0415
ENCODING 1045
SWIDTH 840 0
DWIDTH 14 0
BBX 14 14 0 -2
BITMAP
0000
3FE0
0C20
0C10
0C00
0C40
0FC0
0C40
0C00
0C08
0C10
3FF0
0000
0000
ENDCHAR
STARTCHAR 0416
ENCODING 1046
SWIDTH 840 0
DWIDTH 14 0
BBX 14 14 0 -2
BITMAP
0000
6798
7338
1320
1320
1320
0FC0
0B40
1320
3330
2310
77B8
0000
0000
ENDCHAR
STARTCHAR 0417
ENCODING 1047
SWIDTH 840 0
DWIDTH 14 0
BBX 14 14 0 -2
BITMAP
0000
0780
1C60
1030
0030
0060
03C0
0060
0030
1030
1C60
0780
0000
0000
ENDCHAR
STARTCHAR 0418
ENCODING 1048
SWIDTH 840 0
DWIDTH 14 0
BBX 14 14 0 -2
BITMAP
0000
3C78
1830
1830
1870
18B0
1930
1A30
1C30
1830
1830
3C78
0000
0000
ENDCHAR
STARTCHAR 0419
ENCODING 1049
SWIDTH 840 0
DWIDTH 14 0
BBX 14 14 0 -2
BITMAP
06C0
0380
3C78
1830
1870
18B0
1930
1A30
1C30
1830
1830
3C78
0000
0000
ENDCHAR
STARTCHAR 041A
ENCODING 1050
SWIDTH 840 0
DWIDTH 14 0
BBX 14 14 0 -2
BITMAP
0000
3C38
1858
1880
1880
1900
1F00
1980
18C0
1860
1830
3C78
0000
0000
ENDCHAR
STARTCHAR 041B
ENCODING 1051
SWIDTH 840 0
DWIDTH 14 0
BBX 14 14 0 -2
BITMAP
0000
07F8
0230
0230
0230
0230
0230
0230
0230
3430
3430
1878
0000
0000
ENDCHAR
STARTCHAR 041C
ENCODING 1052
SWIDTH 840 0
DWIDTH 14 0
BBX 14 14 0 -2
BITMAP
0000
3870
1860
1860
1CE0
1CE0
1760
2630
2230
2230
2030
7078
0000
0000
ENDCHAR
STARTCHAR 041D
ENCODING 1053
SWIDTH 840 0
DWIDTH 14 0
BBX 14 14 0 -2
BITMAP
0000
3C78
1830
1830
1830
1830
1FF0
1830
1830
1830
1830
3C78
0000
0000
ENDCHAR
STARTCHAR 041E
ENCODING 1054
SWIDTH 840 0
DWIDTH 14 0
BBX 14 14 0 -2
BITMAP
0000
0380
0C60
1830
3018
3018
3018
3018
3018
1830
0C60
0380
0000
0000
ENDCHAR
STARTCHAR 041F
ENCODING 1055
SWIDTH 840 0
DWIDTH 14 0
BBX 14 14 0 -2
BITMAP
0000
3FF8
1830
1830
1830
1830
1830
1830
1830
1830
1830
3C78
0000
0000
ENDCHAR
STARTCHAR 0420
ENCODING 1056
SWIDTH 840 0
DWIDTH 14 0
BBX 14 14 0 -2
BITMAP
0000
3F80
0C60
0C30
0C30
0C60
0F80
0C00
0C00
0C00
0C00
3F00
0000
0000
ENDCHAR
STARTCHAR 0421
ENCODING 1057
SWIDTH 840 0
DWIDTH 14 0
BBX 14 14 0 -2
BITMAP
0000
03D0
0C30
1810
3010
3000
3000
3000
3000
1810
0C30
03C0
0000
0000
ENDCHAR
STARTCHAR 0422
ENCODING 1058
SWIDTH 840 0
DWIDTH 14 0
BBX 14 14 0 -2
BITMAP
0000
3FF0
2310
4308
0300
0300
0300
0300
0300
0300
0300
0FC0
0000
0000
ENDCHAR
STARTCHAR 0423
ENCODING 1059
SWIDTH 840 0
DWIDTH 14 0
BBX 14 14 0 -2
BITMAP
0000
3C78
1810
1810
0C20
0C20
0640
0640
0380
0380
0100
1900
1A00
0C00
ENDCHAR
STARTCHAR 0424
ENCODING 1060
SWIDTH 840 0
DWIDTH 14 0
BBX 14 14 0 -2
BITMAP
0000
0FC0
0300
0780
1B60
3330
3330
3330
1B60
0780
0300
0FC0
0000
0000
ENDCHAR
STARTCHAR 0425
ENCODING 1061
SWIDTH 840 0
DWIDTH 14 0
BBX 14 14 0 -2
BITMAP
0000
3C78
1820
0C40
0680
0300
0300
0380
04C0
0860
1030
3878
0000
0000
ENDCHAR
STARTCHAR 0426
ENCODING 1062
SWIDTH 840 0
DWIDTH 14 0
BBX 14 14 0 -2
BITMAP
0000
3C78
1830
1830
1830
1830
1830
1830
1830
1830
1830
3FF8
0018
0008
ENDCHAR
STARTCHAR 0427
ENCODING 1063
SWIDTH 840 0
DWIDTH 14 0
BBX 14 14 0 -2
BITMAP
0000
3CF0
1860
1860
1860
1860
1860
0FE0
0060
0060
0060
01F0
0000
0000
ENDCHAR
STARTCHAR 0428
ENCODING 1064
SWIDTH 840 0
DWIDTH 14 0
BBX 14 14 0 -2
BITMAP
0000
77B8
3330
3330
3330
3330
3330
3330
3330
3330
3330
7FF8
0000
0000
ENDCHAR
STARTCHAR 0429
ENCODING 1065
SWIDTH 840 0
DWIDTH 14 0
BBX 14 14 0 -2
BITMAP
0000
77B8
3330
3330
3330
3330
3330
3330
3330
3330
3330
7FF8
0018
0008
ENDCHAR
STARTCHAR 042A
ENCODING 1066
SWIDTH 840 0
DWIDTH 14 0
BBX 14 14 0 -2
BITMAP
0000
3F00
2600
4600
0600
07E0
0630
0618
0618
0618
0630
1FC0
0000
0000
ENDCHAR
STARTCHAR 042B
ENCODING 1067
SWIDTH 840 0
DWIDTH 14 0
BBX 14 14 0 -2
BITMAP
0000
3C78
1830
1830
1830
1E30
19B0
18F0
18F0
18F0
19B0
3E78
0000
0000
ENDCHAR
STARTCHAR 042C
ENCODING 1068
SWIDTH 840 0
DWIDTH 14 0
BBX 14 14 0 -2
BITMAP
0000
3F00
0C00
0C00
0C00
0F80
0C60
0C30
0C30
0C30
0C60
3F80
0000
0000
ENDCHAR
STARTCHAR 042D
ENCODING 1069
SWIDTH 840 0
DWIDTH 14 0
BBX 14 14 0 -2
BITMAP
0000
0780
1C60
1030
0010
0618
0BB8
00D8
0010
1030
1C60
0780
0000
0000
ENDCHAR
STARTCHAR 042E
ENCODING 1070
SWIDTH 840 0
DWIDTH 14 0
BBX 14 14 0 -2
BITMAP
0000
78C0
3330
3210
3618
3618
3E18
3618
3618
3210
3330
78C0
0000
0000
ENDCHAR
STARTCHAR 042F
ENCODING 1071
SWIDTH 840 0
DWIDTH 14 0
BBX 14 14 0 -2
BITMAP
0000
03F8
0C30
1830
1830
1830
0C30
07F0
0330
0630
0C30
3078
0000
0000
ENDCHAR
STARTCHAR 0430
ENCODING 1072
SWIDTH 840 0
DWIDTH 14 0
BBX 14 14 0 -2
BITMAP
0000
0000
0000
0000
0780
0C40
0C60
03E0
0C60
1860
18E0
0F30
0000
0000
ENDCHAR
STARTCHAR 0431
ENCODING 1073
SWIDTH 840 0
DWIDTH 14 0
BBX 14 14 0 -2
BITMAP
0010
00E0
03C0
0400
0580
0E60
0C30
0C30
0C30
0C30
0660
0180
0000
0000
ENDCHAR
STARTCHAR 0432
ENCODING 1074
SWIDTH 840 0
DWIDTH 14 0
BBX 14 14 0 -2
BITMAP
0000
0000
0000
0000
1FC0
0C60
0C60
0FC0
0C20
0C30
0C30
1FE0
0000
0000
ENDCHAR
STARTCHAR 0433
ENCODING 1075
SWIDTH 840 0
DWIDTH 14 0
BBX 14 14 0 -2
BITMAP
0000
0000
0000
0000
1FE0
0C20
0C10
0C00
0C00
0C00
0C00
1F00
0000
0000
ENDCHAR
STARTCHAR 0434
ENCODING 1076
SWIDTH 840 0
DWIDTH 14 0
BBX 14 14 0 -2
BITMAP
0000
0000
0000
0000
0FF0
0460
0460
0460
0460
0460
0860
3FE0
2010
0000
ENDCHAR
STARTCHAR 0435
ENCODING 1077
SWIDTH 840 0
DWIDTH 14 0
BBX 14 14 0 -2
BITMAP
0000
0000
0000
0000
07C0
0820
1830
1FF0
1800
1810
0C30
03C0
0000
0000
ENDCHAR
STARTCHAR 0436
ENCODING 1078
SWIDTH 840 0
DWIDTH 14 0
BBX 14 14 0 -2
BITMAP
0000
0000
0000
0000
6798
7338
0B40
0FC0
0B40
1320
3330
6798
0000
0000
ENDCHAR
STARTCHAR 0437
ENCODING 1079
SWIDTH 840 0
DWIDTH 14 0
BBX 14 14 0 -2
BITMAP
0000
0000
0000
0000
0780
1860
1060
03C0
0060
1060
1860
0780
0000
0000
ENDCHAR
STARTCHAR 0438
ENCODING 1080
SWIDTH 840 0
DWIDTH 14 0
BBX 14 14 0 -2
BITMAP
0000
0000
0000
0000
3CF0
1860
18E0
1960
1A60
1C60
1860
3CF0
0000
0000
ENDCHAR
STARTCHAR 0439
ENCODING 1081
SWIDTH 840 0
DWIDTH 14 0
BBX 14 14 0 -2
BITMAP
0000
06C0
0380
0000
3CF0
1860
18E0
1960
1A60
1C60
1860
3CF0
0000
0000
ENDCHAR
STARTCHAR 043A
ENCODING 1082
SWIDTH 840 0
DWIDTH 14 0
BBX 14 14 0 -2
BITMAP
0000
0000
0000
0000
3C60
18E0
1900
1F00
1980
18C0
1860
3C70
0000
0000
ENDCHAR
STARTCHAR 043B
ENCODING 1083
SWIDTH 840 0
DWIDTH 14 0
BBX 14 14 0 -2
BITMAP
0000
0000
0000
0000
07F0
0260
0260
0260
0260
3460
3460
18F0
0000
0000
ENDCHAR
STARTCHAR 043C
ENCODING 1084
SWIDTH 840 0
DWIDTH 14 0
BBX 14 14 0 -2
BITMAP
0000
0000
0000
0000
3838
1C70
1C70
16B0
16B0
1330
1330
3878
0000
0000
ENDCHAR
STARTCHAR 043D
ENCODING 1085
SWIDTH 840 0
DWIDTH 14 0
BBX 14 14 0 -2
BITMAP
0000
0000
0000
0000
3CF0
1860
1860
1FE0
1860
1860
1860
3CF0
0000
0000
ENDCHAR
STARTCHAR 043E
ENCODING 1086
SWIDTH 840 0
DWIDTH 14 0
BBX 14 14 0 -2
BITMAP
0000
0000
0000
0000
0380
0C60
1830
1830
1830
1830
0C60
0380
0000
0000
ENDCHAR
STARTCHAR 043F
ENCODING 1087
SWIDTH 840 0
DWIDTH 14 0
BBX 14 14 0 -2
BITMAP
0000
0000
0000
0000
3FF0
1860
1860
1860
1860
1860
1860
3CF0
0000
0000
ENDCHAR
STARTCHAR 0440
ENCODING 1088
SWIDTH 840 0
DWIDTH 14 0
BBX 14 14 0 -2
BITMAP
0000
0000
0000
0000
1DC0
0E60
0C30
0C30
0C30
0C30
0E60
0DC0
0C00
1E00
ENDCHAR
STARTCHAR 0441
ENCODING 1089
SWIDTH 840 0
DWIDTH 14 0
BBX 14 14 0 -2
BITMAP
0000
0000
0000
0000
0380
0C60
1820
1800
1800
1820
0C60
0380
0000
0000
ENDCHAR
STARTCHAR 0442
ENCODING 1090
SWIDTH 840 0
DWIDTH 14 0
BBX 14 14 0 -2
BITMAP
0000
0000
0000
0000
1FE0
1320
2310
0300
0300
0300
0300
0780
0000
0000
ENDCHAR
STARTCHAR 0443
ENCODING 1091
SWIDTH 840 0
DWIDTH 14 0
BBX 14 14 0 -2
BITMAP
0000
0000
0000
0000
1F70
0C20
0620
0640
0340
0380
0180
1900
1900
0E00
ENDCHAR
STARTCHAR 0444
ENCODING 1092
SWIDTH 840 0
DWIDTH 14 0
BBX 14 14 0 -2
BITMAP
0000
0100
0300
0300
1B60
37B0
6318
6318
6318
6318
37B0
1B60
0300
0780
ENDCHAR
STARTCHAR 0445
ENCODING 1093
SWIDTH 840 0
DWIDTH 14 0
BBX 14 14 0 -2
BITMAP
0000
0000
0000
0000
1E70
0C20
0640
0380
0380
04C0
0860
1CF0
0000
0000
ENDCHAR
STARTCHAR 0446
ENCODING 1094
SWIDTH 840 0
DWIDTH 14 0
BBX 14 14 0 -2
BITMAP
0000
0000
0000
0000
3CF0
1860
1860
1860
1860
1860
1860
1FF0
0030
0010
ENDCHAR
STARTCHAR 0447
ENCODING 1095
SWIDTH 840 0
DWIDTH 14 0
BBX 14 14 0 -2
BITMAP
0000
0000
0000
0000
3CF0
1860
1860
1860
0FE0
0060
0060
00F0
0000
0000
ENDCHAR
STARTCHAR 0448
ENCODING 1096
SWIDTH 840 0
DWIDTH 14 0
BBX 14 14 0 -2
BITMAP
0000
0000
0000
0000
7778
3330
3330
3330
3330
3330
3330
7FF8
0000
0000
ENDCHAR
STARTCHAR 0449
ENCODING 1097
SWIDTH 840 0
DWIDTH 14 0
BBX 14 14 0 -2
BITMAP
0000
0000
0000
0000
7778
3330
3330
3330
3330
3330
3330
7FF8
0018
0008
ENDCHAR
STARTCHAR 044A
ENCODING 1098
SWIDTH 840 0
DWIDTH 14 0
BBX 14 14 0 -2
BITMAP
0000
0000
0000
0000
3F00
2600
4600
07E0
0630
0630
0630
0FE0
0000
0000
ENDCHAR
STARTCHAR 044B
ENCODING 1099
SWIDTH 840 0
DWIDTH 14 0
BBX 14 14 0 -2
BITMAP
0000
0000
0000
0000
3C78
1830
1830
1F30
19B0
19B0
19B0
3F78
0000
0000
ENDCHAR
STARTCHAR 044C
ENCODING 1100
SWIDTH 840 0
DWIDTH 14 0
BBX 14 14 0 -2
BITMAP
0000
0000
0000
0000
1E00
0C00
0C00
0FE0
0C30
0C30
0C30
1FE0
0000
0000
ENDCHAR
STARTCHAR 044D
ENCODING 1101
SWIDTH 840 0
DWIDTH 14 0
BBX 14 14 0 -2
BITMAP
0000
0000
0000
0000
0780
1860
1030
0370
05B0
1030
1860
0780
0000
0000
ENDCHAR
STARTCHAR 044E
ENCODING 1102
SWIDTH 840 0
DWIDTH 14 0
BBX 14 14 0 -2
BITMAP
0000
0000
0000
0000
3CE0
1910
1B18
1F18
1B18
1B18
1910
3CE0
0000
0000
ENDCHAR
STARTCHAR 044F
ENCODING 1103
SWIDTH 840 0
DWIDTH 14 0
BBX 14 14 0 -2
BITMAP
0000
0000
0000
0000
07F0
0860
1860
1860
0FE0
0660
0C60
10F0
0000
0000
ENDCHAR
STARTCHAR 0451
ENCODING 1105
SWIDTH 840 0
DWIDTH 14 0
BBX 14 14 0 -2
BITMAP
0000
0660
0660
0000
07C0
0820
1830
1FF0
1800
1810
0C30
03C0
0000
0000
ENDCHAR
STARTCHAR 1E3E
ENCODING 7742
SWIDTH 840 0
DWIDTH 14 0
BBX 14 14 0 -2
BITMAP
0180
3938
1A30
1C70
1C70
16B0
16B0
1730
1330
1230
1030
3878
0000
0000
ENDCHAR
STARTCHAR 1E3F
ENCODING 7743
SWIDTH 840 0
DWIDTH 14 0
BBX 14 14 0 -2
BITMAP
0300
0200
0400
0000
76E0
3B30
3330
3330
3330
3330
3330
7BB8
0000
0000
ENDCHAR
STARTCHAR 1F70
ENCODING 8048
SWIDTH 840 0
DWIDTH 14 0
BBX 14 14 0 -2
BITMAP
0300
0100
0080
0000
0360
0CE0
1860
1860
1860
1860
0CE0
0330
0000
0000
ENDCHAR
STARTCHAR 1F71
ENCODING 8049
SWIDTH 840 0
DWIDTH 14 0
BBX 14 14 0 -2
BITMAP
0180
0100
0200
0000
0360
0CE0
1860
1860
1860
1860
0CE0
0330
0000
0000
ENDCHAR
STARTCHAR 1F72
ENCODING 8050
SWIDTH 840 0
DWIDTH 14 0
BBX 14 14 0 -2
BITMAP
0300
0100
0080
0000
07C0
1C70
1800
0FC0
1800
1810
0C20
07C0
0000
0000
ENDCHAR
STARTCHAR 1F73
ENCODING 8051
SWIDTH 840 0
DWIDTH 14 0
BBX 14 14 0 -2
BITMAP
0180
0100
0200
0000
07C0
1C70
1800
0FC0
1800
1810
0C20
07C0
0000
0000
ENDCHAR
STARTCHAR 2000
ENCODING 8192
SWIDTH 840 0
DWIDTH 14 0
BBX 14 14 0 -2
BITMAP
0000
0000
0000
0000
0000
0000
0000
0000
0000
0000
0000
0000
0000
0000
ENDCHAR
STARTCHAR 2001
ENCODING 8193
SWIDTH 840 0
DWIDTH 14 0
BBX 14 14 0 -2
BITMAP
0000
0000
0000
0000
0000
0000
0000
0000
0000
0000
0000
0000
0000
0000
ENDCHAR
STARTCHAR 2002
ENCODING 8194
SWIDTH 840 0
DWIDTH 14 0
BBX 14 14 0 -2
BITMAP
0000
0000
0000
0000
0000
0000
0000
0000
0000
0000
0000
0000
0000
0000
ENDCHAR
STARTCHAR 2003
ENCODING 8195
SWIDTH 840 0
DWIDTH 14 0
BBX 14 14 0 -2
BITMAP
0000
0000
0000
0000
0000
0000
0000
0000
0000
0000
0000
0000
0000
0000
ENDCHAR
STARTCHAR 2004
ENCODING 8196
SWIDTH 840 0
DWIDTH 14 0
BBX 14 14 0 -2
BITMAP
0000
0000
0000
0000
0000
0000
0000
0000
0000
0000
0000
0000
0000
0000
ENDCHAR
STARTCHAR 2005
ENCODING 8197
SWIDTH 840 0
DWIDTH 14 0
BBX 14 14 0 -2
BITMAP
0000
0000
0000
0000
0000
0000
0000
0000
0000
0000
0000
0000
0000
0000
ENDCHAR
STARTCHAR 2006
ENCODING 8198
SWIDTH 840 0
DWIDTH 14 0
BBX 14 14 0 -2
BITMAP
0000
0000
0000
0000
0000
0000
0000
0000
0000
0000
0000
0000
0000
0000
ENDCHAR
STARTCHAR 2007
ENCODING 8199
SWIDTH 840 0
DWIDTH 14 0
BBX 14 14 0 -2
BITMAP
0000
0000
0000
0000
0000
0000
0000
0000
0000
0000
0000
0000
0000
0000
ENDCHAR
STARTCHAR 2008
ENCODING 8200
SWIDTH 840 0
DWIDTH 14 0
BBX 14 14 0 -2
BITMAP
0000
0000
0000
0000
0000
0000
0000
0000
0000
0000
0000
0000
0000
0000
ENDCHAR
STARTCHAR 2009
ENCODING 8201
SWIDTH 840 0
DWIDTH 14 0
BBX 14 14 0 -2
BITMAP
0000
0000
0000
0000
0000
0000
0000
0000
0000
0000
0000
0000
0000
0000
ENDCHAR
STARTCHAR 200A
ENCODING 8202
SWIDTH 840 0
DWIDTH 14 0
BBX 14 14 0 -2
BITMAP
0000
0000
0000
0000
0000
0000
0000
0000
0000
0000
0000
0000
0000
0000
ENDCHAR
STARTCHAR 200B
ENCODING 8203
SWIDTH 420 0
DWIDTH 7 0
BBX 1 1 0 0
BITMAP
00
ENDCHAR
STARTCHAR 200C
ENCODING 8204
SWIDTH 420 0
DWIDTH 7 0
BBX 1 1 0 0
BITMAP
00
ENDCHAR
STARTCHAR 200D
ENCODING 8205
SWIDTH 420 0
DWIDTH 7 0
BBX 1 1 0 0
BITMAP
00
ENDCHAR
STARTCHAR 200E
ENCODING 8206
SWIDTH 420 0
DWIDTH 7 0
BBX 1 1 0 0
BITMAP
00
ENDCHAR
STARTCHAR 200F
ENCODING 8207
SWIDTH 420 0
DWIDTH 7 0
BBX 1 1 0 0
BITMAP
00
ENDCHAR
STARTCHAR 2010
ENCODING 8208
SWIDTH 840 0
DWIDTH 14 0
BBX 14 14 0 -2
BITMAP
0000
0000
0000
0000
0000
0000
07C0
0000
0000
0000
0000
0000
0000
0000
ENDCHAR
STARTCHAR 2013
ENCODING 8211
SWIDTH 840 0
DWIDTH 14 0
BBX 14 14 0 -2
BITMAP
0000
0000
0000
0000
0000
0000
0FC0
0000
0000
0000
0000
0000
0000
0000
ENDCHAR
STARTCHAR 2014
ENCODING 8212
SWIDTH 840 0
DWIDTH 14 0
BBX 14 14 0 -2
BITMAP
0000
0000
0000
0000
0000
0000
FFFC
0000
0000
0000
0000
0000
0000
0000
ENDCHAR
STARTCHAR 2015
ENCODING 8213
SWIDTH 840 0
DWIDTH 14 0
BBX 14 14 0 -2
BITMAP
0000
0000
0000
0000
0000
0000
FFFC
0000
0000
0000
0000
0000
0000
0000
ENDCHAR
STARTCHAR 2016
ENCODING 8214
SWIDTH 840 0
DWIDTH 14 0
BBX 14 14 0 -2
BITMAP
0480
0480
0480
0480
0480
0480
0480
0480
0480
0480
0480
0480
0480
0480
ENDCHAR
STARTCHAR 2018
ENCODING 8216
SWIDTH 840 0
DWIDTH 14 0
BBX 14 14 0 -2
BITMAP
0018
0020
0030
0038
0010
0000
0000
0000
0000
0000
0000
0000
0000
0000
ENDCHAR
STARTCHAR 2019
ENCODING 8217
SWIDTH 840 0
DWIDTH 14 0
BBX 14 14 0 -2
BITMAP
2000
7000
3000
1000
6000
0000
0000
0000
0000
0000
0000
0000
0000
0000
ENDCHAR
STARTCHAR 201C
ENCODING 8220
SWIDTH 840 0
DWIDTH 14 0
BBX 14 14 0 -2
BITMAP
0198
0220
0330
03B8
0110
0000
0000
0000
0000
0000
0000
0000
0000
0000
ENDCHAR
STARTCHAR 201D
ENCODING 8221
SWIDTH 840 0
DWIDTH 14 0
BBX 14 14 0 -2
BITMAP
2200
7700
3300
1100
6600
0000
0000
0000
0000
0000
0000
0000
0000
0000
ENDCHAR
STARTCHAR 2020
ENCODING 8224
SWIDTH 840 0
DWIDTH 14 0
BBX 14 14 0 -2
BITMAP
0100
0380
0100
0920
1FF0
0920
0380
0380
0100
0100
0100
0100
0100
0100
ENDCHAR
STARTCHAR 2021
ENCODING 8225
SWIDTH 840 0
DWIDTH 14 0
BBX 14 14 0 -2
BITMAP
0100
0380
0920
1FF0
0920
0380
0100
0100
0380
0920
1FF0
0920
0380
0100
ENDCHAR
STARTCHAR 2022
ENCODING 8226
SWIDTH 840 0
DWIDTH 14 0
BBX 14 14 0 -2
BITMAP
0000
0000
0000
0000
0000
0380
07C0
07C0
07C0
0380
0000
0000
0000
0000
ENDCHAR
STARTCHAR 2025
ENCODING 8229
SWIDTH 840 0
DWIDTH 14 0
BBX 14 14 0 -2
BITMAP
0000
0000
0000
0000
0000
0000
1860
1860
0000
0000
0000
0000
0000
0000
ENDCHAR
STARTCHAR 2026
ENCODING 8230
SWIDTH 840 0
DWIDTH 14 0
BBX 14 14 0 -2
BITMAP
0000
0000
0000
0000
0000
0000
3330
3330
0000
0000
0000
0000
0000
0000
ENDCHAR
STARTCHAR 2030
ENCODING 8240
SWIDTH 840 0
DWIDTH 14 0
BBX 14 14 0 -2
BITMAP
0000
1820
2440
6680
6680
2500
1A00
0310
06A8
0EEC
16EC
12A8
2110
0000
ENDCHAR
STARTCHAR 2032
ENCODING 8242
SWIDTH 840 0
DWIDTH 14 0
BBX 14 14 0 -2
BITMAP
0000
1800
1800
3000
2000
4000
0000
0000
0000
0000
0000
0000
0000
0000
ENDCHAR
STARTCHAR 2033
ENCODING 8243
SWIDTH 840 0
DWIDTH 14 0
BBX 14 14 0 -2
BITMAP
0000
1B00
1B00
3600
2400
4800
0000
0000
0000
0000
0000
0000
0000
0000
ENDCHAR
STARTCHAR 203B
ENCODING 8251
SWIDTH 840 0
DWIDTH 14 0
BBX 14 14 0 -2
BITMAP
0000
0000
2108
1390
0920
0440
1290
3938
1290
0440
0920
1390
2108
0000
ENDCHAR
STARTCHAR 203C
ENCODING 8252
SWIDTH 840 0
DWIDTH 14 0
BBX 14 14 0 -2
BITMAP
0000
0840
1CE0
1CE0
1CE0
1CE0
1CE0
0840
0840
0840
0000
0840
1CE0
0840
ENDCHAR
STARTCHAR 203E
ENCODING 8254
SWIDTH 840 0
DWIDTH 14 0
BBX 14 14 0 -2
BITMAP
FFFC
0000
0000
0000
0000
0000
0000
0000
0000
0000
0000
0000
0000
0000
ENDCHAR
STARTCHAR 203F
ENCODING 8255
SWIDTH 840 0
DWIDTH 14 0
BBX 14 14 0 -2
BITMAP
0000
0000
0000
0000
0000
0000
0000
0000
0000
0000
2010
1860
0780
0000
ENDCHAR
STARTCHAR 2042
ENCODING 8258
SWIDTH 840 0
DWIDTH 14 0
BBX 14 14 0 -2
BITMAP
0100
1BB0
0D60
0380
0D60
1BB0
0100
0820
5D74
6AAC
1C70
6AAC
5D74
0820
ENDCHAR
STARTCHAR 2047
ENCODING 8263
SWIDTH 840 0
DWIDTH 14 0
BBX 14 14 0 -2
BITMAP
0000
0C30
1658
2288
32C8
32C8
0618
0410
0820
0820
0820
0000
0C30
0C30
ENDCHAR
STARTCHAR 2048
ENCODING 8264
SWIDTH 840 0
DWIDTH 14 0
BBX 14 14 0 -2
BITMAP
0000
0C20
1670
2270
3270
3270
0670
0420
0820
0820
0800
0020
0C70
0C20
ENDCHAR
STARTCHAR 2049
ENCODING 8265
SWIDTH 840 0
DWIDTH 14 0
BBX 14 14 0 -2
BITMAP
0000
0830
1C58
1C88
1CC8
1CC8
1C18
0810
0820
0820
0020
0800
1C30
0830
ENDCHAR
STARTCHAR 2051
ENCODING 8273
SWIDTH 840 0
DWIDTH 14 0
BBX 14 14 0 -2
BITMAP
0100
1BB0
0D60
0380
0D60
1BB0
0100
0100
1BB0
0D60
0380
0D60
1BB0
0100
ENDCHAR
STARTCHAR 20AC
ENCODING 8364
SWIDTH 840 0
DWIDTH 14 0
BBX 14 14 0 -2
BITMAP
0000
03C0
0C30
1810
3000
7FE0
2000
7FC0
3000
1810
0C30
03C0
0000
0000
ENDCHAR
STARTCHAR 2103
ENCODING 8451
SWIDTH 840 0
DWIDTH 14 0
BBX 14 14 0 -2
BITMAP
0000
3000
48E8
4918
3308
0608
0600
0600
0600
0600
0208
0110
00E0
0000
ENDCHAR
STARTCHAR 210F
ENCODING 8463
SWIDTH 840 0
DWIDTH 14 0
BBX 14 14 0 -2
BITMAP
0000
1D80
0E00
1C00
2DC0
0E60
0C30
0C30
0C30
0C30
0C30
1E78
0000
0000
ENDCHAR
STARTCHAR 2113
ENCODING 8467
SWIDTH 840 0
DWIDTH 14 0
BBX 14 14 0 -2
BITMAP
0000
0180
03C0
0740
0640
0E40
0C40
0C80
0C80
0F20
0740
3980
0000
0000
ENDCHAR
STARTCHAR 2116
ENCODING 8470
SWIDTH 840 0
DWIDTH 14 0
BBX 14 14 0 -2
BITMAP
0000
E700
6200
7200
7260
5A90
5B18
5B18
4F18
4F18
4694
E66C
0004
0000
ENDCHAR
STARTCHAR 2121
ENCODING 8481
SWIDTH 840 0
DWIDTH 14 0
BBX 14 14 0 -2
BITMAP
0000
0000
FF70
22A0
2220
2220
23A0
2220
2220
2220
22A4
2778
0000
0000
ENDCHAR
STARTCHAR 2127
ENCODING 8487
SWIDTH 840 0
DWIDTH 14 0
BBX 14 14 0 -2
BITMAP
0000
3C78
2288
0440
0820
1830
3018
3018
3018
1830
0C60
0380
0000
0000
ENDCHAR
STARTCHAR 212B
ENCODING 8491
SWIDTH 840 0
DWIDTH 14 0
BBX 14 14 0 -2
BITMAP
0300
0480
0480
0300
0100
0380
0380
04C0
04C0
0860
0FE0
1030
3878
0000
ENDCHAR
STARTCHAR 2135
ENCODING 8501
SWIDTH 840 0
DWIDTH 14 0
BBX 14 14 0 -2
BITMAP
0000
1040
1860
1830
0C50
0E40
0780
0980
08C0
08E0
0870
3830
3030
0000
ENDCHAR
STARTCHAR 2153
ENCODING 8531
SWIDTH 840 0
DWIDTH 14 0
BBX 14 14 0 -2
BITMAP
0000
0800
1810
2820
0840
0880
0970
0288
0408
0870
1008
2088
0070
0000
ENDCHAR
STARTCHAR 2154
ENCODING 8532
SWIDTH 840 0
DWIDTH 14 0
BBX 14 14 0 -2
BITMAP
0000
3800
4410
0420
3840
4080
4170
7E88
0408
0870
1008
2088
0070
0000
ENDCHAR
STARTCHAR 2155
ENCODING 8533
SWIDTH 840 0
DWIDTH 14 0
BBX 14 14 0 -2
BITMAP
0000
0800
1810
2820
0840
0880
09F8
0280
0480
08F0
1008
2088
0070
0000
ENDCHAR
STARTCHAR 2160
ENCODING 8544
SWIDTH 840 0
DWIDTH 14 0
BBX 14 14 0 -2
BITMAP
0000
0FC0
0300
0300
0300
0300
0300
0300
0300
0300
0300
0FC0
0000
0000
ENDCHAR
STARTCHAR 2161
ENCODING 8545
SWIDTH 840 0
DWIDTH 14 0
BBX 14 14 0 -2
BITMAP
0000
3FF0
0CC0
0CC0
0CC0
0CC0
0CC0
0CC0
0CC0
0CC0
0CC0
3FF0
0000
0000
ENDCHAR
STARTCHAR 2162
ENCODING 8546
SWIDTH 840 0
DWIDTH 14 0
BBX 14 14 0 -2
BITMAP
0000
7FF8
3330
3330
3330
3330
3330
3330
3330
3330
3330
7FF8
0000
0000
ENDCHAR
STARTCHAR 2163
ENCODING 8547
SWIDTH 840 0
DWIDTH 14 0
BBX 14 14 0 -2
BITMAP
0000
7F38
3610
3610
3320
3320
3320
3140
31C0
3180
3080
7880
0000
0000
ENDCHAR
STARTCHAR 2164
ENCODING 8548
SWIDTH 840 0
DWIDTH 14 0
BBX 14 14 0 -2
BITMAP
0000
3C38
1810
1810
0C20
0C20
0640
0640
0380
0380
0100
0100
0000
0000
ENDCHAR
STARTCHAR 2165
ENCODING 8549
SWIDTH 840 0
DWIDTH 14 0
BBX 14 14 0 -2
BITMAP
0000
79F8
30B0
30B0
1930
1930
1930
0A30
0E30
0C30
0430
0478
0000
0000
ENDCHAR
STARTCHAR 2166
ENCODING 8550
SWIDTH 840 0
DWIDTH 14 0
BBX 14 14 0 -2
BITMAP
0000
F7FC
62D8
62D8
64D8
64D8
34D8
38D8
38D8
10D8
10D8
11FC
0000
0000
ENDCHAR
STARTCHAR 2167
ENCODING 8551
SWIDTH 840 0
DWIDTH 14 0
BBX 14 14 0 -2
BITMAP
0000
F7FC
62A8
62A8
64A8
64A8
34A8
38A8
38A8
10A8
10A8
11FC
0000
0000
ENDCHAR
STARTCHAR 2168
ENCODING 8552
SWIDTH 840 0
DWIDTH 14 0
BBX 14 14 0 -2
BITMAP
0000
FF9C
3188
3098
30D0
3060
3060
3060
30B0
3090
3118
FF9C
0000
0000
ENDCHAR
STARTCHAR 2169
ENCODING 8553
SWIDTH 840 0
DWIDTH 14 0
BBX 14 14 0 -2
BITMAP
0000
3C78
1820
0C40
0680
0300
0300
0380
04C0
0860
1030
3878
0000
0000
ENDCHAR
STARTCHAR 216A
ENCODING 8554
SWIDTH 840 0
DWIDTH 14 0
BBX 14 14 0 -2
BITMAP
0000
F3FC
3130
1330
1A30
0C30
0C30
0C30
1630
1230
2330
F3FC
0000
0000
ENDCHAR
STARTCHAR 216B
ENCODING 8555
SWIDTH 840 0
DWIDTH 14 0
BBX 14 14 0 -2
BITMAP
0000
E7FC
62D8
26D8
34D8
18D8
18D8
18D8
2CD8
24D8
46D8
E7FC
0000
0000
ENDCHAR
STARTCHAR 2170
ENCODING 8560
SWIDTH 840 0
DWIDTH 14 0
BBX 14 14 0 -2
BITMAP
0000
0100
0380
0100
0000
0F00
0300
0300
0300
0300
0300
0FC0
0000
0000
ENDCHAR
STARTCHAR 2171
ENCODING 8561
SWIDTH 840 0
DWIDTH 14 0
BBX 14 14 0 -2
BITMAP
0000
0840
1CE0
0840
0000
3DE0
0C60
0C60
0C60
0C60
0C60
3FF0
0000
0000
ENDCHAR
STARTCHAR 2172
ENCODING 8562
SWIDTH 840 0
DWIDTH 14 0
BBX 14 14 0 -2
BITMAP
0000
1110
3BB8
1110
0000
7770
3330
3330
3330
3330
3330
7FFC
0000
0000
ENDCHAR
STARTCHAR 2173
ENCODING 8563
SWIDTH 840 0
DWIDTH 14 0
BBX 14 14 0 -2
BITMAP
0000
0800
1C00
0800
07B8
7A10
1B10
1B20
19A0
19A0
18C0
7CC0
0000
0000
ENDCHAR
STARTCHAR 2174
ENCODING 8564
SWIDTH 840 0
DWIDTH 14 0
BBX 14 14 0 -2
BITMAP
0000
0000
0000
0000
3E70
1820
0C40
0C40
0680
0680
0300
0300
0000
0000
ENDCHAR
STARTCHAR 2175
ENCODING 8565
SWIDTH 840 0
DWIDTH 14 0
BBX 14 14 0 -2
BITMAP
0000
0010
0038
0010
7B80
2170
3130
3230
1A30
1A30
0C30
0CF8
0000
0000
ENDCHAR
STARTCHAR 2176
ENCODING 8566
SWIDTH 840 0
DWIDTH 14 0
BBX 14 14 0 -2
BITMAP
0000
0090
01F8
0090
7700
22F8
32D8
34D8
34D8
18D8
18D8
19F8
0000
0000
ENDCHAR
STARTCHAR 2177
ENCODING 8567
SWIDTH 840 0
DWIDTH 14 0
BBX 14 14 0 -2
BITMAP
0000
0150
03F8
0150
EE00
45F0
6550
6950
6950
3150
3150
33F8
0000
0000
ENDCHAR
STARTCHAR 2178
ENCODING 8568
SWIDTH 840 0
DWIDTH 14 0
BBX 14 14 0 -2
BITMAP
0000
1000
3800
1000
0F38
7610
3320
31C0
31C0
3260
3430
7E78
0000
0000
ENDCHAR
STARTCHAR 2179
ENCODING 8569
SWIDTH 840 0
DWIDTH 14 0
BBX 14 14 0 -2
BITMAP
0000
0000
0000
0000
1E70
0C20
0640
0380
0380
04C0
0860
1CF0
0000
0000
ENDCHAR
STARTCHAR 217A
ENCODING 8570
SWIDTH 840 0
DWIDTH 14 0
BBX 14 14 0 -2
BITMAP
0000
0010
0038
0010
79C0
30B0
1930
0E30
0E30
1330
21B0
73F8
0000
0000
ENDCHAR
STARTCHAR 217B
ENCODING 8571
SWIDTH 840 0
DWIDTH 14 0
BBX 14 14 0 -2
BITMAP
0000
0090
01F8
0090
7B00
32F8
34D8
18D8
1CD8
2ED8
26D8
77F8
0000
0000
ENDCHAR
STARTCHAR 2190
ENCODING 8592
SWIDTH 840 0
DWIDTH 14 0
BBX 14 14 0 -2
BITMAP
0000
0000
0000
0200
0400
1800
7FF8
1800
0400
0200
0000
0000
0000
0000
ENDCHAR
STARTCHAR 2191
ENCODING 8593
SWIDTH 840 0
DWIDTH 14 0
BBX 14 14 0 -2
BITMAP
0000
0100
0100
0380
0380
0540
0920
0100
0100
0100
0100
0100
0100
0000
ENDCHAR
STARTCHAR 2192
ENCODING 8594
SWIDTH 840 0
DWIDTH 14 0
BBX 14 14 0 -2
BITMAP
0000
0000
0000
0100
0080
0060
7FF8
0060
0080
0100
0000
0000
0000
0000
ENDCHAR
STARTCHAR 2193
ENCODING 8595
SWIDTH 840 0
DWIDTH 14 0
BBX 14 14 0 -2
BITMAP
0000
0100
0100
0100
0100
0100
0100
0920
0540
0380
0380
0100
0100
0000
ENDCHAR
STARTCHAR 2194
ENCODING 8596
SWIDTH 840 0
DWIDTH 14 0
BBX 14 14 0 -2
BITMAP
0000
0000
0000
0840
0840
3030
7FF8
3030
0840
0840
0000
0000
0000
0000
ENDCHAR
STARTCHAR 2196
ENCODING 8598
SWIDTH 840 0
DWIDTH 14 0
BBX 14 14 0 -2
BITMAP
0000
4000
3000
3E00
1800
1400
1200
0100
0080
0040
0020
0010
0008
0000
ENDCHAR
STARTCHAR 2197
ENCODING 8599
SWIDTH 840 0
DWIDTH 14 0
BBX 14 14 0 -2
BITMAP
0000
0008
0030
01F0
0060
00A0
0120
0200
0400
0800
1000
2000
4000
0000
ENDCHAR
STARTCHAR 2198
ENCODING 8600
SWIDTH 840 0
DWIDTH 14 0
BBX 14 14 0 -2
BITMAP
0000
4000
2000
1000
0800
0400
0200
0120
00A0
0060
01F0
0030
0008
0000
ENDCHAR
STARTCHAR 2199
ENCODING 8601
SWIDTH 840 0
DWIDTH 14 0
BBX 14 14 0 -2
BITMAP
0000
0008
0010
0020
0040
0080
0100
1200
1400
1800
3E00
3000
4000
0000
ENDCHAR
STARTCHAR 21C4
ENCODING 8644
SWIDTH 840 0
DWIDTH 14 0
BBX 14 14 0 -2
BITMAP
0000
0100
0080
0060
7FF8
0060
0480
0480
1800
7FF8
1800
0400
0200
0000
ENDCHAR
STARTCHAR 21D2
ENCODING 8658
SWIDTH 840 0
DWIDTH 14 0
BBX 14 14 0 -2
BITMAP
0000
0000
0000
0040
0020
7FF0
0008
7FF0
0020
0040
0000
0000
0000
0000
ENDCHAR
STARTCHAR 21D4
ENCODING 8660
SWIDTH 840 0
DWIDTH 14 0
BBX 14 14 0 -2
BITMAP
0000
0000
0000
0840
1020
3FF0
4008
3FF0
1020
0840
0000
0000
0000
0000
ENDCHAR
STARTCHAR 21E6
ENCODING 8678
SWIDTH 840 0
DWIDTH 14 0
BBX 14 14 0 -2
BITMAP
0000
0000
0400
0C00
1C00
37F8
4008
37F8
1C00
0C00
0400
0000
0000
0000
ENDCHAR
STARTCHAR 21E7
ENCODING 8679
SWIDTH 840 0
DWIDTH 14 0
BBX 14 14 0 -2
BITMAP
0200
0500
0D80
18C0
3DE0
0500
0500
0500
0500
0500
0500
0500
0700
0000
ENDCHAR
STARTCHAR 21E8
ENCODING 8680
SWIDTH 840 0
DWIDTH 14 0
BBX 14 14 0 -2
BITMAP
0000
0000
0080
00C0
00E0
7FB0
4008
7FB0
00E0
00C0
0080
0000
0000
0000
ENDCHAR
STARTCHAR 21E9
ENCODING 8681
SWIDTH 840 0
DWIDTH 14 0
BBX 14 14 0 -2
BITMAP
0000
0700
0500
0500
0500
0500
0500
0500
3DE0
18C0
0D80
0500
0700
0200
ENDCHAR
STARTCHAR 2200
ENCODING 8704
SWIDTH 840 0
DWIDTH 14 0
BBX 14 14 0 -2
BITMAP
0000
2008
2008
1010
1FF0
0820
0820
0440
0440
0280
0280
0100
0100
0000
ENDCHAR
STARTCHAR 2202
ENCODING 8706
SWIDTH 840 0
DWIDTH 14 0
BBX 14 14 0 -2
BITMAP
0000
01C0
0260
0020
0020
03A0
0660
0460
0C60
0C40
0CC0
0580
0300
0000
ENDCHAR
STARTCHAR 2203
ENCODING 8707
SWIDTH 840 0
DWIDTH 14 0
BBX 14 14 0 -2
BITMAP
0000
1FE0
0020
0020
0020
0020
1FE0
0020
0020
0020
0020
1FE0
0000
0000
ENDCHAR
STARTCHAR 2205
ENCODING 8709
SWIDTH 840 0
DWIDTH 14 0
BBX 14 14 0 -2
BITMAP
0000
0000
0388
0C70
1030
1050
2088
2108
2208
1410
1810
1C60
2380
0000
ENDCHAR
STARTCHAR 2207
ENCODING 8711
SWIDTH 840 0
DWIDTH 14 0
BBX 14 14 0 -2
BITMAP
0000
0000
3FF8
1FF0
1810
0820
0C20
0440
0640
0280
0380
0100
0100
0000
ENDCHAR
STARTCHAR 2208
ENCODING 8712
SWIDTH 840 0
DWIDTH 14 0
BBX 14 14 0 -2
BITMAP
0000
0000
03F0
0C00
1000
2000
3FF0
2000
1000
0C00
03F0
0000
0000
0000
ENDCHAR
STARTCHAR 2209
ENCODING 8713
SWIDTH 840 0
DWIDTH 14 0
BBX 14 14 0 -2
BITMAP
0000
0100
03F0
0D00
1100
2100
3FF0
2100
1100
0D00
03F0
0100
0100
0000
ENDCHAR
STARTCHAR 220B
ENCODING 8715
SWIDTH 840 0
DWIDTH 14 0
BBX 14 14 0 -2
BITMAP
0000
0000
3F00
00C0
0020
0010
3FF0
0010
0020
00C0
3F00
0000
0000
0000
ENDCHAR
STARTCHAR 2212
ENCODING 8722
SWIDTH 840 0
DWIDTH 14 0
BBX 14 14 0 -2
BITMAP
0000
0000
0000
0000
0000
0000
3FF8
0000
0000
0000
0000
0000
0000
0000
ENDCHAR
STARTCHAR 2213
ENCODING 8723
SWIDTH 840 0
DWIDTH 14 0
BBX 14 14 0 -2
BITMAP
0000
3FF8
0000
0000
0100
0100
0100
3FF8
0100
0100
0100
0100
0000
0000
ENDCHAR
STARTCHAR 221A
ENCODING 8730
SWIDTH 840 0
DWIDTH 14 0
BBX 14 14 0 -2
BITMAP
0000
01F8
0100
0100
0100
0200
0200
0200
2200
7400
1C00
0C00
0400
0000
ENDCHAR
STARTCHAR 221D
ENCODING 8733
SWIDTH 840 0
DWIDTH 14 0
BBX 14 14 0 -2
BITMAP
0000
0000
0000
0000
0630
0940
1080
1080
0940
0630
0000
0000
0000
0000
ENDCHAR
STARTCHAR 221E
ENCODING 8734
SWIDTH 840 0
DWIDTH 14 0
BBX 14 14 0 -2
BITMAP
0000
0000
0000
0000
1C70
36D8
2388
2388
36D8
1C70
0000
0000
0000
0000
ENDCHAR
STARTCHAR 221F
ENCODING 8735
SWIDTH 840 0
DWIDTH 14 0
BBX 14 14 0 -2
BITMAP
0000
2000
2000
2000
2000
2000
2000
2000
2000
2000
2000
3FF8
0000
0000
ENDCHAR
STARTCHAR 2220
ENCODING 8736
SWIDTH 840 0
DWIDTH 14 0
BBX 14 14 0 -2
BITMAP
0000
0000
0010
0020
0040
0080
0100
0200
0400
0800
1000
3FF0
0000
0000
ENDCHAR
STARTCHAR 2225
ENCODING 8741
SWIDTH 840 0
DWIDTH 14 0
BBX 14 14 0 -2
BITMAP
0000
0100
0210
0210
0420
0420
0840
0840
1080
1080
2100
2100
0200
0000
ENDCHAR
STARTCHAR 2226
ENCODING 8742
SWIDTH 840 0
DWIDTH 14 0
BBX 14 14 0 -2
BITMAP
0000
0100
2210
1210
0C20
0420
0A40
0940
1080
10C0
2120
2110
0200
0000
ENDCHAR
STARTCHAR 2227
ENCODING 8743
SWIDTH 840 0
DWIDTH 14 0
BBX 14 14 0 -2
BITMAP
0000
0000
0100
0100
0280
0280
0440
0440
0820
0820
1010
1010
0000
0000
ENDCHAR
STARTCHAR 2228
ENCODING 8744
SWIDTH 840 0
DWIDTH 14 0
BBX 14 14 0 -2
BITMAP
0000
0000
1010
1010
0820
0820
0440
0440
0280
0280
0100
0100
0000
0000
ENDCHAR
STARTCHAR 2229
ENCODING 8745
SWIDTH 840 0
DWIDTH 14 0
BBX 14 14 0 -2
BITMAP
0000
0000
0780
0840
1020
1020
2010
2010
2010
2010
2010
2010
0000
0000
ENDCHAR
STARTCHAR 222A
ENCODING 8746
SWIDTH 840 0
DWIDTH 14 0
BBX 14 14 0 -2
BITMAP
0000
0000
2010
2010
2010
2010
2010
2010
1020
1020
0840
0780
0000
0000
ENDCHAR
STARTCHAR 222B
ENCODING 8747
SWIDTH 840 0
DWIDTH 14 0
BBX 14 14 0 -2
BITMAP
00C0
01C0
0200
0200
0300
0300
0180
0180
00C0
00C0
0040
0040
0380
0300
ENDCHAR
STARTCHAR 222C
ENCODING 8748
SWIDTH 840 0
DWIDTH 14 0
BBX 14 14 0 -2
BITMAP
0660
0EE0
1100
1100
1980
1980
0CC0
0CC0
0660
0660
0220
0220
1DC0
1980
ENDCHAR
STARTCHAR 222E
ENCODING 8750
SWIDTH 840 0
DWIDTH 14 0
BBX 14 14 0 -2
BITMAP
00C0
01C0
0200
0200
0380
0340
05A0
05A0
02C0
01C0
0040
0040
0380
0300
ENDCHAR
STARTCHAR 2234
ENCODING 8756
SWIDTH 840 0
DWIDTH 14 0
BBX 14 14 0 -2
BITMAP
0000
0000
0100
0380
0100
0000
0000
0000
0000
1010
3838
1010
0000
0000
ENDCHAR
STARTCHAR 2235
ENCODING 8757
SWIDTH 840 0
DWIDTH 14 0
BBX 14 14 0 -2
BITMAP
0000
0000
1010
3838
1010
0000
0000
0000
0000
0100
0380
0100
0000
0000
ENDCHAR
STARTCHAR 223D
ENCODING 8765
SWIDTH 840 0
DWIDTH 14 0
BBX 14 14 0 -2
BITMAP
0000
0000
0000
0000
0C60
1090
2108
2108
1210
0C60
0000
0000
0000
0000
ENDCHAR
STARTCHAR 2243
ENCODING 8771
SWIDTH 840 0
DWIDTH 14 0
BBX 14 14 0 -2
BITMAP
0000
0000
0000
0C00
1210
2120
00C0
0000
0000
0000
3FF0
0000
0000
0000
ENDCHAR
STARTCHAR 2245
ENCODING 8773
SWIDTH 840 0
DWIDTH 14 0
BBX 14 14 0 -2
BITMAP
0000
0000
0000
0C00
1210
2120
00C0
0000
3FF0
0000
0000
3FF0
0000
0000
ENDCHAR
STARTCHAR 2248
ENCODING 8776
SWIDTH 840 0
DWIDTH 14 0
BBX 14 14 0 -2
BITMAP
0000
0000
0000
0C00
1210
2120
00C0
0C00
1210
2120
00C0
0000
0000
0000
ENDCHAR
STARTCHAR 2252
ENCODING 8786
SWIDTH 840 0
DWIDTH 14 0
BBX 14 14 0 -2
BITMAP
0000
0000
0800
1C00
0800
3FF0
0000
0000
3FF0
0040
00E0
0040
0000
0000
ENDCHAR
STARTCHAR 2260
ENCODING 8800
SWIDTH 840 0
DWIDTH 14 0
BBX 14 14 0 -2
BITMAP
0000
0080
0080
0080
3FF8
0100
0100
0100
3FF8
0200
0200
0200
0000
0000
ENDCHAR
STARTCHAR 2261
ENCODING 8801
SWIDTH 840 0
DWIDTH 14 0
BBX 14 14 0 -2
BITMAP
0000
0000
0000
3FF0
0000
0000
3FF0
0000
0000
3FF0
0000
0000
0000
0000
ENDCHAR
STARTCHAR 2262
ENCODING 8802
SWIDTH 840 0
DWIDTH 14 0
BBX 14 14 0 -2
BITMAP
0040
0040
0080
3FF0
0100
0100
3FF0
0200
0200
3FF0
0400
0800
0800
0000
ENDCHAR
STARTCHAR 2266
ENCODING 8806
SWIDTH 840 0
DWIDTH 14 0
BBX 14 14 0 -2
BITMAP
0030
00C0
0300
0C00
3000
0C00
0300
00C0
0030
0000
3FF8
0000
3FF8
0000
ENDCHAR
STARTCHAR 2267
ENCODING 8807
SWIDTH 840 0
DWIDTH 14 0
BBX 14 14 0 -2
BITMAP
3000
0C00
0300
00C0
0030
00C0
0300
0C00
3000
0000
3FF8
0000
3FF8
0000
ENDCHAR
STARTCHAR 226A
ENCODING 8810
SWIDTH 840 0
DWIDTH 14 0
BBX 14 14 0 -2
BITMAP
0000
0110
0220
0440
0880
1100
2200
1100
0880
0440
0220
0110
0000
0000
ENDCHAR
STARTCHAR 226B
ENCODING 8811
SWIDTH 840 0
DWIDTH 14 0
BBX 14 14 0 -2
BITMAP
0000
2200
1100
0880
0440
0220
0110
0220
0440
0880
1100
2200
0000
0000
ENDCHAR
STARTCHAR 2276
ENCODING 8822
SWIDTH 840 0
DWIDTH 14 0
BBX 14 14 0 -2
BITMAP
0030
01C0
0600
3800
0600
01C0
3030
0E00
0180
0070
0180
0E00
3000
0000
ENDCHAR
STARTCHAR 2277
ENCODING 8823
SWIDTH 840 0
DWIDTH 14 0
BBX 14 14 0 -2
BITMAP
3000
0E00
0180
0070
0180
0E00
3030
01C0
0600
3800
0600
01C0
0030
0000
ENDCHAR
STARTCHAR 2282
ENCODING 8834
SWIDTH 840 0
DWIDTH 14 0
BBX 14 14 0 -2
BITMAP
0000
0000
03F0
0C00
1000
2000
2000
2000
2000
1000
0C00
03F0
0000
0000
ENDCHAR
STARTCHAR 2283
ENCODING 8835
SWIDTH 840 0
DWIDTH 14 0
BBX 14 14 0 -2
BITMAP
0000
0000
3F00
00C0
0020
0010
0010
0010
0010
0020
00C0
3F00
0000
0000
ENDCHAR
STARTCHAR 2284
ENCODING 8836
SWIDTH 840 0
DWIDTH 14 0
BBX 14 14 0 -2
BITMAP
0000
0020
03F0
0C40
1040
2080
2100
2100
2200
1400
0C00
0BF0
0800
0000
ENDCHAR
STARTCHAR 2285
ENCODING 8837
SWIDTH 840 0
DWIDTH 14 0
BBX 14 14 0 -2
BITMAP
0000
0040
3F40
00C0
00A0
0110
0210
0210
0410
0820
08C0
3F00
1000
0000
ENDCHAR
STARTCHAR 2286
ENCODING 8838
SWIDTH 840 0
DWIDTH 14 0
BBX 14 14 0 -2
BITMAP
0000
0000
0FF0
1000
2000
2000
2000
1000
0FF0
0000
0000
3FF0
0000
0000
ENDCHAR
STARTCHAR 2287
ENCODING 8839
SWIDTH 840 0
DWIDTH 14 0
BBX 14 14 0 -2
BITMAP
0000
0000
3FC0
0020
0010
0010
0010
0020
3FC0
0000
0000
3FF0
0000
0000
ENDCHAR
STARTCHAR 228A
ENCODING 8842
SWIDTH 840 0
DWIDTH 14 0
BBX 14 14 0 -2
BITMAP
0000
0000
0FF0
1000
2000
2000
2000
1000
0FF0
0080
0080
3FF0
0200
0200
ENDCHAR
STARTCHAR 228B
ENCODING 8843
SWIDTH 840 0
DWIDTH 14 0
BBX 14 14 0 -2
BITMAP
0000
0000
3FC0
0020
0010
0010
0010
0020
3FC0
0080
0080
3FF0
0200
0200
ENDCHAR
STARTCHAR 2295
ENCODING 8853
SWIDTH 840 0
DWIDTH 14 0
BBX 14 14 0 -2
BITMAP
0000
0780
1860
2210
2210
4208
5FE8
4208
4208
2210
2210
1860
0780
0000
ENDCHAR
STARTCHAR 2296
ENCODING 8854
SWIDTH 840 0
DWIDTH 14 0
BBX 14 14 0 -2
BITMAP
0000
0780
1860
2010
2010
4008
5FE8
4008
4008
2010
2010
1860
0780
0000
ENDCHAR
STARTCHAR 2297
ENCODING 8855
SWIDTH 840 0
DWIDTH 14 0
BBX 14 14 0 -2
BITMAP
0000
0780
1860
3030
2850
4488
4308
4308
4488
2850
3030
1860
0780
0000
ENDCHAR
STARTCHAR 22A5
ENCODING 8869
SWIDTH 840 0
DWIDTH 14 0
BBX 14 14 0 -2
BITMAP
0000
0000
0100
0100
0100
0100
0100
0100
0100
0100
0100
3FF8
0000
0000
ENDCHAR
STARTCHAR 22BF
ENCODING 8895
SWIDTH 840 0
DWIDTH 14 0
BBX 14 14 0 -2
BITMAP
0000
0008
0018
0028
0048
0088
0108
0208
0408
0808
1008
3FF8
0000
0000
ENDCHAR
STARTCHAR 22DA
ENCODING 8922
SWIDTH 840 0
DWIDTH 14 0
BBX 14 14 0 -2
BITMAP
0000
00E0
0700
3800
0700
00E0
3FF0
1C00
0380
0070
0380
1C00
0000
0000
ENDCHAR
STARTCHAR 22DB
ENCODING 8923
SWIDTH 840 0
DWIDTH 14 0
BBX 14 14 0 -2
BITMAP
0000
1C00
0380
0070
0380
1C00
3FF0
00E0
0700
3800
0700
00E0
0000
0000
ENDCHAR
STARTCHAR 2305
ENCODING 8965
SWIDTH 840 0
DWIDTH 14 0
BBX 14 14 0 -2
BITMAP
0000
0000
0000
0000
7FF8
0300
0480
0840
1020
2010
4008
0000
0000
0000
ENDCHAR
STARTCHAR 2306
ENCODING 8966
SWIDTH 840 0
DWIDTH 14 0
BBX 14 14 0 -2
BITMAP
0000
0000
7FF8
0000
0000
7FF8
0300
0480
0840
1020
2010
4008
0000
0000
ENDCHAR
STARTCHAR 2312
ENCODING 8978
SWIDTH 840 0
DWIDTH 14 0
BBX 14 14 0 -2
BITMAP
0000
0FE0
3018
4004
0000
0000
0000
0000
0000
0000
0000
0000
0000
0000
ENDCHAR
STARTCHAR 2318
ENCODING 8984
SWIDTH 840 0
DWIDTH 14 0
BBX 14 14 0 -2
BITMAP
0000
0000
1860
2490
2490
1FE0
0480
0480
1FE0
2490
2490
1860
0000
0000
ENDCHAR
STARTCHAR 23BE
ENCODING 9150
SWIDTH 840 0
DWIDTH 14 0
BBX 14 14 0 -2
BITMAP
01FC
0100
0100
0100
0100
0100
0100
0100
0100
0100
0100
0100
0100
0100
ENDCHAR
STARTCHAR 23BF
ENCODING 9151
SWIDTH 840 0
DWIDTH 14 0
BBX 14 14 0 -2
BITMAP
0100
0100
0100
0100
0100
0100
0100
0100
0100
0100
0100
0100
0100
01FC
ENDCHAR
STARTCHAR 23C0
ENCODING 9152
SWIDTH 840 0
DWIDTH 14 0
BBX 14 14 0 -2
BITMAP
0100
0100
07C0
1930
1110
2108
2108
2108
2108
1110
1930
07C0
0100
0100
ENDCHAR
STARTCHAR 23C1
ENCODING 9153
SWIDTH 840 0
DWIDTH 14 0
BBX 14 14 0 -2
BITMAP
FFFC
0100
07C0
1930
1110
2108
2108
2108
2108
1110
1930
07C0
0100
0100
ENDCHAR
STARTCHAR 23C2
ENCODING 9154
SWIDTH 840 0
DWIDTH 14 0
BBX 14 14 0 -2
BITMAP
0100
0100
07C0
1930
1110
2108
2108
2108
2108
1110
1930
07C0
0100
FFFC
ENDCHAR
STARTCHAR 23C3
ENCODING 9155
SWIDTH 840 0
DWIDTH 14 0
BBX 14 14 0 -2
BITMAP
0100
0100
0100
0380
0380
0540
0540
0920
0920
1110
1110
3FF8
0100
0100
ENDCHAR
STARTCHAR 23C4
ENCODING 9156
SWIDTH 840 0
DWIDTH 14 0
BBX 14 14 0 -2
BITMAP
FFFC
0100
0100
0380
0380
0540
0540
0920
0920
1110
1110
3FF8
0100
0100
ENDCHAR
STARTCHAR 23C5
ENCODING 9157
SWIDTH 840 0
DWIDTH 14 0
BBX 14 14 0 -2
BITMAP
0100
0100
0100
0380
0380
0540
0540
0920
0920
1110
1110
3FF8
0100
FFFC
ENDCHAR
STARTCHAR 23C6
ENCODING 9158
SWIDTH 840 0
DWIDTH 14 0
BBX 14 14 0 -2
BITMAP
0100
0100
0100
0100
0100
1D00
2308
2188
0170
0100
0100
0100
0100
0100
ENDCHAR
STARTCHAR 23C7
ENCODING 9159
SWIDTH 840 0
DWIDTH 14 0
BBX 14 14 0 -2
BITMAP
FFFC
0100
0100
0100
0100
1D00
2308
2188
0170
0100
0100
0100
0100
0100
ENDCHAR
STARTCHAR 23C8
ENCODING 9160
SWIDTH 840 0
DWIDTH 14 0
BBX 14 14 0 -2
BITMAP
0100
0100
0100
0100
0100
1D00
2308
2188
0170
0100
0100
0100
0100
FFFC
ENDCHAR
STARTCHAR 23C9
ENCODING 9161
SWIDTH 840 0
DWIDTH 14 0
BBX 14 14 0 -2
BITMAP
FFFC
0100
0100
0100
0100
0100
0100
0100
0100
0100
0100
0100
0100
0100
ENDCHAR
STARTCHAR 23CA
ENCODING 9162
SWIDTH 840 0
DWIDTH 14 0
BBX 14 14 0 -2
BITMAP
0100
0100
0100
0100
0100
0100
0100
0100
0100
0100
0100
0100
0100
FFFC
ENDCHAR
STARTCHAR 23CB
ENCODING 9163
SWIDTH 840 0
DWIDTH 14 0
BBX 14 14 0 -2
BITMAP
FF00
0100
0100
0100
0100
0100
0100
0100
0100
0100
0100
0100
0100
0100
ENDCHAR
STARTCHAR 23CC
ENCODING 9164
SWIDTH 840 0
DWIDTH 14 0
BBX 14 14 0 -2
BITMAP
0100
0100
0100
0100
0100
0100
0100
0100
0100
0100
0100
0100
0100
FF00
ENDCHAR
STARTCHAR 23CE
ENCODING 9166
SWIDTH 840 0
DWIDTH 14 0
BBX 14 14 0 -2
BITMAP
0000
0000
0078
0048
0448
0C48
1448
7788
C018
77F0
1400
0C00
0400
0000
ENDCHAR
STARTCHAR 2423
ENCODING 9251
SWIDTH 840 0
DWIDTH 14 0
BBX 14 14 0 -2
BITMAP
0000
0000
0000
0000
0000
0000
0000
0000
0000
0000
1020
1020
1FE0
0000
ENDCHAR
STARTCHAR 2460
ENCODING 9312
SWIDTH 840 0
DWIDTH 14 0
BBX 14 14 0 -2
BITMAP
0780
1860
2110
4308
4F08
8304
8304
8304
8304
4308
4FC8
2010
1860
0780
ENDCHAR
STARTCHAR 2461
ENCODING 9313
SWIDTH 840 0
DWIDTH 14 0
BBX 14 14 0 -2
BITMAP
0780
1860
2390
4CC8
4CC8
8084
8104
8204
8424
47C8
4FC8
2010
1860
0780
ENDCHAR
STARTCHAR 2462
ENCODING 9314
SWIDTH 840 0
DWIDTH 14 0
BBX 14 14 0 -2
BITMAP
0780
1860
2390
4CC8
4CC8
80C4
8384
80C4
8CC4
4CC8
4308
2010
1860
0780
ENDCHAR
STARTCHAR 2463
ENCODING 9315
SWIDTH 840 0
DWIDTH 14 0
BBX 14 14 0 -2
BITMAP
0780
1860
2190
4388
4588
8584
8984
9984
9FC4
4188
43C8
2010
1860
0780
ENDCHAR
STARTCHAR 2464
ENCODING 9316
SWIDTH 840 0
DWIDTH 14 0
BBX 14 14 0 -2
BITMAP
0780
1860
2F90
4F08
4808
8F84
80C4
80C4
8CC4
4CC8
4708
2010
1860
0780
ENDCHAR
STARTCHAR 2465
ENCODING 9317
SWIDTH 840 0
DWIDTH 14 0
BBX 14 14 0 -2
BITMAP
0780
1860
2390
44C8
4CC8
8C04
8F84
8CC4
8CC4
4CC8
4308
2010
1860
0780
ENDCHAR
STARTCHAR 2466
ENCODING 9318
SWIDTH 840 0
DWIDTH 14 0
BBX 14 14 0 -2
BITMAP
0780
1860
27D0
4788
4888
8884
8104
8104
8304
4308
4308
2010
1860
0780
ENDCHAR
STARTCHAR 2467
ENCODING 9319
SWIDTH 840 0
DWIDTH 14 0
BBX 14 14 0 -2
BITMAP
0780
1860
2310
4CC8
4CC8
8CC4
8784
8CC4
8CC4
4CC8
4308
2010
1860
0780
ENDCHAR
STARTCHAR 2468
ENCODING 9320
SWIDTH 840 0
DWIDTH 14 0
BBX 14 14 0 -2
BITMAP
0780
1860
2310
4CC8
4CC8
8CC4
83C4
80C4
8CC4
4C88
4308
2010
1860
0780
ENDCHAR
STARTCHAR 2469
ENCODING 9321
SWIDTH 840 0
DWIDTH 14 0
BBX 14 14 0 -2
BITMAP
0780
1860
2990
5B68
7A68
8A64
8A64
8A64
8A64
4B68
7D88
2010
1860
0780
ENDCHAR
STARTCHAR 246A
ENCODING 9322
SWIDTH 840 0
DWIDTH 14 0
BBX 14 14 0 -2
BITMAP
0780
1860
2850
58C8
79C8
8844
8844
8844
8844
4848
7DE8
2010
1860
0780
ENDCHAR
STARTCHAR 246B
ENCODING 9323
SWIDTH 840 0
DWIDTH 14 0
BBX 14 14 0 -2
BITMAP
0780
1860
28D0
5B68
7B68
8864
8844
8884
8914
4BE8
7FE8
2010
1860
0780
ENDCHAR
STARTCHAR 246C
ENCODING 9324
SWIDTH 840 0
DWIDTH 14 0
BBX 14 14 0 -2
BITMAP
0780
1860
28D0
5B68
7B68
8864
88C4
8864
8B64
4B68
7DC8
2010
1860
0780
ENDCHAR
STARTCHAR 246D
ENCODING 9325
SWIDTH 840 0
DWIDTH 14 0
BBX 14 14 0 -2
BITMAP
0780
1860
28D0
5968
7968
8A64
8A64
8BF4
8864
4868
7CE8
2010
1860
0780
ENDCHAR
STARTCHAR 246E
ENCODING 9326
SWIDTH 840 0
DWIDTH 14 0
BBX 14 14 0 -2
BITMAP
0780
1860
2BF0
5BC8
7A08
8BC4
8864
8864
8B64
4B68
7DC8
2010
1860
0780
ENDCHAR
STARTCHAR 246F
ENCODING 9327
SWIDTH 840 0
DWIDTH 14 0
BBX 14 14 0 -2
BITMAP
0780
1860
28D0
5B68
7B68
8B04
8BC4
8B64
8B64
4B68
7CC8
2010
1860
0780
ENDCHAR
STARTCHAR 2470
ENCODING 9328
SWIDTH 840 0
DWIDTH 14 0
BBX 14 14 0 -2
BITMAP
0780
1860
2BF0
5BC8
7C48
8884
8884
8984
8984
4988
7D88
2010
1860
0780
ENDCHAR
STARTCHAR 2471
ENCODING 9329
SWIDTH 840 0
DWIDTH 14 0
BBX 14 14 0 -2
BITMAP
0780
1860
2890
5B68
7B68
8B64
89C4
8B64
8B64
4B68
7C88
2010
1860
0780
ENDCHAR
STARTCHAR 2472
ENCODING 9330
SWIDTH 840 0
DWIDTH 14 0
BBX 14 14 0 -2
BITMAP
0780
1860
2990
5B68
7B68
8B64
89E4
8864
8B64
4B68
7D88
2010
1860
0780
ENDCHAR
STARTCHAR 2473
ENCODING 9331
SWIDTH 840 0
DWIDTH 14 0
BBX 14 14 0 -2
BITMAP
0780
1860
2CD0
7768
7768
9564
8564
8964
9164
5F68
7CC8
2010
1860
0780
ENDCHAR
STARTCHAR 24D0
ENCODING 9424
SWIDTH 840 0
DWIDTH 14 0
BBX 14 14 0 -2
BITMAP
0780
1860
2010
4008
4F88
98C4
80C4
8FC4
98C4
58C8
4F28
2010
1860
0780
ENDCHAR
STARTCHAR 24D1
ENCODING 9425
SWIDTH 840 0
DWIDTH 14 0
BBX 14 14 0 -2
BITMAP
0780
1860
3C10
4C08
4D88
8E44
8C64
8C64
8C64
4E48
5D88
2010
1860
0780
ENDCHAR
STARTCHAR 24D2
ENCODING 9426
SWIDTH 840 0
DWIDTH 14 0
BBX 14 14 0 -2
BITMAP
0780
1860
2010
4008
4388
8C64
9824
9804
9824
4C68
4388
2010
1860
0780
ENDCHAR
STARTCHAR 24D3
ENCODING 9427
SWIDTH 840 0
DWIDTH 14 0
BBX 14 14 0 -2
BITMAP
0780
1860
21D0
40C8
46C8
89C4
98C4
98C4
98C4
49C8
46E8
2010
1860
0780
ENDCHAR
STARTCHAR 24D4
ENCODING 9428
SWIDTH 840 0
DWIDTH 14 0
BBX 14 14 0 -2
BITMAP
0780
1860
2010
4008
4788
8844
9864
9FE4
9804
4C28
43C8
2010
1860
0780
ENDCHAR
STARTCHAR 24D5
ENCODING 9429
SWIDTH 840 0
DWIDTH 14 0
BBX 14 14 0 -2
BITMAP
0780
1860
2390
46C8
4608
8F84
8604
8604
8604
4608
4F88
2010
1860
0780
ENDCHAR
STARTCHAR 24D6
ENCODING 9430
SWIDTH 840 0
DWIDTH 14 0
BBX 14 14 0 -2
BITMAP
0780
1860
2010
4048
4788
8984
8904
8604
8F84
4BC8
48C8
2790
1860
0780
ENDCHAR
STARTCHAR 24D7
ENCODING 9431
SWIDTH 840 0
DWIDTH 14 0
BBX 14 14 0 -2
BITMAP
0780
1860
3C10
4C08
4D88
8EC4
8CC4
8CC4
8CC4
4CC8
5DE8
2010
1860
0780
ENDCHAR
STARTCHAR 24D8
ENCODING 9432
SWIDTH 840 0
DWIDTH 14 0
BBX 14 14 0 -2
BITMAP
0780
1860
2310
4308
4008
8F04
8304
8304
8304
4308
4FC8
2010
1860
0780
ENDCHAR
STARTCHAR 24D9
ENCODING 9433
SWIDTH 840 0
DWIDTH 14 0
BBX 14 14 0 -2
BITMAP
0780
1860
2190
4188
4008
8784
8184
8184
8184
5988
5908
2E10
1860
0780
ENDCHAR
STARTCHAR 24DA
ENCODING 9434
SWIDTH 840 0
DWIDTH 14 0
BBX 14 14 0 -2
BITMAP
0780
1860
3C10
4C08
4CC8
8C84
8D04
8F04
8D84
4CC8
5EE8
2010
1860
0780
ENDCHAR
STARTCHAR 24DB
ENCODING 9435
SWIDTH 840 0
DWIDTH 14 0
BBX 14 14 0 -2
BITMAP
0780
1860
2F10
4308
4308
8304
8304
8304
8304
4308
4FC8
2010
1860
0780
ENDCHAR
STARTCHAR 24DC
ENCODING 9436
SWIDTH 840 0
DWIDTH 14 0
BBX 14 14 0 -2
BITMAP
0780
1860
2010
4008
5B48
9FE4
9B64
9B64
9B64
5B68
5B68
2010
1860
0780
ENDCHAR
STARTCHAR 24DD
ENCODING 9437
SWIDTH 840 0
DWIDTH 14 0
BBX 14 14 0 -2
BITMAP
0780
1860
2010
4008
5D08
8E84
8CC4
8CC4
8CC4
4CC8
5CE8
2010
1860
0780
ENDCHAR
STARTCHAR 24DE
ENCODING 9438
SWIDTH 840 0
DWIDTH 14 0
BBX 14 14 0 -2
BITMAP
0780
1860
2010
4008
4788
8844
9864
9864
9864
4848
4788
2010
1860
0780
ENDCHAR
STARTCHAR 24DF
ENCODING 9439
SWIDTH 840 0
DWIDTH 14 0
BBX 14 14 0 -2
BITMAP
0780
1860
2010
4008
5D88
8E44
8C64
8C64
8E44
4D88
4C08
3E10
1860
0780
ENDCHAR
STARTCHAR 24E0
ENCODING 9440
SWIDTH 840 0
DWIDTH 14 0
BBX 14 14 0 -2
BITMAP
0780
1860
2010
4008
46E8
89C4
98C4
98C4
89C4
46C8
40C8
21F0
1860
0780
ENDCHAR
STARTCHAR 24E1
ENCODING 9441
SWIDTH 840 0
DWIDTH 14 0
BBX 14 14 0 -2
BITMAP
0780
1860
2010
4008
5DC8
8E64
8C64
8C04
8C04
4C08
5E08
2010
1860
0780
ENDCHAR
STARTCHAR 24E2
ENCODING 9442
SWIDTH 840 0
DWIDTH 14 0
BBX 14 14 0 -2
BITMAP
0780
1860
2010
4008
4FC8
9844
9E04
8F84
91E4
5868
57C8
2010
1860
0780
ENDCHAR
STARTCHAR 24E3
ENCODING 9443
SWIDTH 840 0
DWIDTH 14 0
BBX 14 14 0 -2
BITMAP
0780
1860
2210
4608
5FC8
8604
8604
8604
8604
4648
4388
2010
1860
0780
ENDCHAR
STARTCHAR 24E4
ENCODING 9444
SWIDTH 840 0
DWIDTH 14 0
BBX 14 14 0 -2
BITMAP
0780
1860
2010
4008
5CE8
8C64
8C64
8C64
8C64
4CE8
4728
2010
1860
0780
ENDCHAR
STARTCHAR 24E5
ENCODING 9445
SWIDTH 840 0
DWIDTH 14 0
BBX 14 14 0 -2
BITMAP
0780
1860
2010
4008
7CE8
9844
8C44
8C84
8684
4708
4308
2010
1860
0780
ENDCHAR
STARTCHAR 24E6
ENCODING 9446
SWIDTH 840 0
DWIDTH 14 0
BBX 14 14 0 -2
BITMAP
0780
1860
2010
4008
7B78
B324
B3A4
9BA4
9DC4
4CC8
4CC8
2010
1860
0780
ENDCHAR
STARTCHAR 24E7
ENCODING 9447
SWIDTH 840 0
DWIDTH 14 0
BBX 14 14 0 -2
BITMAP
0780
1860
2010
4008
5CE8
8E44
8684
8304
8584
49C8
5CE8
2010
1860
0780
ENDCHAR
STARTCHAR 24E8
ENCODING 9448
SWIDTH 840 0
DWIDTH 14 0
BBX 14 14 0 -2
BITMAP
0780
1860
2010
4008
5EE8
8C44
8644
8684
8384
4108
4D08
2E10
1860
0780
ENDCHAR
STARTCHAR 24E9
ENCODING 9449
SWIDTH 840 0
DWIDTH 14 0
BBX 14 14 0 -2
BITMAP
0780
1860
2010
4008
5FE8
90C4
8384
8704
8E04
5828
5FE8
2010
1860
0780
ENDCHAR
STARTCHAR 24EB
ENCODING 9451
SWIDTH 840 0
DWIDTH 14 0
BBX 14 14 0 -2
BITMAP
0780
1FE0
37B0
6738
4638
E73C
E73C
E73C
E73C
6738
6738
2210
1FE0
0780
ENDCHAR
STARTCHAR 24EC
ENCODING 9452
SWIDTH 840 0
DWIDTH 14 0
BBX 14 14 0 -2
BITMAP
0780
1FE0
3610
64C8
44C8
E7CC
E79C
E73C
E77C
6678
6608
2010
1FE0
0780
ENDCHAR
STARTCHAR 24ED
ENCODING 9453
SWIDTH 840 0
DWIDTH 14 0
BBX 14 14 0 -2
BITMAP
0780
1FE0
3610
64C8
44C8
E7CC
E71C
E7CC
E4CC
64C8
65C8
2210
1FE0
0780
ENDCHAR
STARTCHAR 24EE
ENCODING 9454
SWIDTH 840 0
DWIDTH 14 0
BBX 14 14 0 -2
BITMAP
0780
1FE0
3790
6718
4618
E69C
E49C
E59C
E40C
6798
6798
2310
1FE0
0780
ENDCHAR
STARTCHAR 24EF
ENCODING 9455
SWIDTH 840 0
DWIDTH 14 0
BBX 14 14 0 -2
BITMAP
0780
1FE0
3610
6618
46F8
E6FC
E61C
E7CC
E7CC
64C8
64C8
2210
1FE0
0780
ENDCHAR
STARTCHAR 24F0
ENCODING 9456
SWIDTH 840 0
DWIDTH 14 0
BBX 14 14 0 -2
BITMAP
0780
1FE0
3610
64C8
44C8
E4FC
E41C
E4CC
E4CC
64C8
64C8
2210
1FE0
0780
ENDCHAR
STARTCHAR 24F1
ENCODING 9457
SWIDTH 840 0
DWIDTH 14 0
BBX 14 14 0 -2
BITMAP
0780
1FE0
3610
6608
44D8
E7DC
E7BC
E7BC
E73C
6738
6738
2330
1FE0
0780
ENDCHAR
STARTCHAR 24F2
ENCODING 9458
SWIDTH 840 0
DWIDTH 14 0
BBX 14 14 0 -2
BITMAP
0780
1FE0
3610
64C8
44E8
E46C
E61C
E58C
E5CC
65C8
64C8
2210
1FE0
0780
ENDCHAR
STARTCHAR 24F3
ENCODING 9459
SWIDTH 840 0
DWIDTH 14 0
BBX 14 14 0 -2
BITMAP
0780
1FE0
3610
64C8
44C8
E4CC
E4CC
E60C
E7CC
64C8
64C8
2210
1FE0
0780
ENDCHAR
STARTCHAR 24F4
ENCODING 9460
SWIDTH 840 0
DWIDTH 14 0
BBX 14 14 0 -2
BITMAP
0780
1FE0
2310
4A48
4848
F84C
F24C
F64C
E64C
4E48
4048
2110
1FE0
0780
ENDCHAR
STARTCHAR 24F5
ENCODING 9461
SWIDTH 840 0
DWIDTH 14 0
BBX 14 14 0 -2
BITMAP
0780
1860
2790
5868
5128
A714
A114
A114
A114
5128
5868
2790
1860
0780
ENDCHAR
STARTCHAR 24F6
ENCODING 9462
SWIDTH 840 0
DWIDTH 14 0
BBX 14 14 0 -2
BITMAP
0780
1860
2790
5868
5328
A494
A094
A314
A414
57A8
5868
2790
1860
0780
ENDCHAR
STARTCHAR 24F7
ENCODING 9463
SWIDTH 840 0
DWIDTH 14 0
BBX 14 14 0 -2
BITMAP
0780
1860
2790
5868
5328
A494
A314
A094
A494
5328
5868
2790
1860
0780
ENDCHAR
STARTCHAR 24F8
ENCODING 9464
SWIDTH 840 0
DWIDTH 14 0
BBX 14 14 0 -2
BITMAP
0780
1860
2790
5868
5128
A314
A514
A514
A794
5128
5868
2790
1860
0780
ENDCHAR
STARTCHAR 24F9
ENCODING 9465
SWIDTH 840 0
DWIDTH 14 0
BBX 14 14 0 -2
BITMAP
0780
1860
2790
5868
57A8
A414
A714
A094
A494
5328
5868
2790
1860
0780
ENDCHAR
STARTCHAR 24FA
ENCODING 9466
SWIDTH 840 0
DWIDTH 14 0
BBX 14 14 0 -2
BITMAP
0780
1860
2790
5868
5328
A494
A714
A494
A494
5328
5868
2790
1860
0780
ENDCHAR
STARTCHAR 24FB
ENCODING 9467
SWIDTH 840 0
DWIDTH 14 0
BBX 14 14 0 -2
BITMAP
0780
1860
2790
5868
57A8
A094
A114
A214
A214
5228
5868
2790
1860
0780
ENDCHAR
STARTCHAR 24FC
ENCODING 9468
SWIDTH 840 0
DWIDTH 14 0
BBX 14 14 0 -2
BITMAP
0780
1860
2790
5868
5328
A494
A314
A494
A494
5328
5868
2790
1860
0780
ENDCHAR
STARTCHAR 24FD
ENCODING 9469
SWIDTH 840 0
DWIDTH 14 0
BBX 14 14 0 -2
BITMAP
0780
1860
2790
5868
5328
A494
A494
A394
A494
5328
5868
2790
1860
0780
ENDCHAR
STARTCHAR 24FE
ENCODING 9470
SWIDTH 840 0
DWIDTH 14 0
BBX 14 14 0 -2
BITMAP
0780
1860
2790
5868
54A8
AD54
A554
A554
A554
54A8
5868
2790
1860
0780
ENDCHAR
STARTCHAR 2500
ENCODING 9472
SWIDTH 840 0
DWIDTH 14 0
BBX 14 14 0 -2
BITMAP
0000
0000
0000
0000
0000
0000
0000
FFFC
0000
0000
0000
0000
0000
0000
ENDCHAR
STARTCHAR 2501
ENCODING 9473
SWIDTH 840 0
DWIDTH 14 0
BBX 14 14 0 -2
BITMAP
0000
0000
0000
0000
0000
0000
FFFC
FFFC
0000
0000
0000
0000
0000
0000
ENDCHAR
STARTCHAR 2502
ENCODING 9474
SWIDTH 840 0
DWIDTH 14 0
BBX 14 14 0 -2
BITMAP
0100
0100
0100
0100
0100
0100
0100
0100
0100
0100
0100
0100
0100
0100
ENDCHAR
STARTCHAR 2503
ENCODING 9475
SWIDTH 840 0
DWIDTH 14 0
BBX 14 14 0 -2
BITMAP
0300
0300
0300
0300
0300
0300
0300
0300
0300
0300
0300
0300
0300
0300
ENDCHAR
STARTCHAR 250C
ENCODING 9484
SWIDTH 840 0
DWIDTH 14 0
BBX 14 14 0 -2
BITMAP
0000
0000
0000
0000
0000
0000
0000
01FC
0100
0100
0100
0100
0100
0100
ENDCHAR
STARTCHAR 250F
ENCODING 9487
SWIDTH 840 0
DWIDTH 14 0
BBX 14 14 0 -2
BITMAP
0000
0000
0000
0000
0000
0000
03FC
03FC
0300
0300
0300
0300
0300
0300
ENDCHAR
STARTCHAR 2510
ENCODING 9488
SWIDTH 840 0
DWIDTH 14 0
BBX 14 14 0 -2
BITMAP
0000
0000
0000
0000
0000
0000
0000
FF00
0100
0100
0100
0100
0100
0100
ENDCHAR
STARTCHAR 2513
ENCODING 9491
SWIDTH 840 0
DWIDTH 14 0
BBX 14 14 0 -2
BITMAP
0000
0000
0000
0000
0000
0000
FF00
FF00
0300
0300
0300
0300
0300
0300
ENDCHAR
STARTCHAR 2514
ENCODING 9492
SWIDTH 840 0
DWIDTH 14 0
BBX 14 14 0 -2
BITMAP
0100
0100
0100
0100
0100
0100
0100
01FC
0000
0000
0000
0000
0000
0000
ENDCHAR
STARTCHAR 2517
ENCODING 9495
SWIDTH 840 0
DWIDTH 14 0
BBX 14 14 0 -2
BITMAP
0300
0300
0300
0300
0300
0300
03FC
03FC
0000
0000
0000
0000
0000
0000
ENDCHAR
STARTCHAR 2518
ENCODING 9496
SWIDTH 840 0
DWIDTH 14 0
BBX 14 14 0 -2
BITMAP
0100
0100
0100
0100
0100
0100
0100
FF00
0000
0000
0000
0000
0000
0000
ENDCHAR
STARTCHAR 251B
ENCODING 9499
SWIDTH 840 0
DWIDTH 14 0
BBX 14 14 0 -2
BITMAP
0300
0300
0300
0300
0300
0300
FF00
FF00
0000
0000
0000
0000
0000
0000
ENDCHAR
STARTCHAR 251C
ENCODING 9500
SWIDTH 840 0
DWIDTH 14 0
BBX 14 14 0 -2
BITMAP
0100
0100
0100
0100
0100
0100
0100
01FC
0100
0100
0100
0100
0100
0100
ENDCHAR
STARTCHAR 251D
ENCODING 9501
SWIDTH 840 0
DWIDTH 14 0
BBX 14 14 0 -2
BITMAP
0100
0100
0100
0100
0100
0100
01FC
01FC
0100
0100
0100
0100
0100
0100
ENDCHAR
STARTCHAR 2520
ENCODING 9504
SWIDTH 840 0
DWIDTH 14 0
BBX 14 14 0 -2
BITMAP
0300
0300
0300
0300
0300
0300
0300
03FC
0300
0300
0300
0300
0300
0300
ENDCHAR
STARTCHAR 2523
ENCODING 9507
SWIDTH 840 0
DWIDTH 14 0
BBX 14 14 0 -2
BITMAP
0300
0300
0300
0300
0300
0300
03FC
03FC
0300
0300
0300
0300
0300
0300
ENDCHAR
STARTCHAR 2524
ENCODING 9508
SWIDTH 840 0
DWIDTH 14 0
BBX 14 14 0 -2
BITMAP
0100
0100
0100
0100
0100
0100
0100
FF00
0100
0100
0100
0100
0100
0100
ENDCHAR
STARTCHAR 2525
ENCODING 9509
SWIDTH 840 0
DWIDTH 14 0
BBX 14 14 0 -2
BITMAP
0100
0100
0100
0100
0100
0100
FF00
FF00
0100
0100
0100
0100
0100
0100
ENDCHAR
STARTCHAR 2528
ENCODING 9512
SWIDTH 840 0
DWIDTH 14 0
BBX 14 14 0 -2
BITMAP
0300
0300
0300
0300
0300
0300
0300
FF00
0300
0300
0300
0300
0300
0300
ENDCHAR
STARTCHAR 252B
ENCODING 9515
SWIDTH 840 0
DWIDTH 14 0
BBX 14 14 0 -2
BITMAP
0300
0300
0300
0300
0300
0300
FF00
FF00
0300
0300
0300
0300
0300
0300
ENDCHAR
STARTCHAR 252C
ENCODING 9516
SWIDTH 840 0
DWIDTH 14 0
BBX 14 14 0 -2
BITMAP
0000
0000
0000
0000
0000
0000
0000
FFFC
0100
0100
0100
0100
0100
0100
ENDCHAR
STARTCHAR 252F
ENCODING 9519
SWIDTH 840 0
DWIDTH 14 0
BBX 14 14 0 -2
BITMAP
0000
0000
0000
0000
0000
0000
FFFC
FFFC
0100
0100
0100
0100
0100
0100
ENDCHAR
STARTCHAR 2530
ENCODING 9520
SWIDTH 840 0
DWIDTH 14 0
BBX 14 14 0 -2
BITMAP
0000
0000
0000
0000
0000
0000
0000
FFFC
0300
0300
0300
0300
0300
0300
ENDCHAR
STARTCHAR 2533
ENCODING 9523
SWIDTH 840 0
DWIDTH 14 0
BBX 14 14 0 -2
BITMAP
0000
0000
0000
0000
0000
0000
FFFC
FFFC
0300
0300
0300
0300
0300
0300
ENDCHAR
STARTCHAR 2534
ENCODING 9524
SWIDTH 840 0
DWIDTH 14 0
BBX 14 14 0 -2
BITMAP
0100
0100
0100
0100
0100
0100
0100
FFFC
0000
0000
0000
0000
0000
0000
ENDCHAR
STARTCHAR 2537
ENCODING 9527
SWIDTH 840 0
DWIDTH 14 0
BBX 14 14 0 -2
BITMAP
0100
0100
0100
0100
0100
0100
FFFC
FFFC
0000
0000
0000
0000
0000
0000
ENDCHAR
STARTCHAR 2538
ENCODING 9528
SWIDTH 840 0
DWIDTH 14 0
BBX 14 14 0 -2
BITMAP
0300
0300
0300
0300
0300
0300
0300
FFFC
0000
0000
0000
0000
0000
0000
ENDCHAR
STARTCHAR 253B
ENCODING 9531
SWIDTH 840 0
DWIDTH 14 0
BBX 14 14 0 -2
BITMAP
0300
0300
0300
0300
0300
0300
FFFC
FFFC
0000
0000
0000
0000
0000
0000
ENDCHAR
STARTCHAR 253C
ENCODING 9532
SWIDTH 840 0
DWIDTH 14 0
BBX 14 14 0 -2
BITMAP
0100
0100
0100
0100
0100
0100
0100
FFFC
0100
0100
0100
0100
0100
0100
ENDCHAR
STARTCHAR 253F
ENCODING 9535
SWIDTH 840 0
DWIDTH 14 0
BBX 14 14 0 -2
BITMAP
0100
0100
0100
0100
0100
0100
FFFC
FFFC
0100
0100
0100
0100
0100
0100
ENDCHAR
STARTCHAR 2542
ENCODING 9538
SWIDTH 840 0
DWIDTH 14 0
BBX 14 14 0 -2
BITMAP
0300
0300
0300
0300
0300
0300
0300
FFFC
0300
0300
0300
0300
0300
0300
ENDCHAR
STARTCHAR 254B
ENCODING 9547
SWIDTH 840 0
DWIDTH 14 0
BBX 14 14 0 -2
BITMAP
0300
0300
0300
0300
0300
0300
FFFC
FFFC
0300
0300
0300
0300
0300
0300
ENDCHAR
STARTCHAR 25A0
ENCODING 9632
SWIDTH 840 0
DWIDTH 14 0
BBX 14 14 0 -2
BITMAP
0000
7FF8
7FF8
7FF8
7FF8
7FF8
7FF8
7FF8
7FF8
7FF8
7FF8
7FF8
7FF8
0000
ENDCHAR
STARTCHAR 25A1
ENCODING 9633
SWIDTH 840 0
DWIDTH 14 0
BBX 14 14 0 -2
BITMAP
0000
7FF8
4008
4008
4008
4008
4008
4008
4008
4008
4008
4008
7FF8
0000
ENDCHAR
STARTCHAR 25B1
ENCODING 9649
SWIDTH 840 0
DWIDTH 14 0
BBX 14 14 0 -2
BITMAP
0000
0000
0000
0FFC
1008
1008
2010
2010
4020
4020
FFC0
0000
0000
0000
ENDCHAR
STARTCHAR 25B2
ENCODING 9650
SWIDTH 840 0
DWIDTH 14 0
BBX 14 14 0 -2
BITMAP
0000
0100
0100
0380
0380
07C0
07C0
0FE0
0FE0
1FF0
1FF0
3FF8
0000
0000
ENDCHAR
STARTCHAR 25B3
ENCODING 9651
SWIDTH 840 0
DWIDTH 14 0
BBX 14 14 0 -2
BITMAP
0000
0100
0100
0280
0280
0440
0440
0820
0820
1010
1010
3FF8
0000
0000
ENDCHAR
STARTCHAR 25B6
ENCODING 9654
SWIDTH 840 0
DWIDTH 14 0
BBX 14 14 0 -2
BITMAP
0000
2000
3800
3E00
3F80
3FE0
3FF8
3FE0
3F80
3E00
3800
2000
0000
0000
ENDCHAR
STARTCHAR 25B7
ENCODING 9655
SWIDTH 840 0
DWIDTH 14 0
BBX 14 14 0 -2
BITMAP
0000
2000
3800
2600
2180
2060
2018
2060
2180
2600
3800
2000
0000
0000
ENDCHAR
STARTCHAR 25BC
ENCODING 9660
SWIDTH 840 0
DWIDTH 14 0
BBX 14 14 0 -2
BITMAP
0000
3FF8
1FF0
1FF0
0FE0
0FE0
07C0
07C0
0380
0380
0100
0100
0000
0000
ENDCHAR
STARTCHAR 25BD
ENCODING 9661
SWIDTH 840 0
DWIDTH 14 0
BBX 14 14 0 -2
BITMAP
0000
3FF8
1010
1010
0820
0820
0440
0440
0280
0280
0100
0100
0000
0000
ENDCHAR
STARTCHAR 25C0
ENCODING 9664
SWIDTH 840 0
DWIDTH 14 0
BBX 14 14 0 -2
BITMAP
0000
0008
0038
00F8
03F8
0FF8
3FF8
0FF8
03F8
00F8
0038
0008
0000
0000
ENDCHAR
STARTCHAR 25C1
ENCODING 9665
SWIDTH 840 0
DWIDTH 14 0
BBX 14 14 0 -2
BITMAP
0000
0008
0038
00C8
0308
0C08
3008
0C08
0308
00C8
0038
0008
0000
0000
ENDCHAR
STARTCHAR 25C6
ENCODING 9670
SWIDTH 840 0
DWIDTH 14 0
BBX 14 14 0 -2
BITMAP
0000
0100
0380
07C0
0FE0
1FF0
3FF8
7FFC
3FF8
1FF0
0FE0
07C0
0380
0100
ENDCHAR
STARTCHAR 25C7
ENCODING 9671
SWIDTH 840 0
DWIDTH 14 0
BBX 14 14 0 -2
BITMAP
0000
0100
0280
0440
0820
1010
2008
4004
2008
1010
0820
0440
0280
0100
ENDCHAR
STARTCHAR 25C9
ENCODING 9673
SWIDTH 840 0
DWIDTH 14 0
BBX 14 14 0 -2
BITMAP
0000
07C0
1830
2388
2FE8
4FE4
5FF4
5FF4
5FF4
4FE4
2FE8
2388
1830
07C0
ENDCHAR
STARTCHAR 25CB
ENCODING 9675
SWIDTH 840 0
DWIDTH 14 0
BBX 14 14 0 -2
BITMAP
0000
0000
0380
0C60
1010
1010
2008
2008
2008
1010
1010
0C60
0380
0000
ENDCHAR
STARTCHAR 25CE
ENCODING 9678
SWIDTH 840 0
DWIDTH 14 0
BBX 14 14 0 -2
BITMAP
0000
0000
0380
0C60
1390
1450
2828
2828
2828
1450
1390
0C60
0380
0000
ENDCHAR
STARTCHAR 25CF
ENCODING 9679
SWIDTH 840 0
DWIDTH 14 0
BBX 14 14 0 -2
BITMAP
0000
0000
0380
0FE0
1FF0
1FF0
3FF8
3FF8
3FF8
1FF0
1FF0
0FE0
0380
0000
ENDCHAR
STARTCHAR 25D0
ENCODING 9680
SWIDTH 840 0
DWIDTH 14 0
BBX 14 14 0 -2
BITMAP
0000
0780
1E60
3E10
3E10
7E08
7E08
7E08
7E08
3E10
3E10
1E60
0780
0000
ENDCHAR
STARTCHAR 25D1
ENCODING 9681
SWIDTH 840 0
DWIDTH 14 0
BBX 14 14 0 -2
BITMAP
0000
0780
19E0
21F0
21F0
41F8
41F8
41F8
41F8
21F0
21F0
1DE0
0780
0000
ENDCHAR
STARTCHAR 25D2
ENCODING 9682
SWIDTH 840 0
DWIDTH 14 0
BBX 14 14 0 -2
BITMAP
0000
0780
1860
2010
2010
4008
4008
7FF8
7FF8
3FF0
3FF0
1FE0
0780
0000
ENDCHAR
STARTCHAR 25D3
ENCODING 9683
SWIDTH 840 0
DWIDTH 14 0
BBX 14 14 0 -2
BITMAP
0000
0780
1FE0
3FF0
3FF0
7FF8
7FF8
4008
4008
2010
2010
1860
0780
0000
ENDCHAR
STARTCHAR 25E6
ENCODING 9702
SWIDTH 840 0
DWIDTH 14 0
BBX 14 14 0 -2
BITMAP
0000
0000
0000
0000
0000
0380
0440
0440
0440
0380
0000
0000
0000
0000
ENDCHAR
STARTCHAR 25EF
ENCODING 9711
SWIDTH 840 0
DWIDTH 14 0
BBX 14 14 0 -2
BITMAP
0000
07C0
1830
2008
2008
4004
4004
4004
4004
4004
2008
2008
1830
07C0
ENDCHAR
STARTCHAR 2600
ENCODING 9728
SWIDTH 840 0
DWIDTH 14 0
BBX 14 14 0 -2
BITMAP
0200
4210
2020
0000
0700
0F80
CF98
0F80
0700
0000
2020
4210
0200
0000
ENDCHAR
STARTCHAR 2601
ENCODING 9729
SWIDTH 840 0
DWIDTH 14 0
BBX 14 14 0 -2
BITMAP
0000
0000
0600
0F60
0FF0
37E0
7FD0
FFF8
7FF8
3BF0
01E0
0000
0000
0000
ENDCHAR
STARTCHAR 2602
ENCODING 9730
SWIDTH 840 0
DWIDTH 14 0
BBX 14 14 0 -2
BITMAP
0200
0200
0F80
3FE0
7FF0
7FF0
DAD8
9288
0200
0200
0200
1200
0A00
0600
ENDCHAR
STARTCHAR 2603
ENCODING 9731
SWIDTH 840 0
DWIDTH 14 0
BBX 14 14 0 -2
BITMAP
0260
20F4
8FF0
1020
26D0
A6D4
5008
2290
4108
4004
4104
2008
9110
0FE0
ENDCHAR
STARTCHAR 2605
ENCODING 9733
SWIDTH 840 0
DWIDTH 14 0
BBX 14 14 0 -2
BITMAP
0000
0100
0100
0380
0380
7FFC
3FF8
0FE0
07C0
0FE0
0EE0
1C70
1010
0000
ENDCHAR
STARTCHAR 2606
ENCODING 9734
SWIDTH 840 0
DWIDTH 14 0
BBX 14 14 0 -2
BITMAP
0000
0100
0100
0280
0280
7C7C
3018
0C60
0440
0920
0AA0
1C70
1010
0000
ENDCHAR
STARTCHAR 260E
ENCODING 9742
SWIDTH 840 0
DWIDTH 14 0
BBX 14 14 0 -2
BITMAP
0000
0000
3FF0
6498
6498
0FC0
3CF0
3870
3870
7CF8
7FF8
7FF8
0000
0000
ENDCHAR
STARTCHAR 2616
ENCODING 9750
SWIDTH 840 0
DWIDTH 14 0
BBX 14 14 0 -2
BITMAP
0000
0100
06C0
1830
1010
1010
2008
2008
2008
2008
4004
4004
7FFC
0000
ENDCHAR
STARTCHAR 2617
ENCODING 9751
SWIDTH 840 0
DWIDTH 14 0
BBX 14 14 0 -2
BITMAP
0000
0100
07C0
1FF0
1FF0
1FF0
3FF8
3FF8
3FF8
3FF8
7FFC
7FFC
7FFC
0000
ENDCHAR
STARTCHAR 261E
ENCODING 9758
SWIDTH 840 0
DWIDTH 14 0
BBX 14 14 0 -2
BITMAP
0000
0000
07F8
4904
71F8
4240
4580
7840
4180
7040
4980
0700
0000
0000
ENDCHAR
STARTCHAR 2640
ENCODING 9792
SWIDTH 840 0
DWIDTH 14 0
BBX 14 14 0 -2
BITMAP
0000
0380
0440
0820
0820
0820
0440
0380
0100
0100
1FF0
0100
0100
0100
ENDCHAR
STARTCHAR 2642
ENCODING 9794
SWIDTH 840 0
DWIDTH 14 0
BBX 14 14 0 -2
BITMAP
0000
03F8
0018
0028
0048
0088
1D08
2208
4100
4100
4100
2200
1C00
0000
ENDCHAR
STARTCHAR 2660
ENCODING 9824
SWIDTH 840 0
DWIDTH 14 0
BBX 14 14 0 -2
BITMAP
0000
0200
0700
0F80
1FC0
3FE0
7FF0
7FF0
7FF0
3AE0
0200
0700
0000
0000
ENDCHAR
STARTCHAR 2661
ENCODING 9825
SWIDTH 840 0
DWIDTH 14 0
BBX 14 14 0 -2
BITMAP
0000
38E0
6530
4210
4210
4010
6030
2020
18C0
0880
0700
0200
0000
0000
ENDCHAR
STARTCHAR 2662
ENCODING 9826
SWIDTH 840 0
DWIDTH 14 0
BBX 14 14 0 -2
BITMAP
0000
0200
0500
0D80
1040
3060
6030
3060
1040
0D80
0500
0200
0000
0000
ENDCHAR
STARTCHAR 2663
ENCODING 9827
SWIDTH 840 0
DWIDTH 14 0
BBX 14 14 0 -2
BITMAP
0000
0700
0F80
0F80
1740
3FE0
7FF0
7FF0
7FF0
3AE0
0200
0700
0000
0000
ENDCHAR
STARTCHAR 2664
ENCODING 9828
SWIDTH 840 0
DWIDTH 14 0
BBX 14 14 0 -2
BITMAP
0000
0200
0700
0D80
18C0
3060
6030
4010
6730
3AE0
0200
0700
0000
0000
ENDCHAR
STARTCHAR 2665
ENCODING 9829
SWIDTH 840 0
DWIDTH 14 0
BBX 14 14 0 -2
BITMAP
0000
38E0
7DF0
7DF0
7FF0
7FF0
7FF0
3FE0
1FC0
0F80
0700
0200
0000
0000
ENDCHAR
STARTCHAR 2666
ENCODING 9830
SWIDTH 840 0
DWIDTH 14 0
BBX 14 14 0 -2
BITMAP
0000
0200
0700
0F80
1FC0
3FE0
7FF0
3FE0
1FC0
0F80
0700
0200
0000
0000
ENDCHAR
STARTCHAR 2667
ENCODING 9831
SWIDTH 840 0
DWIDTH 14 0
BBX 14 14 0 -2
BITMAP
0000
0700
0880
0880
1540
38E0
4010
4010
6730
3AE0
0200
0700
0000
0000
ENDCHAR
STARTCHAR 2668
ENCODING 9832
SWIDTH 840 0
DWIDTH 14 0
BBX 14 14 0 -2
BITMAP
0000
0100
0920
0A20
1240
1240
0920
2930
4928
5248
4208
3030
0FC0
0000
ENDCHAR
STARTCHAR 2669
ENCODING 9833
SWIDTH 840 0
DWIDTH 14 0
BBX 14 14 0 -2
BITMAP
0100
0100
0100
0100
0100
0100
0100
0100
0100
0700
0F00
0F00
0600
0000
ENDCHAR
STARTCHAR 266A
ENCODING 9834
SWIDTH 840 0
DWIDTH 14 0
BBX 14 14 0 -2
BITMAP
0100
0180
01C0
0160
0120
0130
0110
0110
0110
0720
0F00
0F00
0600
0000
ENDCHAR
STARTCHAR 266B
ENCODING 9835
SWIDTH 840 0
DWIDTH 14 0
BBX 14 14 0 -2
BITMAP
0F00
0FF0
08F0
0810
0810
0810
0810
0810
0810
3810
7870
70F0
60E0
00C0
ENDCHAR
STARTCHAR 266C
ENCODING 9836
SWIDTH 840 0
DWIDTH 14 0
BBX 14 14 0 -2
BITMAP
0F00
0FF0
08F0
0F10
0FF0
08F0
0810
0810
0810
3810
7870
70F0
60E0
00C0
ENDCHAR
STARTCHAR 266D
ENCODING 9837
SWIDTH 840 0
DWIDTH 14 0
BBX 14 14 0 -2
BITMAP
0000
0400
0400
0400
0400
0400
05C0
0660
0460
0440
0480
0500
0600
0000
ENDCHAR
STARTCHAR 266E
ENCODING 9838
SWIDTH 840 0
DWIDTH 14 0
BBX 14 14 0 -2
BITMAP
0000
0800
0840
09C0
0FC0
0E40
0840
0840
09C0
0FC0
0E40
0840
0040
0000
ENDCHAR
STARTCHAR 266F
ENCODING 9839
SWIDTH 840 0
DWIDTH 14 0
BBX 14 14 0 -2
BITMAP
0080
0480
04E0
07E0
1F80
1C80
0480
04E0
07E0
1F80
1C80
0480
0400
0000
ENDCHAR
STARTCHAR 2713
ENCODING 10003
SWIDTH 840 0
DWIDTH 14 0
BBX 14 14 0 -2
BITMAP
0000
0000
0010
0020
0040
0080
0180
0100
3200
1A00
0C00
0800
0000
0000
ENDCHAR
STARTCHAR 2756
ENCODING 10070
SWIDTH 840 0
DWIDTH 14 0
BBX 14 14 0 -2
BITMAP
0100
0380
07C0
07C0
1390
3938
7C7C
7C7C
3938
1390
07C0
07C0
0380
0100
ENDCHAR
STARTCHAR 2776
ENCODING 10102
SWIDTH 840 0
DWIDTH 14 0
BBX 14 14 0 -2
BITMAP
0780
1FE0
3EF0
7CF8
70F8
FCFC
FCFC
FCFC
FCFC
7CF8
7CF8
3030
1FE0
0780
ENDCHAR
STARTCHAR 2777
ENCODING 10103
SWIDTH 840 0
DWIDTH 14 0
BBX 14 14 0 -2
BITMAP
0780
1FE0
3070
6738
6738
FF3C
FE7C
FCFC
F9FC
77D8
7038
2030
1FE0
0780
ENDCHAR
STARTCHAR 2778
ENCODING 10104
SWIDTH 840 0
DWIDTH 14 0
BBX 14 14 0 -2
BITMAP
0780
1FE0
3070
6738
6738
FF3C
FC7C
F73C
E33C
6738
7738
3870
1FE0
0780
ENDCHAR
STARTCHAR 2779
ENCODING 10105
SWIDTH 840 0
DWIDTH 14 0
BBX 14 14 0 -2
BITMAP
0780
1FE0
3CF0
78F8
70F8
F4FC
E4FC
ECFC
E03C
7CF8
7CF8
3870
1FE0
0780
ENDCHAR
STARTCHAR 277A
ENCODING 10106
SWIDTH 840 0
DWIDTH 14 0
BBX 14 14 0 -2
BITMAP
0780
1FE0
3030
7078
77F8
F7FC
F07C
FF3C
FF3C
6738
6738
3070
1FE0
0780
ENDCHAR
STARTCHAR 277B
ENCODING 10107
SWIDTH 840 0
DWIDTH 14 0
BBX 14 14 0 -2
BITMAP
0780
1FE0
3870
7738
6738
E7FC
E07C
E73C
E73C
6738
6738
3070
1FE0
0780
ENDCHAR
STARTCHAR 277C
ENCODING 10108
SWIDTH 840 0
DWIDTH 14 0
BBX 14 14 0 -2
BITMAP
0780
1FE0
3030
7078
6778
FF7C
FEFC
FEFC
FCFC
7CFC
7CF8
3CF0
1FE0
0780
ENDCHAR
STARTCHAR 277D
ENCODING 10109
SWIDTH 840 0
DWIDTH 14 0
BBX 14 14 0 -2
BITMAP
0780
1FE0
3070
6738
6738
E33C
F07C
E63C
E73C
6738
6738
3070
1FE0
0780
ENDCHAR
STARTCHAR 277E
ENCODING 10110
SWIDTH 840 0
DWIDTH 14 0
BBX 14 14 0 -2
BITMAP
0780
1FE0
3070
6738
6738
E73C
E73C
F03C
FF3C
6738
6778
30F0
1FE0
0780
ENDCHAR
STARTCHAR 277F
ENCODING 10111
SWIDTH 840 0
DWIDTH 14 0
BBX 14 14 0 -2
BITMAP
0780
1FE0
3630
6498
4498
E49C
E49C
E49C
E49C
6498
6498
2230
1FE0
0780
ENDCHAR
STARTCHAR 2934
ENCODING 10548
SWIDTH 840 0
DWIDTH 14 0
BBX 14 14 0 -2
BITMAP
0000
0020
0020
0070
0070
00A8
0124
0020
0040
0040
0180
7E00
0000
0000
ENDCHAR
STARTCHAR 2935
ENCODING 10549
SWIDTH 840 0
DWIDTH 14 0
BBX 14 14 0 -2
BITMAP
0000
7E00
0180
0040
0040
0020
0124
00A8
0070
0070
0020
0020
0000
0000
ENDCHAR
STARTCHAR 29BF
ENCODING 10687
SWIDTH 840 0
DWIDTH 14 0
BBX 14 14 0 -2
BITMAP
0000
07C0
1830
2008
2008
4004
4384
4384
4384
4004
2008
2008
1830
07C0
ENDCHAR
STARTCHAR 29FA
ENCODING 10746
SWIDTH 840 0
DWIDTH 14 0
BBX 14 14 0 -2
BITMAP
0000
0840
0840
0840
0840
0840
7FF8
0840
0840
0840
0840
0840
0000
0000
ENDCHAR
STARTCHAR 29FB
ENCODING 10747
SWIDTH 840 0
DWIDTH 14 0
BBX 14 14 0 -2
BITMAP
0000
1240
1240
1240
1240
1240
7FF8
1240
1240
1240
1240
1240
0000
0000
ENDCHAR
STARTCHAR 3000
ENCODING 12288
SWIDTH 840 0
DWIDTH 14 0
BBX 14 14 0 -2
BITMAP
0000
0000
0000
0000
0000
0000
0000
0000
0000
0000
0000
0000
0000
0000
ENDCHAR
STARTCHAR 3001
ENCODING 12289
SWIDTH 840 0
DWIDTH 14 0
BBX 14 14 0 -2
BITMAP
0000
0000
0000
0000
0000
0000
0000
0000
0000
0000
4000
3000
1800
0800
ENDCHAR
STARTCHAR 3002
ENCODING 12290
SWIDTH 840 0
DWIDTH 14 0
BBX 14 14 0 -2
BITMAP
0000
0000
0000
0000
0000
0000
0000
0000
0000
0000
3000
4800
4800
3000
ENDCHAR
STARTCHAR 3003
ENCODING 12291
SWIDTH 840 0
DWIDTH 14 0
BBX 14 14 0 -2
BITMAP
0000
0000
0000
0000
0440
0440
0440
0880
0880
1100
0000
0000
0000
0000
ENDCHAR
STARTCHAR 3005
ENCODING 12293
SWIDTH 840 0
DWIDTH 14 0
BBX 14 14 0 -2
BITMAP
0000
0000
0000
0000
0200
0200
03F0
0420
0420
0840
1280
0180
0040
0020
ENDCHAR
STARTCHAR 3006
ENCODING 12294
SWIDTH 840 0
DWIDTH 14 0
BBX 14 14 0 -2
BITMAP
0000
0000
0010
0010
0020
0640
0980
0900
1280
1400
1800
1000
2000
0000
ENDCHAR
STARTCHAR 3007
ENCODING 12295
SWIDTH 840 0
DWIDTH 14 0
BBX 14 14 0 -2
BITMAP
0000
07C0
1830
2008
2008
4004
4004
4004
4004
4004
2008
2008
1830
07C0
ENDCHAR
STARTCHAR 3008
ENCODING 12296
SWIDTH 840 0
DWIDTH 14 0
BBX 14 14 0 -2
BITMAP
0008
0010
0020
0040
0080
0100
0200
0200
0100
0080
0040
0020
0010
0008
ENDCHAR
STARTCHAR 3009
ENCODING 12297
SWIDTH 840 0
DWIDTH 14 0
BBX 14 14 0 -2
BITMAP
4000
2000
1000
0800
0400
0200
0100
0100
0200
0400
0800
1000
2000
4000
ENDCHAR
STARTCHAR 300A
ENCODING 12298
SWIDTH 840 0
DWIDTH 14 0
BBX 14 14 0 -2
BITMAP
0048
0048
0090
0090
0120
0120
0240
0240
0120
0120
0090
0090
0048
0048
ENDCHAR
STARTCHAR 300B
ENCODING 12299
SWIDTH 840 0
DWIDTH 14 0
BBX 14 14 0 -2
BITMAP
4800
4800
2400
2400
1200
1200
0900
0900
1200
1200
2400
2400
4800
4800
ENDCHAR
STARTCHAR 300C
ENCODING 12300
SWIDTH 840 0
DWIDTH 14 0
BBX 14 14 0 -2
BITMAP
01F8
0100
0100
0100
0100
0100
0100
0100
0100
0100
0100
0100
0100
0100
ENDCHAR
STARTCHAR 300D
ENCODING 12301
SWIDTH 840 0
DWIDTH 14 0
BBX 14 14 0 -2
BITMAP
0200
0200
0200
0200
0200
0200
0200
0200
0200
0200
0200
0200
0200
7E00
ENDCHAR
STARTCHAR 300E
ENCODING 12302
SWIDTH 840 0
DWIDTH 14 0
BBX 14 14 0 -2
BITMAP
03F8
0208
02F8
0280
0280
0280
0280
0280
0280
0280
0280
0280
0280
0380
ENDCHAR
STARTCHAR 300F
ENCODING 12303
SWIDTH 840 0
DWIDTH 14 0
BBX 14 14 0 -2
BITMAP
0700
0500
0500
0500
0500
0500
0500
0500
0500
0500
0500
7D00
4100
7F00
ENDCHAR
STARTCHAR 3010
ENCODING 12304
SWIDTH 840 0
DWIDTH 14 0
BBX 14 14 0 -2
BITMAP
00F8
00F0
00E0
00E0
00C0
00C0
00C0
00C0
00C0
00C0
00E0
00E0
00F0
00F8
ENDCHAR
STARTCHAR 3011
ENCODING 12305
SWIDTH 840 0
DWIDTH 14 0
BBX 14 14 0 -2
BITMAP
7C00
3C00
1C00
1C00
0C00
0C00
0C00
0C00
0C00
0C00
1C00
1C00
3C00
7C00
ENDCHAR
STARTCHAR 3012
ENCODING 12306
SWIDTH 840 0
DWIDTH 14 0
BBX 14 14 0 -2
BITMAP
0000
3FF0
3FF0
0000
0000
7FF8
7FF8
0300
0300
0300
0300
0300
0300
0000
ENDCHAR
STARTCHAR 3013
ENCODING 12307
SWIDTH 840 0
DWIDTH 14 0
BBX 14 14 0 -2
BITMAP
0000
0000
0000
0000
3FF0
3FF0
0000
0000
3FF0
3FF0
0000
0000
0000
0000
ENDCHAR
STARTCHAR 3014
ENCODING 12308
SWIDTH 840 0
DWIDTH 14 0
BBX 14 14 0 -2
BITMAP
0008
0010
0020
0040
0040
0040
0040
0040
0040
0040
0040
0020
0010
0008
ENDCHAR
STARTCHAR 3015
ENCODING 12309
SWIDTH 840 0
DWIDTH 14 0
BBX 14 14 0 -2
BITMAP
4000
2000
1000
0800
0800
0800
0800
0800
0800
0800
0800
1000
2000
4000
ENDCHAR
STARTCHAR 3016
ENCODING 12310
SWIDTH 840 0
DWIDTH 14 0
BBX 14 14 0 -2
BITMAP
03F8
0210
0220
0220
0240
0240
0240
0240
0240
0240
0220
0220
0210
03F8
ENDCHAR
STARTCHAR 3017
ENCODING 12311
SWIDTH 840 0
DWIDTH 14 0
BBX 14 14 0 -2
BITMAP
7F00
2100
1100
1100
0900
0900
0900
0900
0900
0900
1100
1100
2100
7F00
ENDCHAR
STARTCHAR 3018
ENCODING 12312
SWIDTH 840 0
DWIDTH 14 0
BBX 14 14 0 -2
BITMAP
0038
00C0
0318
0260
0280
0280
0280
0280
0280
0280
0260
0318
00C0
0038
ENDCHAR
STARTCHAR 3019
ENCODING 12313
SWIDTH 840 0
DWIDTH 14 0
BBX 14 14 0 -2
BITMAP
7000
0C00
6300
1900
0500
0500
0500
0500
0500
0500
1900
6300
0C00
7000
ENDCHAR
STARTCHAR 301C
ENCODING 12316
SWIDTH 840 0
DWIDTH 14 0
BBX 14 14 0 -2
BITMAP
0000
0000
0000
0000
0000
1C00
2208
4110
00E0
0000
0000
0000
0000
0000
ENDCHAR
STARTCHAR 301D
ENCODING 12317
SWIDTH 840 0
DWIDTH 14 0
BBX 14 14 0 -2
BITMAP
0000
0360
01B0
01B0
0090
0000
0000
0000
0000
0000
0000
0000
0000
0000
ENDCHAR
STARTCHAR 301F
ENCODING 12319
SWIDTH 840 0
DWIDTH 14 0
BBX 14 14 0 -2
BITMAP
0000
0000
0000
0000
0000
0000
0000
0000
6C00
3600
3600
1200
0000
0000
ENDCHAR
STARTCHAR 3020
ENCODING 12320
SWIDTH 840 0
DWIDTH 14 0
BBX 14 14 0 -2
BITMAP
3FF0
3FF0
0000
3FF0
3FF0
4308
BB74
AB54
BB74
4008
4848
4788
3030
0FC0
ENDCHAR
STARTCHAR 3033
ENCODING 12339
SWIDTH 840 0
DWIDTH 14 0
BBX 14 14 0 -2
BITMAP
0000
0000
0000
0000
0E00
1180
0040
0030
0008
0004
0000
0000
0000
0000
ENDCHAR
STARTCHAR 3034
ENCODING 12340
SWIDTH 840 0
DWIDTH 14 0
BBX 14 14 0 -2
BITMAP
0400
0800
0200
0400
0E00
1180
0040
0030
0008
0004
0000
0000
0000
0000
ENDCHAR
STARTCHAR 3035
ENCODING 12341
SWIDTH 840 0
DWIDTH 14 0
BBX 14 14 0 -2
BITMAP
0000
0000
0000
0000
00E0
0300
0C00
1000
6000
8000
0000
0000
0000
0000
ENDCHAR
STARTCHAR 303B
ENCODING 12347
SWIDTH 840 0
DWIDTH 14 0
BBX 14 14 0 -2
BITMAP
0000
0000
0400
0300
0180
0380
0400
0800
0800
0600
0300
0180
00C0
0000
ENDCHAR
STARTCHAR 303C
ENCODING 12348
SWIDTH 840 0
DWIDTH 14 0
BBX 14 14 0 -2
BITMAP
FFFC
800C
8014
8024
8044
8084
8104
8204
8404
8804
9004
A004
C004
FFFC
ENDCHAR
STARTCHAR 303D
ENCODING 12349
SWIDTH 840 0
DWIDTH 14 0
BBX 14 14 0 -2
BITMAP
0000
0000
0D80
1240
1260
0020
0020
0030
0018
0018
0018
0018
0008
0000
ENDCHAR
STARTCHAR 3041
ENCODING 12353
SWIDTH 840 0
DWIDTH 14 0
BBX 14 14 0 -2
BITMAP
0000
0000
0000
0400
0200
1380
0E00
0480
07E0
0D10
1610
2610
2A20
10C0
ENDCHAR
STARTCHAR 3042
ENCODING 12354
SWIDTH 840 0
DWIDTH 14 0
BBX 14 14 0 -2
BITMAP
0400
0200
02C0
1F00
0480
0480
07E0
0D10
1508
2208
2608
2A10
1060
0000
ENDCHAR
STARTCHAR 3043
ENCODING 12355
SWIDTH 840 0
DWIDTH 14 0
BBX 14 14 0 -2
BITMAP
0000
0000
0000
0000
0000
0000
1040
1020
1010
1030
0A00
0C00
0400
0000
ENDCHAR
STARTCHAR 3044
ENCODING 12356
SWIDTH 840 0
DWIDTH 14 0
BBX 14 14 0 -2
BITMAP
0000
0000
0000
4000
2060
2010
2008
2208
2418
1408
1800
0800
0000
0000
ENDCHAR
STARTCHAR 3045
ENCODING 12357
SWIDTH 840 0
DWIDTH 14 0
BBX 14 14 0 -2
BITMAP
0000
0000
0000
0000
0200
0180
0000
1380
0C40
0040
0040
0040
0080
0300
ENDCHAR
STARTCHAR 3046
ENCODING 12358
SWIDTH 840 0
DWIDTH 14 0
BBX 14 14 0 -2
BITMAP
0200
01C0
0000
0000
03C0
1C20
0020
0020
0020
0020
0040
0040
0080
0100
ENDCHAR
STARTCHAR 3047
ENCODING 12359
SWIDTH 840 0
DWIDTH 14 0
BBX 14 14 0 -2
BITMAP
0000
0000
0000
0000
0200
0180
0000
01C0
0E80
0100
0200
0700
0900
10F0
ENDCHAR
STARTCHAR 3048
ENCODING 12360
SWIDTH 840 0
DWIDTH 14 0
BBX 14 14 0 -2
BITMAP
0400
0380
0000
0000
11C0
0E80
0100
0200
0400
0E00
1100
2100
20F8
0000
ENDCHAR
STARTCHAR 3049
ENCODING 12361
SWIDTH 840 0
DWIDTH 14 0
BBX 14 14 0 -2
BITMAP
0000
0000
0000
0000
1040
0830
0C20
3800
0BC0
0C20
1820
2820
18C0
0800
ENDCHAR
STARTCHAR 304A
ENCODING 12362
SWIDTH 840 0
DWIDTH 14 0
BBX 14 14 0 -2
BITMAP
0000
0800
0430
0508
060C
1C00
0460
0590
0608
0C08
3488
0C70
0400
0000
ENDCHAR
STARTCHAR 304B
ENCODING 12363
SWIDTH 840 0
DWIDTH 14 0
BBX 14 14 0 -2
BITMAP
0000
0800
0400
0460
4710
3C88
0898
0880
0880
1080
1100
2500
2200
0000
ENDCHAR
STARTCHAR 304C
ENCODING 12364
SWIDTH 840 0
DWIDTH 14 0
BBX 14 14 0 -2
BITMAP
0008
0824
0410
0440
4720
3C90
0888
0898
0880
1080
1100
2500
2200
0000
ENDCHAR
STARTCHAR 304D
ENCODING 12365
SWIDTH 840 0
DWIDTH 14 0
BBX 14 14 0 -2
BITMAP
0200
0100
0160
0F80
0080
00F0
1F40
0020
0020
07F0
0810
0800
0600
01C0
ENDCHAR
STARTCHAR 304E
ENCODING 12366
SWIDTH 840 0
DWIDTH 14 0
BBX 14 14 0 -2
BITMAP
0408
0224
02D0
1F00
0100
01E0
3E80
0040
0040
0FE0
1020
1000
0C00
0380
ENDCHAR
STARTCHAR 304F
ENCODING 12367
SWIDTH 840 0
DWIDTH 14 0
BBX 14 14 0 -2
BITMAP
0080
0040
0040
0080
0100
0600
0800
0800
0400
0200
0100
0080
0040
0040
ENDCHAR
STARTCHAR 3050
ENCODING 12368
SWIDTH 840 0
DWIDTH 14 0
BBX 14 14 0 -2
BITMAP
0080
0040
0040
0088
0124
0610
0800
0800
0400
0200
0100
0080
0040
0040
ENDCHAR
STARTCHAR 3051
ENCODING 12369
SWIDTH 840 0
DWIDTH 14 0
BBX 14 14 0 -2
BITMAP
0080
2040
1020
1020
103C
23E0
2020
2020
2020
2020
1820
1040
1040
0080
ENDCHAR
STARTCHAR 3052
ENCODING 12370
SWIDTH 840 0
DWIDTH 14 0
BBX 14 14 0 -2
BITMAP
0108
40A4
2050
2040
2078
47C0
4040
4040
4040
4040
3040
2080
2080
0100
ENDCHAR
STARTCHAR 3053
ENCODING 12371
SWIDTH 840 0
DWIDTH 14 0
BBX 14 14 0 -2
BITMAP
0000
0800
07E0
0080
0100
0000
0000
0000
0000
2000
2000
1010
0FE0
0000
ENDCHAR
STARTCHAR 3054
ENCODING 12372
SWIDTH 840 0
DWIDTH 14 0
BBX 14 14 0 -2
BITMAP
0008
0804
07F0
0088
0100
0000
0000
0000
0000
2000
2000
1010
0FE0
0000
ENDCHAR
STARTCHAR 3055
ENCODING 12373
SWIDTH 840 0
DWIDTH 14 0
BBX 14 14 0 -2
BITMAP
0400
0200
0130
21C0
1E80
0040
0040
07E0
0820
1000
1000
0C00
03C0
0000
ENDCHAR
STARTCHAR 3056
ENCODING 12374
SWIDTH 840 0
DWIDTH 14 0
BBX 14 14 0 -2
BITMAP
0408
0204
0130
21C8
1E80
0040
0040
07E0
0820
1000
1000
0C00
03C0
0000
ENDCHAR
STARTCHAR 3057
ENCODING 12375
SWIDTH 840 0
DWIDTH 14 0
BBX 14 14 0 -2
BITMAP
0000
1000
0800
0800
0800
0800
0800
0800
0800
0808
0810
0460
0380
0000
ENDCHAR
STARTCHAR 3058
ENCODING 12376
SWIDTH 840 0
DWIDTH 14 0
BBX 14 14 0 -2
BITMAP
0000
1020
0890
0840
0800
0800
0800
0800
0800
0808
0810
0460
0380
0000
ENDCHAR
STARTCHAR 3059
ENCODING 12377
SWIDTH 840 0
DWIDTH 14 0
BBX 14 14 0 -2
BITMAP
0100
0080
40F8
3F80
0080
0380
04C0
0440
03C0
0040
0080
0080
0100
0200
ENDCHAR
STARTCHAR 305A
ENCODING 12378
SWIDTH 840 0
DWIDTH 14 0
BBX 14 14 0 -2
BITMAP
0128
0094
40F8
3F80
0080
0380
04C0
0440
03C0
0040
0080
0080
0100
0200
ENDCHAR
STARTCHAR 305B
ENCODING 12379
SWIDTH 840 0
DWIDTH 14 0
BBX 14 14 0 -2
BITMAP
0000
0080
1040
0840
0878
4BC0
3C40
0840
0840
08C0
0840
0400
03E0
0000
ENDCHAR
STARTCHAR 305C
ENCODING 12380
SWIDTH 840 0
DWIDTH 14 0
BBX 14 14 0 -2
BITMAP
0008
0084
1050
0848
0878
4BC0
3C40
0840
0840
08C0
0840
0400
03E0
0000
ENDCHAR
STARTCHAR 305D
ENCODING 12381
SWIDTH 840 0
DWIDTH 14 0
BBX 14 14 0 -2
BITMAP
0000
09C0
0640
0080
0100
0238
07C0
3880
0100
0200
0200
0200
0100
00E0
ENDCHAR
STARTCHAR 305E
ENCODING 12382
SWIDTH 840 0
DWIDTH 14 0
BBX 14 14 0 -2
BITMAP
0000
09C8
0664
0090
0100
0238
07C0
3880
0100
0200
0200
0200
0100
00E0
ENDCHAR
STARTCHAR 305F
ENCODING 12383
SWIDTH 840 0
DWIDTH 14 0
BBX 14 14 0 -2
BITMAP
0000
0800
0480
0700
3C00
08F0
0818
0820
1000
1000
1100
2100
20F8
0000
ENDCHAR
STARTCHAR 3060
ENCODING 12384
SWIDTH 840 0
DWIDTH 14 0
BBX 14 14 0 -2
BITMAP
0008
0824
0490
0700
3C00
08F0
0818
0820
1000
1000
1100
2100
20F8
0000
ENDCHAR
STARTCHAR 3061
ENCODING 12385
SWIDTH 840 0
DWIDTH 14 0
BBX 14 14 0 -2
BITMAP
0800
0400
04C0
4700
3C00
0800
08C0
0B20
1C10
1010
0010
0020
00C0
0700
ENDCHAR
STARTCHAR 3062
ENCODING 12386
SWIDTH 840 0
DWIDTH 14 0
BBX 14 14 0 -2
BITMAP
0800
0408
04C4
4710
3C08
0800
08C0
0B20
1C10
1010
0010
0020
00C0
0700
ENDCHAR
STARTCHAR 3063
ENCODING 12387
SWIDTH 840 0
DWIDTH 14 0
BBX 14 14 0 -2
BITMAP
0000
0000
0000
0000
0000
0000
01C0
0620
3810
0010
0010
0020
00C0
0700
ENDCHAR
STARTCHAR 3064
ENCODING 12388
SWIDTH 840 0
DWIDTH 14 0
BBX 14 14 0 -2
BITMAP
0000
0000
0000
03E0
4C10
3008
0008
0008
0008
0010
0060
0380
0000
0000
ENDCHAR
STARTCHAR 3065
ENCODING 12389
SWIDTH 840 0
DWIDTH 14 0
BBX 14 14 0 -2
BITMAP
0008
0024
0010
03E0
4C10
3008
0008
0008
0008
0010
0060
0380
0000
0000
ENDCHAR
STARTCHAR 3066
ENCODING 12390
SWIDTH 840 0
DWIDTH 14 0
BBX 14 14 0 -2
BITMAP
0000
0038
43C0
3C80
0100
0100
0200
0200
0200
0200
0200
0100
00E0
0000
ENDCHAR
STARTCHAR 3067
ENCODING 12391
SWIDTH 840 0
DWIDTH 14 0
BBX 14 14 0 -2
BITMAP
0000
0038
43C0
3C88
0124
0110
0200
0200
0200
0200
0200
0100
00E0
0000
ENDCHAR
STARTCHAR 3068
ENCODING 12392
SWIDTH 840 0
DWIDTH 14 0
BBX 14 14 0 -2
BITMAP
0000
0400
0200
0200
0200
0270
0380
0600
0800
1000
1000
0800
07F0
0000
ENDCHAR
STARTCHAR 3069
ENCODING 12393
SWIDTH 840 0
DWIDTH 14 0
BBX 14 14 0 -2
BITMAP
0000
0408
0224
0210
0200
0270
0380
0600
0800
1000
1000
0800
07F0
0000
ENDCHAR
STARTCHAR 306A
ENCODING 12394
SWIDTH 840 0
DWIDTH 14 0
BBX 14 14 0 -2
BITMAP
0400
0200
0280
3F00
0470
0818
0820
1040
1040
2040
03C0
0460
0450
0380
ENDCHAR
STARTCHAR 306B
ENCODING 12395
SWIDTH 840 0
DWIDTH 14 0
BBX 14 14 0 -2
BITMAP
0000
2000
1000
10F0
1318
2020
2000
2000
2000
2200
2A00
11F8
1000
1000
ENDCHAR
STARTCHAR 306C
ENCODING 12396
SWIDTH 840 0
DWIDTH 14 0
BBX 14 14 0 -2
BITMAP
0000
0100
0080
0080
13E0
1510
1908
1208
2A08
4C08
4C68
5490
2068
0000
ENDCHAR
STARTCHAR 306D
ENCODING 12397
SWIDTH 840 0
DWIDTH 14 0
BBX 14 14 0 -2
BITMAP
1000
0800
0800
0800
4CE0
3F10
0C10
0810
1810
1810
28F0
5918
08E0
0000
ENDCHAR
STARTCHAR 306E
ENCODING 12398
SWIDTH 840 0
DWIDTH 14 0
BBX 14 14 0 -2
BITMAP
0000
0000
03C0
0D20
1110
1108
2208
2208
2408
2410
2810
1060
0180
0000
ENDCHAR
STARTCHAR 306F
ENCODING 12399
SWIDTH 840 0
DWIDTH 14 0
BBX 14 14 0 -2
BITMAP
0040
2020
1020
1438
13E0
2020
2020
2020
2020
29E0
1230
1228
11C0
0000
ENDCHAR
STARTCHAR 3070
ENCODING 12400
SWIDTH 840 0
DWIDTH 14 0
BBX 14 14 0 -2
BITMAP
0088
4044
2050
2878
27C0
4040
4040
4040
4040
53C0
2460
2450
2380
0000
ENDCHAR
STARTCHAR 3071
ENCODING 12401
SWIDTH 840 0
DWIDTH 14 0
BBX 14 14 0 -2
BITMAP
0098
4064
2064
2878
27C0
4040
4040
4040
4040
53C0
2460
2450
2380
0000
ENDCHAR
STARTCHAR 3072
ENCODING 12402
SWIDTH 840 0
DWIDTH 14 0
BBX 14 14 0 -2
BITMAP
0000
0040
0440
3C20
0820
0830
1028
1020
1020
1040
1040
0880
0700
0000
ENDCHAR
STARTCHAR 3073
ENCODING 12403
SWIDTH 840 0
DWIDTH 14 0
BBX 14 14 0 -2
BITMAP
0008
0044
0450
3C28
0820
0830
1028
1020
1020
1040
1040
0880
0700
0000
ENDCHAR
STARTCHAR 3074
ENCODING 12404
SWIDTH 840 0
DWIDTH 14 0
BBX 14 14 0 -2
BITMAP
0030
0048
0448
3C30
0820
0830
1028
1020
1020
1040
1040
0880
0700
0000
ENDCHAR
STARTCHAR 3075
ENCODING 12405
SWIDTH 840 0
DWIDTH 14 0
BBX 14 14 0 -2
BITMAP
0000
0400
0380
0080
0100
0200
0200
0100
02B0
4C88
389C
2480
0300
0000
ENDCHAR
STARTCHAR 3076
ENCODING 12406
SWIDTH 840 0
DWIDTH 14 0
BBX 14 14 0 -2
BITMAP
0000
0400
0388
00A4
0110
0200
0200
0100
02B0
4C88
389C
2480
0300
0000
ENDCHAR
STARTCHAR 3077
ENCODING 12407
SWIDTH 840 0
DWIDTH 14 0
BBX 14 14 0 -2
BITMAP
0000
0400
0398
00A4
0124
0218
0200
0100
02B0
4C88
389C
2480
0300
0000
ENDCHAR
STARTCHAR 3078
ENCODING 12408
SWIDTH 840 0
DWIDTH 14 0
BBX 14 14 0 -2
BITMAP
0000
0000
0000
0000
0600
0900
5080
2040
0030
000C
0000
0000
0000
0000
ENDCHAR
STARTCHAR 3079
ENCODING 12409
SWIDTH 840 0
DWIDTH 14 0
BBX 14 14 0 -2
BITMAP
0000
0000
0010
0048
0620
0900
5080
2040
0030
000C
0000
0000
0000
0000
ENDCHAR
STARTCHAR 307A
ENCODING 12410
SWIDTH 840 0
DWIDTH 14 0
BBX 14 14 0 -2
BITMAP
0000
0030
0048
0048
0630
0900
5080
2040
0030
000C
0000
0000
0000
0000
ENDCHAR
STARTCHAR 307B
ENCODING 12411
SWIDTH 840 0
DWIDTH 14 0
BBX 14 14 0 -2
BITMAP
0000
2230
11C0
1040
1038
23E0
2020
2020
2020
29E0
1230
1228
11C0
0000
ENDCHAR
STARTCHAR 307C
ENCODING 12412
SWIDTH 840 0
DWIDTH 14 0
BBX 14 14 0 -2
BITMAP
0000
4468
2384
2090
2078
47C0
4040
4040
4040
53C0
2460
2450
2380
0000
ENDCHAR
STARTCHAR 307D
ENCODING 12413
SWIDTH 840 0
DWIDTH 14 0
BBX 14 14 0 -2
BITMAP
0018
4464
23A4
2098
2070
47C0
4040
4040
4040
53C0
2460
2450
2380
0000
ENDCHAR
STARTCHAR 307E
ENCODING 12414
SWIDTH 840 0
DWIDTH 14 0
BBX 14 14 0 -2
BITMAP
0100
0080
10F0
0F80
0080
10E0
0F80
0080
0080
0F80
10E0
1090
0F00
0000
ENDCHAR
STARTCHAR 307F
ENCODING 12415
SWIDTH 840 0
DWIDTH 14 0
BBX 14 14 0 -2
BITMAP
0000
0880
0780
0100
0100
0220
0210
0FF0
3418
4424
4820
3040
0080
0000
ENDCHAR
STARTCHAR 3080
ENCODING 12416
SWIDTH 840 0
DWIDTH 14 0
BBX 14 14 0 -2
BITMAP
0800
0400
2700
1C30
0408
1C0C
2400
2400
2C20
1810
0810
0810
07E0
0000
ENDCHAR
STARTCHAR 3081
ENCODING 12417
SWIDTH 840 0
DWIDTH 14 0
BBX 14 14 0 -2
BITMAP
0000
0100
0080
1080
13C0
1CA0
1110
2908
2A08
4608
4408
4A10
3060
0000
ENDCHAR
STARTCHAR 3082
ENCODING 12418
SWIDTH 840 0
DWIDTH 14 0
BBX 14 14 0 -2
BITMAP
0200
0100
1100
0E00
0380
1200
2420
1C20
0710
0410
0410
0410
0220
01C0
ENDCHAR
STARTCHAR 3083
ENCODING 12419
SWIDTH 840 0
DWIDTH 14 0
BBX 14 14 0 -2
BITMAP
0000
0000
0000
0000
0100
0880
09E0
0E10
3C10
0460
0200
0200
0100
0100
ENDCHAR
STARTCHAR 3084
ENCODING 12420
SWIDTH 840 0
DWIDTH 14 0
BBX 14 14 0 -2
BITMAP
0100
0080
01C0
1800
10F0
0B08
4C08
3408
0270
0200
0100
0100
0080
0080
ENDCHAR
STARTCHAR 3085
ENCODING 12421
SWIDTH 840 0
DWIDTH 14 0
BBX 14 14 0 -2
BITMAP
0000
0000
0000
0000
0200
0100
21E0
2710
2910
3110
2320
21C0
0100
0200
ENDCHAR
STARTCHAR 3086
ENCODING 12422
SWIDTH 840 0
DWIDTH 14 0
BBX 14 14 0 -2
BITMAP
0000
0300
4080
21E0
2290
2488
2888
3088
3488
2290
21E0
0080
0100
0200
ENDCHAR
STARTCHAR 3087
ENCODING 12423
SWIDTH 840 0
DWIDTH 14 0
BBX 14 14 0 -2
BITMAP
0000
0000
0000
0200
0100
0120
01C0
0100
0100
0100
0F00
11C0
1120
0E00
ENDCHAR
STARTCHAR 3088
ENCODING 12424
SWIDTH 840 0
DWIDTH 14 0
BBX 14 14 0 -2
BITMAP
0200
0100
0100
0130
01C0
0100
0100
0100
0100
1F80
2160
2110
1E00
0000
ENDCHAR
STARTCHAR 3089
ENCODING 12425
SWIDTH 840 0
DWIDTH 14 0
BBX 14 14 0 -2
BITMAP
0200
0100
01C0
0600
0800
0800
0800
09E0
0E10
0810
0810
0020
00C0
0300
ENDCHAR
STARTCHAR 308A
ENCODING 12426
SWIDTH 840 0
DWIDTH 14 0
BBX 14 14 0 -2
BITMAP
1000
0980
0A40
0C20
0C20
0820
0820
0820
0820
0040
0040
0080
0100
0200
ENDCHAR
STARTCHAR 308B
ENCODING 12427
SWIDTH 840 0
DWIDTH 14 0
BBX 14 14 0 -2
BITMAP
0000
08C0
0740
0080
0100
0200
07C0
0C20
1010
2010
0390
0460
0440
0380
ENDCHAR
STARTCHAR 308C
ENCODING 12428
SWIDTH 840 0
DWIDTH 14 0
BBX 14 14 0 -2
BITMAP
0000
1000
0800
09C0
0A20
1C20
6C20
0820
1820
1820
2820
4824
1818
0800
ENDCHAR
STARTCHAR 308D
ENCODING 12429
SWIDTH 840 0
DWIDTH 14 0
BBX 14 14 0 -2
BITMAP
0000
1180
0E80
0100
0200
0400
0FC0
0820
1010
2010
0010
0020
00C0
0700
ENDCHAR
STARTCHAR 308E
ENCODING 12430
SWIDTH 840 0
DWIDTH 14 0
BBX 14 14 0 -2
BITMAP
0000
0000
0000
0000
0800
0400
0400
06E0
1D10
0610
0C10
0C10
1420
0440
ENDCHAR
STARTCHAR 308F
ENCODING 12431
SWIDTH 840 0
DWIDTH 14 0
BBX 14 14 0 -2
BITMAP
1000
0800
0800
0800
4CE0
3F10
0C08
0808
1808
1808
2810
4820
18C0
0800
ENDCHAR
STARTCHAR 3090
ENCODING 12432
SWIDTH 840 0
DWIDTH 14 0
BBX 14 14 0 -2
BITMAP
0000
0980
0680
0100
0100
03E0
0E10
1208
2408
2408
28C8
1930
10E0
0000
ENDCHAR
STARTCHAR 3091
ENCODING 12433
SWIDTH 840 0
DWIDTH 14 0
BBX 14 14 0 -2
BITMAP
0000
0980
0700
0200
07C0
0820
1020
0620
09C0
0700
0800
1CE0
2310
4038
ENDCHAR
STARTCHAR 3092
ENCODING 12434
SWIDTH 840 0
DWIDTH 14 0
BBX 14 14 0 -2
BITMAP
0400
0200
12C0
0F00
0400
0420
0F38
18C0
2180
0280
0480
0800
0800
07E0
ENDCHAR
STARTCHAR 3093
ENCODING 12435
SWIDTH 840 0
DWIDTH 14 0
BBX 14 14 0 -2
BITMAP
0200
0100
0100
0200
0200
0400
0400
0F00
0880
1080
1088
2090
2060
0000
ENDCHAR
STARTCHAR 3094
ENCODING 12436
SWIDTH 840 0
DWIDTH 14 0
BBX 14 14 0 -2
BITMAP
0408
03A4
0010
0000
0780
3840
0040
0040
0040
0040
0080
0080
0100
0200
ENDCHAR
STARTCHAR 3095
ENCODING 12437
SWIDTH 840 0
DWIDTH 14 0
BBX 14 14 0 -2
BITMAP
0000
0000
0000
0800
04C0
2720
1C90
08B0
0880
0880
1080
1100
2500
0200
ENDCHAR
STARTCHAR 3096
ENCODING 12438
SWIDTH 840 0
DWIDTH 14 0
BBX 14 14 0 -2
BITMAP
0000
0000
0000
0100
2080
1040
1070
23C0
2040
2040
2040
2040
1880
1100
ENDCHAR
STARTCHAR 309B
ENCODING 12443
SWIDTH 840 0
DWIDTH 14 0
BBX 14 14 0 -2
BITMAP
1000
4800
2000
0000
0000
0000
0000
0000
0000
0000
0000
0000
0000
0000
ENDCHAR
STARTCHAR 309C
ENCODING 12444
SWIDTH 840 0
DWIDTH 14 0
BBX 14 14 0 -2
BITMAP
3000
4800
4800
3000
0000
0000
0000
0000
0000
0000
0000
0000
0000
0000
ENDCHAR
STARTCHAR 309D
ENCODING 12445
SWIDTH 840 0
DWIDTH 14 0
BBX 14 14 0 -2
BITMAP
0000
0000
0000
0000
0C00
0300
0080
00C0
0100
0000
0000
0000
0000
0000
ENDCHAR
STARTCHAR 309E
ENCODING 12446
SWIDTH 840 0
DWIDTH 14 0
BBX 14 14 0 -2
BITMAP
0000
0000
0020
0090
0C40
0300
0080
00C0
0100
0000
0000
0000
0000
0000
ENDCHAR
STARTCHAR 309F
ENCODING 12447
SWIDTH 840 0
DWIDTH 14 0
BBX 14 14 0 -2
BITMAP
0400
0400
07E0
0400
0C00
0980
0A40
0C20
1820
1020
3040
2240
2180
0000
ENDCHAR
STARTCHAR 30A0
ENCODING 12448
SWIDTH 840 0
DWIDTH 14 0
BBX 14 14 0 -2
BITMAP
0000
0000
0000
0000
0FC0
0000
0000
0000
0FC0
0000
0000
0000
0000
0000
ENDCHAR
STARTCHAR 30A1
ENCODING 12449
SWIDTH 840 0
DWIDTH 14 0
BBX 14 14 0 -2
BITMAP
0000
0000
0000
0000
0000
0000
21E0
1E20
0240
0180
0100
0100
0200
0400
ENDCHAR
STARTCHAR 30A2
ENCODING 12450
SWIDTH 840 0
DWIDTH 14 0
BBX 14 14 0 -2
BITMAP
0000
0000
21F0
1E10
0020
0240
0180
0100
0100
0100
0200
0200
0400
0800
ENDCHAR
STARTCHAR 30A3
ENCODING 12451
SWIDTH 840 0
DWIDTH 14 0
BBX 14 14 0 -2
BITMAP
0000
0000
0000
0000
0020
0040
0080
0380
1C80
0080
0080
0080
0080
0080
ENDCHAR
STARTCHAR 30A4
ENCODING 12452
SWIDTH 840 0
DWIDTH 14 0
BBX 14 14 0 -2
BITMAP
0000
0020
0020
0040
0080
0300
0D00
3080
0080
0080
0080
0080
0080
0080
ENDCHAR
STARTCHAR 30A5
ENCODING 12453
SWIDTH 840 0
DWIDTH 14 0
BBX 14 14 0 -2
BITMAP
0000
0000
0000
0000
0200
0100
01E0
1E20
0820
0840
0040
0080
0100
0200
ENDCHAR
STARTCHAR 30A6
ENCODING 12454
SWIDTH 840 0
DWIDTH 14 0
BBX 14 14 0 -2
BITMAP
0000
0200
0100
0100
01F0
3E10
1010
1020
0820
0840
0040
0080
0100
0200
ENDCHAR
STARTCHAR 30A7
ENCODING 12455
SWIDTH 840 0
DWIDTH 14 0
BBX 14 14 0 -2
BITMAP
0000
0000
0000
0000
0000
0000
00E0
0F00
0100
0100
0100
01E0
1E10
0000
ENDCHAR
STARTCHAR 30A8
ENCODING 12456
SWIDTH 840 0
DWIDTH 14 0
BBX 14 14 0 -2
BITMAP
0000
0000
0000
0070
1F80
0200
0100
0100
0100
0100
03F0
3C08
0000
0000
ENDCHAR
STARTCHAR 30A9
ENCODING 12457
SWIDTH 840 0
DWIDTH 14 0
BBX 14 14 0 -2
BITMAP
0000
0000
0000
0000
0100
0080
10E0
0F80
0180
0280
0480
0880
1180
0080
ENDCHAR
STARTCHAR 30AA
ENCODING 12458
SWIDTH 840 0
DWIDTH 14 0
BBX 14 14 0 -2
BITMAP
0000
0080
0040
0040
2078
1FC0
00C0
0140
0240
0440
0840
1040
00C0
0040
ENDCHAR
STARTCHAR 30AB
ENCODING 12459
SWIDTH 840 0
DWIDTH 14 0
BBX 14 14 0 -2
BITMAP
0000
0200
0100
0100
21F0
1F10
0210
0210
0420
0420
0820
1140
20C0
0080
ENDCHAR
STARTCHAR 30AC
ENCODING 12460
SWIDTH 840 0
DWIDTH 14 0
BBX 14 14 0 -2
BITMAP
0008
0224
0114
0110
21F0
1F10
0210
0210
0420
0420
0820
1140
20C0
0080
ENDCHAR
STARTCHAR 30AD
ENCODING 12461
SWIDTH 840 0
DWIDTH 14 0
BBX 14 14 0 -2
BITMAP
0000
0400
0200
0270
0380
1D00
0100
0178
0380
3C80
0080
0040
0040
0040
ENDCHAR
STARTCHAR 30AE
ENCODING 12462
SWIDTH 840 0
DWIDTH 14 0
BBX 14 14 0 -2
BITMAP
0008
0424
0214
0270
0380
1D00
0100
0178
0380
3C80
0080
0040
0040
0040
ENDCHAR
STARTCHAR 30AF
ENCODING 12463
SWIDTH 840 0
DWIDTH 14 0
BBX 14 14 0 -2
BITMAP
0000
0400
0270
0390
0220
0420
0440
0840
1080
0080
0100
0200
0400
0800
ENDCHAR
STARTCHAR 30B0
ENCODING 12464
SWIDTH 840 0
DWIDTH 14 0
BBX 14 14 0 -2
BITMAP
0008
0824
04D4
0750
0440
0840
0880
1080
2100
0100
0200
0400
0800
1000
ENDCHAR
STARTCHAR 30B1
ENCODING 12465
SWIDTH 840 0
DWIDTH 14 0
BBX 14 14 0 -2
BITMAP
0000
0800
0400
0400
0438
0FC0
0900
1080
2080
0080
0100
0100
0200
0400
ENDCHAR
STARTCHAR 30B2
ENCODING 12466
SWIDTH 840 0
DWIDTH 14 0
BBX 14 14 0 -2
BITMAP
0008
0824
0414
0410
0438
0FC0
0900
1080
2080
0080
0100
0100
0200
0400
ENDCHAR
STARTCHAR 30B3
ENCODING 12467
SWIDTH 840 0
DWIDTH 14 0
BBX 14 14 0 -2
BITMAP
0000
0000
0000
21F0
1E10
0010
0010
0010
0020
0020
03E0
1C20
0000
0000
ENDCHAR
STARTCHAR 30B4
ENCODING 12468
SWIDTH 840 0
DWIDTH 14 0
BBX 14 14 0 -2
BITMAP
0008
0024
0014
43D0
3C40
0040
0040
0040
0080
0080
0780
3880
0000
0000
ENDCHAR
STARTCHAR 30B5
ENCODING 12469
SWIDTH 840 0
DWIDTH 14 0
BBX 14 14 0 -2
BITMAP
0000
0080
0840
0440
0440
24F8
1F40
0440
0440
0440
0080
0080
0100
0200
ENDCHAR
STARTCHAR 30B6
ENCODING 12470
SWIDTH 840 0
DWIDTH 14 0
BBX 14 14 0 -2
BITMAP
0008
00A4
0854
0450
0440
24F8
1F40
0440
0440
0440
0080
0080
0100
0200
ENDCHAR
STARTCHAR 30B7
ENCODING 12471
SWIDTH 840 0
DWIDTH 14 0
BBX 14 14 0 -2
BITMAP
0000
0000
0C00
0200
0000
1800
0408
0010
0020
0040
0080
1300
0C00
0000
ENDCHAR
STARTCHAR 30B8
ENCODING 12472
SWIDTH 840 0
DWIDTH 14 0
BBX 14 14 0 -2
BITMAP
0000
0008
0C24
0214
0010
1800
0408
0010
0020
0040
0080
1300
0C00
0000
ENDCHAR
STARTCHAR 30B9
ENCODING 12473
SWIDTH 840 0
DWIDTH 14 0
BBX 14 14 0 -2
BITMAP
0000
0000
10E0
0F20
0040
0040
0080
0080
0140
0220
0C10
3010
0000
0000
ENDCHAR
STARTCHAR 30BA
ENCODING 12474
SWIDTH 840 0
DWIDTH 14 0
BBX 14 14 0 -2
BITMAP
0008
0024
21D4
1E50
0080
0080
0100
0100
0280
0440
1820
6020
0000
0000
ENDCHAR
STARTCHAR 30BB
ENCODING 12475
SWIDTH 840 0
DWIDTH 14 0
BBX 14 14 0 -2
BITMAP
0000
0800
0400
0400
0478
0588
2610
1C20
0440
0400
0400
0200
01F0
0000
ENDCHAR
STARTCHAR 30BC
ENCODING 12476
SWIDTH 840 0
DWIDTH 14 0
BBX 14 14 0 -2
BITMAP
0008
0824
0414
0410
0478
0588
2610
1C20
0440
0400
0400
0200
01F8
0000
ENDCHAR
STARTCHAR 30BD
ENCODING 12477
SWIDTH 840 0
DWIDTH 14 0
BBX 14 14 0 -2
BITMAP
0000
0020
1010
0810
0410
0420
0420
0040
0040
0080
0080
0100
0200
0400
ENDCHAR
STARTCHAR 30BE
ENCODING 12478
SWIDTH 840 0
DWIDTH 14 0
BBX 14 14 0 -2
BITMAP
0008
00A4
2054
1050
0840
0840
0840
0080
0080
0100
0100
0200
0400
0800
ENDCHAR
STARTCHAR 30BF
ENCODING 12479
SWIDTH 840 0
DWIDTH 14 0
BBX 14 14 0 -2
BITMAP
0000
0200
0100
01F0
0210
0220
0520
08C0
1040
0080
0100
0200
0C00
3000
ENDCHAR
STARTCHAR 30C0
ENCODING 12480
SWIDTH 840 0
DWIDTH 14 0
BBX 14 14 0 -2
BITMAP
0008
0424
0214
03F0
0420
0420
0A40
1140
2080
0100
0200
0400
1800
6000
ENDCHAR
STARTCHAR 30C1
ENCODING 12481
SWIDTH 840 0
DWIDTH 14 0
BBX 14 14 0 -2
BITMAP
0000
0040
0180
1E00
0100
00F8
2380
1C80
0080
0080
0100
0100
0200
0400
ENDCHAR
STARTCHAR 30C2
ENCODING 12482
SWIDTH 840 0
DWIDTH 14 0
BBX 14 14 0 -2
BITMAP
0008
0064
0194
1E10
0100
00F8
2380
1C80
0080
0080
0100
0100
0200
0400
ENDCHAR
STARTCHAR 30C3
ENCODING 12483
SWIDTH 840 0
DWIDTH 14 0
BBX 14 14 0 -2
BITMAP
0000
0000
0000
0000
0000
0000
0440
1220
0A20
0840
0040
0080
0100
0200
ENDCHAR
STARTCHAR 30C4
ENCODING 12484
SWIDTH 840 0
DWIDTH 14 0
BBX 14 14 0 -2
BITMAP
0000
0000
0410
2208
1108
0910
0810
0020
0020
0040
0080
0100
0200
0000
ENDCHAR
STARTCHAR 30C5
ENCODING 12485
SWIDTH 840 0
DWIDTH 14 0
BBX 14 14 0 -2
BITMAP
0008
0024
1094
0850
4440
2440
1040
1080
0080
0100
0200
0400
0800
0000
ENDCHAR
STARTCHAR 30C6
ENCODING 12486
SWIDTH 840 0
DWIDTH 14 0
BBX 14 14 0 -2
BITMAP
0000
0000
11E0
0E00
0000
0078
2380
1C80
0080
0100
0100
0200
0400
0800
ENDCHAR
STARTCHAR 30C7
ENCODING 12487
SWIDTH 840 0
DWIDTH 14 0
BBX 14 14 0 -2
BITMAP
0008
0024
11D4
0E10
0000
20F0
1F00
0080
0080
0100
0100
0200
0400
0800
ENDCHAR
STARTCHAR 30C8
ENCODING 12488
SWIDTH 840 0
DWIDTH 14 0
BBX 14 14 0 -2
BITMAP
0000
0800
0400
0400
0400
0400
0700
04C0
0420
0400
0400
0400
0400
0400
ENDCHAR
STARTCHAR 30C9
ENCODING 12489
SWIDTH 840 0
DWIDTH 14 0
BBX 14 14 0 -2
BITMAP
0020
1090
0850
0840
0800
0800
0E00
0980
0840
0800
0800
0800
0800
0800
ENDCHAR
STARTCHAR 30CA
ENCODING 12490
SWIDTH 840 0
DWIDTH 14 0
BBX 14 14 0 -2
BITMAP
0000
0100
0080
0080
20F8
1F80
0080
0080
0080
0100
0100
0200
0400
0800
ENDCHAR
STARTCHAR 30CB
ENCODING 12491
SWIDTH 840 0
DWIDTH 14 0
BBX 14 14 0 -2
BITMAP
0000
0000
0000
00E0
1F00
0000
0000
0000
0000
01F0
3E08
0000
0000
0000
ENDCHAR
STARTCHAR 30CC
ENCODING 12492
SWIDTH 840 0
DWIDTH 14 0
BBX 14 14 0 -2
BITMAP
0000
0000
10F0
0F10
0020
0020
0E40
01C0
00C0
0120
0210
0C10
3000
0000
ENDCHAR
STARTCHAR 30CD
ENCODING 12493
SWIDTH 840 0
DWIDTH 14 0
BBX 14 14 0 -2
BITMAP
0000
0200
0100
01E0
1E20
0040
0080
0100
0340
0D30
3108
0100
0100
0100
ENDCHAR
STARTCHAR 30CE
ENCODING 12494
SWIDTH 840 0
DWIDTH 14 0
BBX 14 14 0 -2
BITMAP
0000
0040
0020
0020
0020
0040
0040
0080
0080
0100
0200
0400
0800
1000
ENDCHAR
STARTCHAR 30CF
ENCODING 12495
SWIDTH 840 0
DWIDTH 14 0
BBX 14 14 0 -2
BITMAP
0000
0000
0000
0000
0880
0440
0420
0810
0810
1008
2008
4008
0000
0000
ENDCHAR
STARTCHAR 30D0
ENCODING 12496
SWIDTH 840 0
DWIDTH 14 0
BBX 14 14 0 -2
BITMAP
0000
0008
0024
0014
0890
0440
0420
0810
0810
1008
2008
4008
0000
0000
ENDCHAR
STARTCHAR 30D1
ENCODING 12497
SWIDTH 840 0
DWIDTH 14 0
BBX 14 14 0 -2
BITMAP
0018
0024
0024
0018
0880
0440
0420
0810
0810
1008
2008
4008
0000
0000
ENDCHAR
STARTCHAR 30D2
ENCODING 12498
SWIDTH 840 0
DWIDTH 14 0
BBX 14 14 0 -2
BITMAP
0000
0000
1000
0800
0800
08E0
0F00
0800
0800
0800
0800
0400
03F0
0000
ENDCHAR
STARTCHAR 30D3
ENCODING 12499
SWIDTH 840 0
DWIDTH 14 0
BBX 14 14 0 -2
BITMAP
0000
0010
1048
0828
0820
0800
08E0
0F00
0800
0800
0800
0400
03F0
0000
ENDCHAR
STARTCHAR 30D4
ENCODING 12500
SWIDTH 840 0
DWIDTH 14 0
BBX 14 14 0 -2
BITMAP
0000
0030
1048
0848
0830
0800
08E0
0F00
0800
0800
0800
0400
03F0
0000
ENDCHAR
STARTCHAR 30D5
ENCODING 12501
SWIDTH 840 0
DWIDTH 14 0
BBX 14 14 0 -2
BITMAP
0000
0000
10F0
0F10
0010
0020
0020
0040
0040
0080
0100
0200
0400
0000
ENDCHAR
STARTCHAR 30D6
ENCODING 12502
SWIDTH 840 0
DWIDTH 14 0
BBX 14 14 0 -2
BITMAP
0008
0024
23D4
1C50
0040
0080
0080
0100
0100
0200
0400
0800
1000
0000
ENDCHAR
STARTCHAR 30D7
ENCODING 12503
SWIDTH 840 0
DWIDTH 14 0
BBX 14 14 0 -2
BITMAP
0018
0024
23E4
1C58
0040
0080
0080
0100
0100
0200
0400
0800
1000
0000
ENDCHAR
STARTCHAR 30D8
ENCODING 12504
SWIDTH 840 0
DWIDTH 14 0
BBX 14 14 0 -2
BITMAP
0000
0000
0000
0000
0200
0500
4880
3040
0030
000C
0000
0000
0000
0000
ENDCHAR
STARTCHAR 30D9
ENCODING 12505
SWIDTH 840 0
DWIDTH 14 0
BBX 14 14 0 -2
BITMAP
0000
0020
0090
0050
0240
0500
4880
3040
0030
000C
0000
0000
0000
0000
ENDCHAR
STARTCHAR 30DA
ENCODING 12506
SWIDTH 840 0
DWIDTH 14 0
BBX 14 14 0 -2
BITMAP
0000
0060
0090
0090
0260
0500
4880
3040
0030
000C
0000
0000
0000
0000
ENDCHAR
STARTCHAR 30DB
ENCODING 12507
SWIDTH 840 0
DWIDTH 14 0
BBX 14 14 0 -2
BITMAP
0000
0200
0100
0100
21F0
1F00
0100
0140
0920
0910
1110
2100
0300
0100
ENDCHAR
STARTCHAR 30DC
ENCODING 12508
SWIDTH 840 0
DWIDTH 14 0
BBX 14 14 0 -2
BITMAP
0008
0224
0114
0110
21F0
1F00
0100
0140
0920
0910
1110
2100
0300
0100
ENDCHAR
STARTCHAR 30DD
ENCODING 12509
SWIDTH 840 0
DWIDTH 14 0
BBX 14 14 0 -2
BITMAP
0018
0224
0124
0118
21F0
1F00
0100
0140
0920
0910
1110
2100
0300
0100
ENDCHAR
STARTCHAR 30DE
ENCODING 12510
SWIDTH 840 0
DWIDTH 14 0
BBX 14 14 0 -2
BITMAP
0000
0000
0000
20F0
1F08
0010
0020
0040
0C80
0300
0080
0040
0000
0000
ENDCHAR
STARTCHAR 30DF
ENCODING 12511
SWIDTH 840 0
DWIDTH 14 0
BBX 14 14 0 -2
BITMAP
0000
0400
0300
00C0
0020
0800
0600
0180
0040
1000
0C00
0300
00C0
0020
ENDCHAR
STARTCHAR 30E0
ENCODING 12512
SWIDTH 840 0
DWIDTH 14 0
BBX 14 14 0 -2
BITMAP
0000
0200
0100
0100
0100
0200
0200
0240
0420
0430
29C8
1E08
0000
0000
ENDCHAR
STARTCHAR 30E1
ENCODING 12513
SWIDTH 840 0
DWIDTH 14 0
BBX 14 14 0 -2
BITMAP
0000
0040
0020
0020
0020
0620
01C0
0040
00A0
0090
0100
0200
0C00
3000
ENDCHAR
STARTCHAR 30E2
ENCODING 12514
SWIDTH 840 0
DWIDTH 14 0
BBX 14 14 0 -2
BITMAP
0000
0000
10E0
0F00
0200
0200
23F8
1E00
0200
0200
0200
01F0
0000
0000
ENDCHAR
STARTCHAR 30E3
ENCODING 12515
SWIDTH 840 0
DWIDTH 14 0
BBX 14 14 0 -2
BITMAP
0000
0000
0000
0000
0000
0400
0270
0390
1E20
0140
0100
0080
0080
0080
ENDCHAR
STARTCHAR 30E4
ENCODING 12516
SWIDTH 840 0
DWIDTH 14 0
BBX 14 14 0 -2
BITMAP
0000
0800
0400
0478
0388
2610
1A20
0140
0100
0100
0080
0080
0080
0000
ENDCHAR
STARTCHAR 30E5
ENCODING 12517
SWIDTH 840 0
DWIDTH 14 0
BBX 14 14 0 -2
BITMAP
0000
0000
0000
0000
0000
0000
01C0
0E40
0040
0080
01E0
1E10
0000
0000
ENDCHAR
STARTCHAR 30E6
ENCODING 12518
SWIDTH 840 0
DWIDTH 14 0
BBX 14 14 0 -2
BITMAP
0000
0000
0000
0000
11C0
0E40
0040
0080
0080
01F0
3E08
0000
0000
0000
ENDCHAR
STARTCHAR 30E7
ENCODING 12519
SWIDTH 840 0
DWIDTH 14 0
BBX 14 14 0 -2
BITMAP
0000
0000
0000
0000
0000
01E0
0E20
0020
01E0
0E40
0040
01C0
0E20
0000
ENDCHAR
STARTCHAR 30E8
ENCODING 12520
SWIDTH 840 0
DWIDTH 14 0
BBX 14 14 0 -2
BITMAP
0000
0000
01F0
1E10
0010
0010
01E0
0E20
0020
0020
0020
01E0
0E10
0000
ENDCHAR
STARTCHAR 30E9
ENCODING 12521
SWIDTH 840 0
DWIDTH 14 0
BBX 14 14 0 -2
BITMAP
0000
0000
11C0
0E00
0070
2390
1C10
0010
0020
0020
0040
0080
0300
0C00
ENDCHAR
STARTCHAR 30EA
ENCODING 12522
SWIDTH 840 0
DWIDTH 14 0
BBX 14 14 0 -2
BITMAP
0000
0040
0820
0420
0420
0420
0420
0420
0420
0040
0040
0080
0100
0200
ENDCHAR
STARTCHAR 30EB
ENCODING 12523
SWIDTH 840 0
DWIDTH 14 0
BBX 14 14 0 -2
BITMAP
0000
0000
0100
0880
0480
0480
0488
0488
0490
0890
08A0
10C0
2080
0000
ENDCHAR
STARTCHAR 30EC
ENCODING 12524
SWIDTH 840 0
DWIDTH 14 0
BBX 14 14 0 -2
BITMAP
0000
1000
0800
0800
0800
0800
0800
0810
0820
0840
0880
0B00
0C00
0000
ENDCHAR
STARTCHAR 30ED
ENCODING 12525
SWIDTH 840 0
DWIDTH 14 0
BBX 14 14 0 -2
BITMAP
0000
0000
0000
21F0
1E10
1010
1010
0820
0820
09E0
0E10
0800
0000
0000
ENDCHAR
STARTCHAR 30EE
ENCODING 12526
SWIDTH 840 0
DWIDTH 14 0
BBX 14 14 0 -2
BITMAP
0000
0000
0000
0000
0000
0000
10F0
0F10
0820
0420
0440
0040
0080
0100
ENDCHAR
STARTCHAR 30EF
ENCODING 12527
SWIDTH 840 0
DWIDTH 14 0
BBX 14 14 0 -2
BITMAP
0000
0000
21F0
1E10
1010
0810
0820
0820
0040
0040
0080
0100
0200
0400
ENDCHAR
STARTCHAR 30F0
ENCODING 12528
SWIDTH 840 0
DWIDTH 14 0
BBX 14 14 0 -2
BITMAP
0000
0100
0080
0080
01F0
1E80
0880
0480
05F0
3E88
0080
0080
0080
0080
ENDCHAR
STARTCHAR 30F1
ENCODING 12529
SWIDTH 840 0
DWIDTH 14 0
BBX 14 14 0 -2
BITMAP
0000
0000
0000
01E0
1E20
0240
0180
0100
0100
01F0
3E08
0000
0000
0000
ENDCHAR
STARTCHAR 30F2
ENCODING 12530
SWIDTH 840 0
DWIDTH 14 0
BBX 14 14 0 -2
BITMAP
0000
0000
01F0
1E10
0010
0020
01E0
0E20
0040
0040
0080
0100
0600
1800
ENDCHAR
STARTCHAR 30F3
ENCODING 12531
SWIDTH 840 0
DWIDTH 14 0
BBX 14 14 0 -2
BITMAP
0000
0000
0000
1800
0408
0208
0010
0010
0020
0040
0080
1300
0C00
0000
ENDCHAR
STARTCHAR 30F4
ENCODING 12532
SWIDTH 840 0
DWIDTH 14 0
BBX 14 14 0 -2
BITMAP
0008
0424
0214
0210
43E0
3C20
2020
1040
1040
0080
0080
0100
0200
0400
ENDCHAR
STARTCHAR 30F5
ENCODING 12533
SWIDTH 840 0
DWIDTH 14 0
BBX 14 14 0 -2
BITMAP
0000
0000
0000
0000
0000
0200
0100
11E0
0E20
0220
0220
0420
08C0
1040
ENDCHAR
STARTCHAR 30F6
ENCODING 12534
SWIDTH 840 0
DWIDTH 14 0
BBX 14 14 0 -2
BITMAP
0000
0000
0000
0000
0000
0800
0400
0460
0780
0880
1080
0100
0200
0400
ENDCHAR
STARTCHAR 30F7
ENCODING 12535
SWIDTH 840 0
DWIDTH 14 0
BBX 14 14 0 -2
BITMAP
0008
0024
43D4
3C50
2040
1040
1080
1080
0080
0100
0100
0200
0400
0800
ENDCHAR
STARTCHAR 30F8
ENCODING 12536
SWIDTH 840 0
DWIDTH 14 0
BBX 14 14 0 -2
BITMAP
0008
0224
0114
0110
03E0
3D00
1100
0900
0BE0
7D10
0100
0100
0100
0100
ENDCHAR
STARTCHAR 30F9
ENCODING 12537
SWIDTH 840 0
DWIDTH 14 0
BBX 14 14 0 -2
BITMAP
0008
0024
0014
03D0
3C40
0480
0300
0200
0200
03E0
7C10
0000
0000
0000
ENDCHAR
STARTCHAR 30FA
ENCODING 12538
SWIDTH 840 0
DWIDTH 14 0
BBX 14 14 0 -2
BITMAP
0008
0024
03D4
3C50
0040
0040
03C0
1C80
0080
0100
0100
0200
0C00
3000
ENDCHAR
STARTCHAR 30FB
ENCODING 12539
SWIDTH 840 0
DWIDTH 14 0
BBX 14 14 0 -2
BITMAP
0000
0000
0000
0000
0000
0300
0780
0780
0300
0000
0000
0000
0000
0000
ENDCHAR
STARTCHAR 30FC
ENCODING 12540
SWIDTH 840 0
DWIDTH 14 0
BBX 14 14 0 -2
BITMAP
0000
0000
0000
0000
0000
0000
40F8
3F00
0000
0000
0000
0000
0000
0000
ENDCHAR
STARTCHAR 30FD
ENCODING 12541
SWIDTH 840 0
DWIDTH 14 0
BBX 14 14 0 -2
BITMAP
0000
0000
0000
0000
0C00
0300
0080
0040
0020
0000
0000
0000
0000
0000
ENDCHAR
STARTCHAR 30FE
ENCODING 12542
SWIDTH 840 0
DWIDTH 14 0
BBX 14 14 0 -2
BITMAP
0000
0000
0020
0090
0C40
0300
0080
0040
0020
0000
0000
0000
0000
0000
ENDCHAR
STARTCHAR 30FF
ENCODING 12543
SWIDTH 840 0
DWIDTH 14 0
BBX 14 14 0 -2
BITMAP
0000
07F8
0008
0008
0008
0008
0008
0008
0008
0008
0008
0008
0000
0000
ENDCHAR
STARTCHAR 31F0
ENCODING 12784
SWIDTH 840 0
DWIDTH 14 0
BBX 14 14 0 -2
BITMAP
0000
0000
0000
0000
0400
0200
03E0
0420
0840
1040
0080
0100
0200
0C00
ENDCHAR
STARTCHAR 31F1
ENCODING 12785
SWIDTH 840 0
DWIDTH 14 0
BBX 14 14 0 -2
BITMAP
0000
0000
0000
0000
0000
0C00
0200
1800
0400
0020
0040
0080
1300
0C00
ENDCHAR
STARTCHAR 31F2
ENCODING 12786
SWIDTH 840 0
DWIDTH 14 0
BBX 14 14 0 -2
BITMAP
0000
0000
0000
0000
0000
11C0
0E40
0080
0080
0100
0180
0240
0420
1820
ENDCHAR
STARTCHAR 31F3
ENCODING 12787
SWIDTH 840 0
DWIDTH 14 0
BBX 14 14 0 -2
BITMAP
0000
0000
0000
0000
0800
0400
0400
0400
0600
0580
0440
0400
0400
0400
ENDCHAR
STARTCHAR 31F4
ENCODING 12788
SWIDTH 840 0
DWIDTH 14 0
BBX 14 14 0 -2
BITMAP
0000
0000
0000
0000
0000
09E0
0620
0040
0080
0E80
0180
0240
0420
1800
ENDCHAR
STARTCHAR 31F5
ENCODING 12789
SWIDTH 840 0
DWIDTH 14 0
BBX 14 14 0 -2
BITMAP
0000
0000
0000
0000
0000
0000
0880
0440
0440
0820
0820
1010
2010
0000
ENDCHAR
STARTCHAR 31F6
ENCODING 12790
SWIDTH 840 0
DWIDTH 14 0
BBX 14 14 0 -2
BITMAP
0000
0000
0000
0000
0000
1000
0800
08C0
0F00
0800
0800
0800
0400
03E0
ENDCHAR
STARTCHAR 31F7
ENCODING 12791
SWIDTH 840 0
DWIDTH 14 0
BBX 14 14 0 -2
BITMAP
0000
0000
0000
0000
0000
0000
11E0
0E20
0040
0040
0080
0100
0200
0400
ENDCHAR
STARTCHAR 31F8
ENCODING 12792
SWIDTH 840 0
DWIDTH 14 0
BBX 14 14 0 -2
BITMAP
0000
0000
0000
0000
0000
0000
0400
0600
0A00
0900
10C0
1060
0000
0000
ENDCHAR
STARTCHAR 31F9
ENCODING 12793
SWIDTH 840 0
DWIDTH 14 0
BBX 14 14 0 -2
BITMAP
0000
0000
0000
0000
0200
0100
11E0
0F00
0100
0140
0920
0920
1320
0100
ENDCHAR
STARTCHAR 31FA
ENCODING 12794
SWIDTH 840 0
DWIDTH 14 0
BBX 14 14 0 -2
BITMAP
0000
0000
0000
0000
0400
0200
0200
0400
0480
0440
0840
09A0
1620
0000
ENDCHAR
STARTCHAR 31FB
ENCODING 12795
SWIDTH 840 0
DWIDTH 14 0
BBX 14 14 0 -2
BITMAP
0000
0000
0000
0000
0000
09C0
0600
00E0
1320
0C20
0040
0080
0100
0600
ENDCHAR
STARTCHAR 31FC
ENCODING 12796
SWIDTH 840 0
DWIDTH 14 0
BBX 14 14 0 -2
BITMAP
0000
0000
0000
0000
0080
1040
0840
0840
0840
0840
0080
0080
0100
0200
ENDCHAR
STARTCHAR 31FD
ENCODING 12797
SWIDTH 840 0
DWIDTH 14 0
BBX 14 14 0 -2
BITMAP
0000
0000
0000
0000
0000
0200
1100
0900
0910
0910
0910
1120
1140
2180
ENDCHAR
STARTCHAR 31FE
ENCODING 12798
SWIDTH 840 0
DWIDTH 14 0
BBX 14 14 0 -2
BITMAP
0000
0000
0000
0000
0000
1000
0800
0800
0800
0820
0840
0880
0B00
0C00
ENDCHAR
STARTCHAR 31FF
ENCODING 12799
SWIDTH 840 0
DWIDTH 14 0
BBX 14 14 0 -2
BITMAP
0000
0000
0000
0000
0000
0000
21E0
1E20
1020
1040
1040
09C0
0E20
0800
ENDCHAR
STARTCHAR 3231
ENCODING 12849
SWIDTH 840 0
DWIDTH 14 0
BBX 14 14 0 -2
BITMAP
0000
2850
4948
4948
BDF4
8944
9A44
9FFC
AA44
88E4
4958
4A48
2850
0000
ENDCHAR
STARTCHAR 3232
ENCODING 12850
SWIDTH 840 0
DWIDTH 14 0
BBX 14 14 0 -2
BITMAP
0000
2410
4408
7FF8
8804
8FE4
9824
AFE4
C824
8FE4
4828
4828
2870
0000
ENDCHAR
STARTCHAR 3239
ENCODING 12857
SWIDTH 840 0
DWIDTH 14 0
BBX 14 14 0 -2
BITMAP
0000
2950
4928
4928
91F4
9F04
B104
D084
9084
90A4
50A8
5068
3030
0000
ENDCHAR
STARTCHAR 3251
ENCODING 12881
SWIDTH 840 0
DWIDTH 14 0
BBX 14 14 0 -2
BITMAP
0780
1860
2C70
76E8
77E8
9464
8464
8864
9064
5E68
7DF8
2010
1860
0780
ENDCHAR
STARTCHAR 3252
ENCODING 12882
SWIDTH 840 0
DWIDTH 14 0
BBX 14 14 0 -2
BITMAP
0780
1860
2CD0
7728
77B8
95B4
8424
8844
9084
5EF8
7DE8
2010
1860
0780
ENDCHAR
STARTCHAR 3253
ENCODING 12883
SWIDTH 840 0
DWIDTH 14 0
BBX 14 14 0 -2
BITMAP
0780
1860
2CD0
77A8
77B8
9434
84E4
8834
91B4
5FB8
7CE8
2010
1860
0780
ENDCHAR
STARTCHAR 3254
ENCODING 12884
SWIDTH 840 0
DWIDTH 14 0
BBX 14 14 0 -2
BITMAP
0780
1860
2C30
7668
76E8
9564
8664
8BF4
9064
5E68
7CE8
2010
1860
0780
ENDCHAR
STARTCHAR 3255
ENCODING 12885
SWIDTH 840 0
DWIDTH 14 0
BBX 14 14 0 -2
BITMAP
0780
1860
2DF0
77E8
7708
95E4
8434
89B4
91B4
5F38
7CE8
2010
1860
0780
ENDCHAR
STARTCHAR 3256
ENCODING 12886
SWIDTH 840 0
DWIDTH 14 0
BBX 14 14 0 -2
BITMAP
0780
1860
2CD0
77B8
77B8
9584
85E4
89B4
91B4
5FB8
7CE8
2010
1860
0780
ENDCHAR
STARTCHAR 3257
ENCODING 12887
SWIDTH 840 0
DWIDTH 14 0
BBX 14 14 0 -2
BITMAP
0780
1860
2DF0
77E8
7628
9444
8444
88C4
90C4
5EC8
7CC8
2010
1860
0780
ENDCHAR
STARTCHAR 3258
ENCODING 12888
SWIDTH 840 0
DWIDTH 14 0
BBX 14 14 0 -2
BITMAP
0780
1860
2CD0
77B8
77B8
95B4
84E4
89B4
91B4
5FB8
7CC8
2010
1860
0780
ENDCHAR
STARTCHAR 3259
ENCODING 12889
SWIDTH 840 0
DWIDTH 14 0
BBX 14 14 0 -2
BITMAP
0780
1860
2CD0
77A8
77B8
95B4
84F4
8834
91B4
5FB8
7CE8
2010
1860
0780
ENDCHAR
STARTCHAR 325A
ENCODING 12890
SWIDTH 840 0
DWIDTH 14 0
BBX 14 14 0 -2
BITMAP
0780
1860
2CD0
7768
7768
8564
9964
8564
B764
7768
5CC8
2010
1860
0780
ENDCHAR
STARTCHAR 325B
ENCODING 12891
SWIDTH 840 0
DWIDTH 14 0
BBX 14 14 0 -2
BITMAP
0780
1860
2C70
76E8
77E8
8464
9864
8464
B664
7668
5DF8
2010
1860
0780
ENDCHAR
STARTCHAR 325C
ENCODING 12892
SWIDTH 840 0
DWIDTH 14 0
BBX 14 14 0 -2
BITMAP
0780
1860
2CD0
7728
77B8
85B4
9824
8444
B684
76F8
5DE8
2010
1860
0780
ENDCHAR
STARTCHAR 325D
ENCODING 12893
SWIDTH 840 0
DWIDTH 14 0
BBX 14 14 0 -2
BITMAP
0780
1860
2CD0
77A8
77B8
8434
98E4
8434
B7B4
77B8
5CE8
2010
1860
0780
ENDCHAR
STARTCHAR 325E
ENCODING 12894
SWIDTH 840 0
DWIDTH 14 0
BBX 14 14 0 -2
BITMAP
0780
1860
2C30
7668
76E8
8564
9964
85F4
B664
7668
5CE8
2010
1860
0780
ENDCHAR
STARTCHAR 325F
ENCODING 12895
SWIDTH 840 0
DWIDTH 14 0
BBX 14 14 0 -2
BITMAP
0780
1860
2DF0
77E8
7708
85E4
9834
85B4
B7B4
7738
5CE8
2010
1860
0780
ENDCHAR
STARTCHAR 32A4
ENCODING 12964
SWIDTH 840 0
DWIDTH 14 0
BBX 14 14 0 -2
BITMAP
0780
1860
2210
4208
4208
83C4
8204
8204
8204
4208
5FE8
2010
1860
0780
ENDCHAR
STARTCHAR 32A5
ENCODING 12965
SWIDTH 840 0
DWIDTH 14 0
BBX 14 14 0 -2
BITMAP
0780
1860
2210
4208
5FE8
9224
9224
9FE4
9224
4208
4208
2010
1860
0780
ENDCHAR
STARTCHAR 32A6
ENCODING 12966
SWIDTH 840 0
DWIDTH 14 0
BBX 14 14 0 -2
BITMAP
0780
1860
2010
5FE8
4208
8304
8384
82C4
8244
4208
4208
2010
1860
0780
ENDCHAR
STARTCHAR 32A7
ENCODING 12967
SWIDTH 840 0
DWIDTH 14 0
BBX 14 14 0 -2
BITMAP
0780
1860
2410
4408
5FE8
8404
87C4
8904
8904
5108
57E8
2010
1860
0780
ENDCHAR
STARTCHAR 32A8
ENCODING 12968
SWIDTH 840 0
DWIDTH 14 0
BBX 14 14 0 -2
BITMAP
0780
1860
2210
4208
5FE8
8404
87C4
8C44
8C44
57C8
6448
2010
1860
0780
ENDCHAR
STARTCHAR 32B1
ENCODING 12977
SWIDTH 840 0
DWIDTH 14 0
BBX 14 14 0 -2
BITMAP
0780
1860
2CD0
77B8
77B8
8584
99E4
85B4
B7B4
77B8
5CE8
2010
1860
0780
ENDCHAR
STARTCHAR 32B2
ENCODING 12978
SWIDTH 840 0
DWIDTH 14 0
BBX 14 14 0 -2
BITMAP
0780
1860
2DF0
77E8
7628
8444
9844
84C4
B6C4
76C8
5CC8
2010
1860
0780
ENDCHAR
STARTCHAR 32B3
ENCODING 12979
SWIDTH 840 0
DWIDTH 14 0
BBX 14 14 0 -2
BITMAP
0780
1860
2CD0
77B8
77B8
85B4
98E4
85B4
B7B4
77B8
5CC8
2010
1860
0780
ENDCHAR
STARTCHAR 32B4
ENCODING 12980
SWIDTH 840 0
DWIDTH 14 0
BBX 14 14 0 -2
BITMAP
0780
1860
2CD0
77A8
77B8
85B4
98F4
8434
B7B4
77B8
5CE8
2010
1860
0780
ENDCHAR
STARTCHAR 32B5
ENCODING 12981
SWIDTH 840 0
DWIDTH 14 0
BBX 14 14 0 -2
BITMAP
0780
1860
24D0
4D68
5D68
9D64
AD64
CD64
FF64
4D68
5CC8
2010
1860
0780
ENDCHAR
STARTCHAR 32B6
ENCODING 12982
SWIDTH 840 0
DWIDTH 14 0
BBX 14 14 0 -2
BITMAP
0780
1860
2470
4CE8
5DE8
9C64
AC64
CC64
FE64
4C68
5DF8
2010
1860
0780
ENDCHAR
STARTCHAR 32B7
ENCODING 12983
SWIDTH 840 0
DWIDTH 14 0
BBX 14 14 0 -2
BITMAP
0780
1860
24D0
4D28
5DB8
9DB4
AC24
CC44
FE84
4CF8
5FE8
2010
1860
0780
ENDCHAR
STARTCHAR 32B8
ENCODING 12984
SWIDTH 840 0
DWIDTH 14 0
BBX 14 14 0 -2
BITMAP
0780
1860
24D0
4DA8
5DB8
9C34
ACE4
CC34
FFB4
4DB8
5CE8
2010
1860
0780
ENDCHAR
STARTCHAR 32B9
ENCODING 12985
SWIDTH 840 0
DWIDTH 14 0
BBX 14 14 0 -2
BITMAP
0780
1860
2430
4C68
5CE8
9D64
AE64
CFF4
FE64
4C68
5CE8
2010
1860
0780
ENDCHAR
STARTCHAR 32BA
ENCODING 12986
SWIDTH 840 0
DWIDTH 14 0
BBX 14 14 0 -2
BITMAP
0780
1860
25F0
4DE8
5D08
9DE4
AC34
CDB4
FFB4
4D38
5CE8
2010
1860
0780
ENDCHAR
STARTCHAR 32BB
ENCODING 12987
SWIDTH 840 0
DWIDTH 14 0
BBX 14 14 0 -2
BITMAP
0780
1860
24D0
4DF8
5DB8
9D84
ADE4
CDB4
FFB4
4DB8
5CE8
2010
1860
0780
ENDCHAR
STARTCHAR 32BC
ENCODING 12988
SWIDTH 840 0
DWIDTH 14 0
BBX 14 14 0 -2
BITMAP
0780
1860
25F0
4DE8
5E28
9C44
AC44
CCC4
FEC4
4CC8
5CC8
2010
1860
0780
ENDCHAR
STARTCHAR 32BD
ENCODING 12989
SWIDTH 840 0
DWIDTH 14 0
BBX 14 14 0 -2
BITMAP
0780
1860
24D0
4DB8
5DB8
9DB4
ACE4
CDB4
FFB4
4DB8
5CC8
2010
1860
0780
ENDCHAR
STARTCHAR 32BE
ENCODING 12990
SWIDTH 840 0
DWIDTH 14 0
BBX 14 14 0 -2
BITMAP
0780
1860
24D0
4DA8
5DB8
9DB4
ACF4
CC34
FFB4
4DB8
5CC8
2010
1860
0780
ENDCHAR
STARTCHAR 32BF
ENCODING 12991
SWIDTH 840 0
DWIDTH 14 0
BBX 14 14 0 -2
BITMAP
0780
1860
3ED0
5D68
5168
9D64
8764
B764
B764
6768
5CC8
2010
1860
0780
ENDCHAR
STARTCHAR 32D0
ENCODING 13008
SWIDTH 840 0
DWIDTH 14 0
BBX 14 14 0 -2
BITMAP
0780
1860
2010
4008
61E8
9E24
8244
8184
8104
4108
4208
2410
1860
0780
ENDCHAR
STARTCHAR 32D1
ENCODING 13009
SWIDTH 840 0
DWIDTH 14 0
BBX 14 14 0 -2
BITMAP
0780
1860
2030
4088
4108
8704
B904
8104
8104
4108
4108
2110
1960
0780
ENDCHAR
STARTCHAR 32D2
ENCODING 13010
SWIDTH 840 0
DWIDTH 14 0
BBX 14 14 0 -2
BITMAP
0780
1860
2210
4108
41E8
9E24
8824
8844
8044
4088
4108
2210
1860
0780
ENDCHAR
STARTCHAR 32D3
ENCODING 13011
SWIDTH 840 0
DWIDTH 14 0
BBX 14 14 0 -2
BITMAP
0780
1860
2010
4008
41C8
9E04
8204
8204
8204
43C8
5C28
2010
1860
0780
ENDCHAR
STARTCHAR 32D4
ENCODING 13012
SWIDTH 840 0
DWIDTH 14 0
BBX 14 14 0 -2
BITMAP
0780
1860
2110
4088
50E8
8F84
8184
8284
8484
4888
5188
2090
1860
0780
ENDCHAR
STARTCHAR 32D5
ENCODING 13013
SWIDTH 840 0
DWIDTH 14 0
BBX 14 14 0 -2
BITMAP
0780
1860
2210
4108
51E8
8F24
8224
8424
8424
4848
5148
2090
1860
0780
ENDCHAR
STARTCHAR 32D6
ENCODING 13014
SWIDTH 840 0
DWIDTH 14 0
BBX 14 14 0 -2
BITMAP
0780
1860
2010
4408
42C8
8704
9A04
8164
8784
5908
4108
2090
18E0
0780
ENDCHAR
STARTCHAR 32D7
ENCODING 13015
SWIDTH 840 0
DWIDTH 14 0
BBX 14 14 0 -2
BITMAP
0780
1860
2410
4208
43E8
8224
8424
8844
8044
4088
4108
2610
1C60
0780
ENDCHAR
STARTCHAR 32D8
ENCODING 13016
SWIDTH 840 0
DWIDTH 14 0
BBX 14 14 0 -2
BITMAP
0780
1860
2810
4408
4468
8F84
8904
9084
8084
4088
4108
2110
1A60
0780
ENDCHAR
STARTCHAR 32D9
ENCODING 13017
SWIDTH 840 0
DWIDTH 14 0
BBX 14 14 0 -2
BITMAP
0780
1860
2010
4008
51E8
8E24
8024
8024
8044
4048
43C8
2C50
1860
0780
ENDCHAR
STARTCHAR 32DA
ENCODING 13018
SWIDTH 840 0
DWIDTH 14 0
BBX 14 14 0 -2
BITMAP
0780
1860
2110
4888
4488
94E4
8F84
8484
8484
4088
4108
2110
1A60
0780
ENDCHAR
STARTCHAR 32DB
ENCODING 13019
SWIDTH 840 0
DWIDTH 14 0
BBX 14 14 0 -2
BITMAP
0780
1860
2010
4608
4108
8C04
8204
8024
8024
4048
4988
2610
1860
0780
ENDCHAR
STARTCHAR 32DC
ENCODING 13020
SWIDTH 840 0
DWIDTH 14 0
BBX 14 14 0 -2
BITMAP
0780
1860
2010
51C8
4E48
8084
8084
8104
8184
4248
4428
3830
1860
0780
ENDCHAR
STARTCHAR 32DD
ENCODING 13021
SWIDTH 840 0
DWIDTH 14 0
BBX 14 14 0 -2
BITMAP
0780
1860
2010
5008
48E8
8B24
8C44
9884
8804
4808
4468
2390
1860
0780
ENDCHAR
STARTCHAR 32DE
ENCODING 13022
SWIDTH 840 0
DWIDTH 14 0
BBX 14 14 0 -2
BITMAP
0780
1860
2010
4048
5028
8824
8824
8044
8044
4088
4108
2210
1C60
0780
ENDCHAR
STARTCHAR 32DF
ENCODING 13023
SWIDTH 840 0
DWIDTH 14 0
BBX 14 14 0 -2
BITMAP
0780
1860
2210
4108
41E8
8224
8624
8944
80C4
4088
4108
2610
1C60
0780
ENDCHAR
STARTCHAR 32E0
ENCODING 13024
SWIDTH 840 0
DWIDTH 14 0
BBX 14 14 0 -2
BITMAP
0780
1860
2010
4188
4E08
8104
A3F4
9C84
8084
4088
4108
2110
1A60
0780
ENDCHAR
STARTCHAR 32E1
ENCODING 13025
SWIDTH 840 0
DWIDTH 14 0
BBX 14 14 0 -2
BITMAP
0780
1860
2010
4008
4448
9224
8A24
8844
8044
4048
4088
2110
1A60
0780
ENDCHAR
STARTCHAR 32E2
ENCODING 13026
SWIDTH 840 0
DWIDTH 14 0
BBX 14 14 0 -2
BITMAP
0780
1860
2010
49C8
4608
8064
9384
8C84
8084
4108
4108
2210
1C60
0780
ENDCHAR
STARTCHAR 32E3
ENCODING 13027
SWIDTH 840 0
DWIDTH 14 0
BBX 14 14 0 -2
BITMAP
0780
1860
2010
4808
4408
8404
8604
8584
8444
4408
4408
2410
1C60
0780
ENDCHAR
STARTCHAR 32E5
ENCODING 13029
SWIDTH 840 0
DWIDTH 14 0
BBX 14 14 0 -2
BITMAP
0780
1860
2010
4008
4388
8C04
8004
8004
8004
43C8
7C28
2010
1860
0780
ENDCHAR
STARTCHAR 32E9
ENCODING 13033
SWIDTH 840 0
DWIDTH 14 0
BBX 14 14 0 -2
BITMAP
0780
1860
2010
4008
4888
8444
8444
8424
8824
4828
5028
2010
1860
0780
ENDCHAR
STARTCHAR 32EC
ENCODING 13036
SWIDTH 840 0
DWIDTH 14 0
BBX 14 14 0 -2
BITMAP
0780
1860
2010
4008
4408
8404
8A04
8904
9084
4068
4008
2010
1860
0780
ENDCHAR
STARTCHAR 32ED
ENCODING 13037
SWIDTH 840 0
DWIDTH 14 0
BBX 14 14 0 -2
BITMAP
0780
1860
2210
4108
51E8
8F04
8104
8144
8924
4928
5128
2310
1960
0780
ENDCHAR
STARTCHAR 32FA
ENCODING 13050
SWIDTH 840 0
DWIDTH 14 0
BBX 14 14 0 -2
BITMAP
0780
1860
2010
4008
61E8
9E24
9024
9044
9044
49C8
4E28
2810
1860
0780
ENDCHAR
STARTCHAR 3303
ENCODING 13059
SWIDTH 840 0
DWIDTH 14 0
BBX 14 14 0 -2
BITMAP
0000
4E00
3280
0C7C
0800
1000
2000
1000
4800
2800
2A00
2A00
2C00
4800
ENDCHAR
STARTCHAR 330D
ENCODING 13069
SWIDTH 840 0
DWIDTH 14 0
BBX 14 14 0 -2
BITMAP
1000
4E9C
3264
1244
224C
4474
0C00
0800
2400
2480
247C
0400
0800
1000
ENDCHAR
STARTCHAR 3314
ENCODING 13076
SWIDTH 840 0
DWIDTH 14 0
BBX 14 14 0 -2
BITMAP
0000
2400
1800
7000
0A00
1C00
6838
04C8
0488
0088
0088
00B8
00C8
0000
ENDCHAR
STARTCHAR 3318
ENCODING 13080
SWIDTH 840 0
DWIDTH 14 0
BBX 14 14 0 -2
BITMAP
2548
3D30
288C
4874
0804
1008
2030
2000
1000
1000
2400
2200
4E00
3200
ENDCHAR
STARTCHAR 3322
ENCODING 13090
SWIDTH 840 0
DWIDTH 14 0
BBX 14 14 0 -2
BITMAP
4000
2EC4
3224
6408
2008
2050
1E20
0600
3800
0F00
7800
0800
1000
2000
ENDCHAR
STARTCHAR 3323
ENCODING 13091
SWIDTH 840 0
DWIDTH 14 0
BBX 14 14 0 -2
BITMAP
4000
2EC4
3224
6408
2008
2050
1E20
2000
1000
1000
1800
1600
1000
1000
ENDCHAR
STARTCHAR 3326
ENCODING 13094
SWIDTH 840 0
DWIDTH 14 0
BBX 14 14 0 -2
BITMAP
0A00
4500
2500
2000
3000
2C00
2040
2120
20A0
00A4
00A4
0128
0130
0220
ENDCHAR
STARTCHAR 3327
ENCODING 13095
SWIDTH 840 0
DWIDTH 14 0
BBX 14 14 0 -2
BITMAP
0000
4000
2000
2000
3000
2C00
2000
2180
2048
0008
0010
0010
00A0
0040
ENDCHAR
STARTCHAR 332B
ENCODING 13099
SWIDTH 840 0
DWIDTH 14 0
BBX 14 14 0 -2
BITMAP
0200
2500
9580
527C
4800
8800
0000
8020
5C50
6B50
C858
5054
4490
3B10
ENDCHAR
STARTCHAR 3336
ENCODING 13110
SWIDTH 840 0
DWIDTH 14 0
BBX 14 14 0 -2
BITMAP
0020
1038
1048
2888
4410
0220
0040
2020
3890
4C50
ABD4
1054
2058
4090
ENDCHAR
STARTCHAR 333B
ENCODING 13115
SWIDTH 840 0
DWIDTH 14 0
BBX 14 14 0 -2
BITMAP
0200
1500
1580
2A7C
4400
0200
0000
3280
0A80
6000
1200
0400
2800
1000
ENDCHAR
STARTCHAR 3349
ENCODING 13129
SWIDTH 840 0
DWIDTH 14 0
BBX 14 14 0 -2
BITMAP
0000
3800
0400
3800
0400
7010
0C88
0088
0088
0088
0048
0008
0010
0020
ENDCHAR
STARTCHAR 334A
ENCODING 13130
SWIDTH 840 0
DWIDTH 14 0
BBX 14 14 0 -2
BITMAP
3810
0448
3848
0448
7008
0C10
0020
1420
1490
2450
93D4
5054
4858
8890
ENDCHAR
STARTCHAR 334D
ENCODING 13133
SWIDTH 840 0
DWIDTH 14 0
BBX 14 14 0 -2
BITMAP
0800
0400
3480
087C
0C00
3200
4000
2020
1090
1050
1854
1654
1058
1090
ENDCHAR
STARTCHAR 3351
ENCODING 13137
SWIDTH 840 0
DWIDTH 14 0
BBX 14 14 0 -2
BITMAP
0800
2400
2448
2424
0484
0848
1010
2020
1090
1050
1854
1654
1058
1090
ENDCHAR
STARTCHAR 3357
ENCODING 13143
SWIDTH 840 0
DWIDTH 14 0
BBX 14 14 0 -2
BITMAP
4E00
3200
2248
2424
0484
0848
1010
2000
1000
1000
1800
1600
1000
1000
ENDCHAR
STARTCHAR 337B
ENCODING 13179
SWIDTH 840 0
DWIDTH 14 0
BBX 14 14 0 -2
BITMAP
0000
0050
7E48
0848
4BFC
2D20
2924
7FD4
0958
0950
0974
0A5C
0A88
0000
ENDCHAR
STARTCHAR 337C
ENCODING 13180
SWIDTH 840 0
DWIDTH 14 0
BBX 14 14 0 -2
BITMAP
0000
0000
0F7C
75D4
5554
59F4
7254
54D4
5F74
7254
5254
1E5C
1254
0000
ENDCHAR
STARTCHAR 337D
ENCODING 13181
SWIDTH 840 0
DWIDTH 14 0
BBX 14 14 0 -2
BITMAP
0000
0000
09FC
0820
0820
7E20
0820
08B8
14A0
14A0
22A0
22A0
41FC
0000
ENDCHAR
STARTCHAR 337E
ENCODING 13182
SWIDTH 840 0
DWIDTH 14 0
BBX 14 14 0 -2
BITMAP
0000
0000
0E88
7A50
5A54
5E24
7AAC
5A74
5E00
7A7C
4AA4
12BC
26A4
0000
ENDCHAR
STARTCHAR 338E
ENCODING 13198
SWIDTH 840 0
DWIDTH 14 0
BBX 14 14 0 -2
BITMAP
0000
0000
0000
0000
746C
2AD4
2A90
2AD0
2A60
2AC0
2AB8
6B8C
008C
0078
ENDCHAR
STARTCHAR 338F
ENCODING 13199
SWIDTH 840 0
DWIDTH 14 0
BBX 14 14 0 -2
BITMAP
0000
6000
2000
2000
2E6C
24D4
2890
38D0
3C60
2EC0
26B8
778C
008C
0078
ENDCHAR
STARTCHAR 339C
ENCODING 13212
SWIDTH 840 0
DWIDTH 14 0
BBX 14 14 0 -2
BITMAP
0000
0000
0000
0000
75D0
2AA8
2AA8
2AA8
2AA8
2AA8
2AA8
6AAC
0000
0000
ENDCHAR
STARTCHAR 339D
ENCODING 13213
SWIDTH 840 0
DWIDTH 14 0
BBX 14 14 0 -2
BITMAP
0000
0000
0000
0000
1DD0
26A8
62A8
60A8
60A8
62A8
24A8
19AC
0000
0000
ENDCHAR
STARTCHAR 339E
ENCODING 13214
SWIDTH 840 0
DWIDTH 14 0
BBX 14 14 0 -2
BITMAP
0000
6000
2000
2000
2FD0
24A8
28A8
38A8
3CA8
2EA8
26A8
77AC
0000
0000
ENDCHAR
STARTCHAR 33A1
ENCODING 13217
SWIDTH 840 0
DWIDTH 14 0
BBX 14 14 0 -2
BITMAP
0018
0024
0008
0010
36DC
1B60
1B60
1B60
1B60
1B60
1B60
3FF0
0000
0000
ENDCHAR
STARTCHAR 33C4
ENCODING 13252
SWIDTH 840 0
DWIDTH 14 0
BBX 14 14 0 -2
BITMAP
0000
0000
0000
0000
0C70
1698
3388
3180
3180
3188
1290
0C60
0000
0000
ENDCHAR
STARTCHAR 33CB
ENCODING 13259
SWIDTH 840 0
DWIDTH 14 0
BBX 14 14 0 -2
BITMAP
0000
F7E0
6318
630C
630C
6318
7FE0
6300
6300
6300
6300
F7C0
0000
0000
ENDCHAR
STARTCHAR 33CD
ENCODING 13261
SWIDTH 840 0
DWIDTH 14 0
BBX 14 14 0 -2
BITMAP
0000
E6CC
64C8
68D0
68D0
70E0
70E0
78F0
68D0
6CD8
66CC
EEDC
0204
0000
ENDCHAR
STARTCHAR 3402
ENCODING 13314
SWIDTH 840 0
DWIDTH 14 0
BBX 14 14 0 -2
BITMAP
0400
0400
043C
07C0
3C08
0408
03F8
0000
2288
2CB0
71C0
2084
2284
1E7C
ENDCHAR
STARTCHAR 34B5
ENCODING 13493
SWIDTH 840 0
DWIDTH 14 0
BBX 14 14 0 -2
BITMAP
0100
0200
1FF0
1010
1010
1FF0
1010
1010
1FF0
1010
0820
0810
1008
2008
ENDCHAR
STARTCHAR 34DB
ENCODING 13531
SWIDTH 840 0
DWIDTH 14 0
BBX 14 14 0 -2
BITMAP
0000
03F8
0088
7C88
1088
1088
1088
1088
1088
1D08
6108
0110
0210
0460
ENDCHAR
STARTCHAR 378D
ENCODING 14221
SWIDTH 840 0
DWIDTH 14 0
BBX 14 14 0 -2
BITMAP
0000
1FF8
1008
1FF8
1000
1100
1FE0
1120
1520
1320
2320
22A4
44A4
181C
ENDCHAR
STARTCHAR 37E2
ENCODING 14306
SWIDTH 840 0
DWIDTH 14 0
BBX 14 14 0 -2
BITMAP
1110
1110
1FF0
0100
3FF8
0440
1820
7FFC
0010
1F10
1110
1F10
1110
0030
ENDCHAR
STARTCHAR 3B22
ENCODING 15138
SWIDTH 840 0
DWIDTH 14 0
BBX 14 14 0 -2
BITMAP
0110
00A0
7FFC
4840
4BF8
4840
7FFC
4BA8
4924
4FFC
79A8
4F10
416C
0304
ENDCHAR
STARTCHAR 3BB6
ENCODING 15286
SWIDTH 840 0
DWIDTH 14 0
BBX 14 14 0 -2
BITMAP
1480
12BC
1324
7FE4
113C
1564
3564
3D64
5FFC
5564
1524
1124
1244
148C
ENDCHAR
STARTCHAR 3BC3
ENCODING 15299
SWIDTH 840 0
DWIDTH 14 0
BBX 14 14 0 -2
BITMAP
1040
1040
13FC
7CE0
1150
1A4C
34A0
3718
324C
5150
50E0
1358
1444
10C0
ENDCHAR
STARTCHAR 3C0F
ENCODING 15375
SWIDTH 840 0
DWIDTH 14 0
BBX 14 14 0 -2
BITMAP
1110
11DC
1330
7C88
1020
1BFC
34F0
3490
30F0
5080
53FC
12F4
1294
12FC
ENDCHAR
STARTCHAR 3E3F
ENCODING 15935
SWIDTH 840 0
DWIDTH 14 0
BBX 14 14 0 -2
BITMAP
0840
0840
2BFC
2840
3DF8
2800
29FC
4908
0EA0
78A0
08A0
08A4
0924
0A1C
ENDCHAR
STARTCHAR 3F72
ENCODING 16242
SWIDTH 840 0
DWIDTH 14 0
BBX 14 14 0 -2
BITMAP
0080
0080
0FFC
4800
2FFC
2880
0880
19F8
2908
4908
1208
1008
2008
4030
ENDCHAR
STARTCHAR 4264
ENCODING 16996
SWIDTH 840 0
DWIDTH 14 0
BBX 14 14 0 -2
BITMAP
1040
1F7C
28A0
4510
4940
2A40
7F7C
1C88
2B48
4850
7F20
1230
1C48
6284
ENDCHAR
STARTCHAR 4453
ENCODING 17491
SWIDTH 840 0
DWIDTH 14 0
BBX 14 14 0 -2
BITMAP
0440
7FFC
0440
07C0
07C0
0440
3FFC
2008
5FF0
0420
3FD8
1FF0
0100
7FFC
ENDCHAR
STARTCHAR 445B
ENCODING 17499
SWIDTH 840 0
DWIDTH 14 0
BBX 14 14 0 -2
BITMAP
0208
0410
38E0
08A0
08A0
7FFC
08A0
08A0
3EA0
22D0
2314
220C
3FFC
2204
ENDCHAR
STARTCHAR 459D
ENCODING 17821
SWIDTH 840 0
DWIDTH 14 0
BBX 14 14 0 -2
BITMAP
0030
01C0
1F00
0100
1FF0
1110
1110
1110
1FF0
1120
0110
01F8
7E04
0004
ENDCHAR
STARTCHAR 45EA
ENCODING 17898
SWIDTH 840 0
DWIDTH 14 0
BBX 14 14 0 -2
BITMAP
0080
1FFC
1120
1FFC
1120
21E0
2A48
5124
1FF0
1110
1FF0
1110
01F8
7E04
ENDCHAR
STARTCHAR 4844
ENCODING 18500
SWIDTH 840 0
DWIDTH 14 0
BBX 14 14 0 -2
BITMAP
0800
08F0
7F90
0890
3E90
2A90
3E90
2A90
3E90
0890
7E90
0914
0914
0A0C
ENDCHAR
STARTCHAR 49B0
ENCODING 18864
SWIDTH 840 0
DWIDTH 14 0
BBX 14 14 0 -2
BITMAP
0000
3EF8
2288
3EF8
3FF8
2488
2FC8
2548
27C8
2FE8
2928
2FE8
2928
20F8
ENDCHAR
STARTCHAR 4C17
ENCODING 19479
SWIDTH 840 0
DWIDTH 14 0
BBX 14 14 0 -2
BITMAP
0000
2EE8
2448
2EE8
2EE8
2388
2FC8
2548
2FE8
2928
2FE8
2FE8
2118
21F8
ENDCHAR
STARTCHAR 4E00
ENCODING 19968
SWIDTH 840 0
DWIDTH 14 0
BBX 14 14 0 -2
BITMAP
0000
0000
0000
0000
0000
0000
7FFC
0000
0000
0000
0000
0000
0000
0000
ENDCHAR
STARTCHAR 4E01
ENCODING 19969
SWIDTH 840 0
DWIDTH 14 0
BBX 14 14 0 -2
BITMAP
0000
7FFC
0100
0100
0100
0100
0100
0100
0100
0100
0100
0100
0100
0300
ENDCHAR
STARTCHAR 4E03
ENCODING 19971
SWIDTH 840 0
DWIDTH 14 0
BBX 14 14 0 -2
BITMAP
0400
0400
0400
0400
043C
07C0
7C00
0400
0400
0400
0400
0408
0408
03F8
ENDCHAR
STARTCHAR 4E07
ENCODING 19975
SWIDTH 840 0
DWIDTH 14 0
BBX 14 14 0 -2
BITMAP
0000
7FFC
0200
0200
0200
03F0
0210
0210
0410
0410
0810
1010
2010
4060
ENDCHAR
STARTCHAR 4E08
ENCODING 19976
SWIDTH 840 0
DWIDTH 14 0
BBX 14 14 0 -2
BITMAP
0100
0100
0100
7FFC
0100
0100
1100
0900
0500
0300
0300
04C0
1830
600C
ENDCHAR
STARTCHAR 4E09
ENCODING 19977
SWIDTH 840 0
DWIDTH 14 0
BBX 14 14 0 -2
BITMAP
0000
3FF8
0000
0000
0000
0000
1FF0
0000
0000
0000
0000
0000
7FFC
0000
ENDCHAR
STARTCHAR 4E0A
ENCODING 19978
SWIDTH 840 0
DWIDTH 14 0
BBX 14 14 0 -2
BITMAP
0200
0200
0200
0200
0200
03F0
0200
0200
0200
0200
0200
0200
7FFC
0000
ENDCHAR
STARTCHAR 4E0B
ENCODING 19979
SWIDTH 840 0
DWIDTH 14 0
BBX 14 14 0 -2
BITMAP
0000
7FFC
0100
0100
0180
0140
0120
0110
0110
0100
0100
0100
0100
0100
ENDCHAR
STARTCHAR 4E0D
ENCODING 19981
SWIDTH 840 0
DWIDTH 14 0
BBX 14 14 0 -2
BITMAP
0000
7FFC
0080
0080
0100
0380
0560
1910
6108
0104
0100
0100
0100
0100
ENDCHAR
STARTCHAR 4E0E
ENCODING 19982
SWIDTH 840 0
DWIDTH 14 0
BBX 14 14 0 -2
BITMAP
0400
0400
07F0
0400
0400
07C0
0440
0040
7FFC
0040
0040
0040
0040
0380
ENDCHAR
STARTCHAR 4E10
ENCODING 19984
SWIDTH 840 0
DWIDTH 14 0
BBX 14 14 0 -2
BITMAP
0000
7FFC
0100
0100
21F8
2100
2100
3FF8
2008
0008
0008
0010
0010
0060
ENDCHAR
STARTCHAR 4E11
ENCODING 19985
SWIDTH 840 0
DWIDTH 14 0
BBX 14 14 0 -2
BITMAP
0000
1FE0
0220
0220
0220
0220
3FF8
0420
0420
0420
0420
0420
7FFC
0000
ENDCHAR
STARTCHAR 4E14
ENCODING 19988
SWIDTH 840 0
DWIDTH 14 0
BBX 14 14 0 -2
BITMAP
0000
0FE0
0820
0820
0820
0FE0
0820
0820
0FE0
0820
0820
0820
7FFC
0000
ENDCHAR
STARTCHAR 4E15
ENCODING 19989
SWIDTH 840 0
DWIDTH 14 0
BBX 14 14 0 -2
BITMAP
0000
3FF8
0080
0100
0380
0560
0910
3108
4104
0100
0100
0000
3FF8
0000
ENDCHAR
STARTCHAR 4E16
ENCODING 19990
SWIDTH 840 0
DWIDTH 14 0
BBX 14 14 0 -2
BITMAP
1220
1220
1220
1220
7FFC
1220
1220
1220
13E0
1220
1000
1000
1FF8
1000
ENDCHAR
STARTCHAR 4E17
ENCODING 19991
SWIDTH 840 0
DWIDTH 14 0
BBX 14 14 0 -2
BITMAP
1110
1110
1110
1110
1110
7FFC
1110
1110
1110
1110
1110
1110
1FF0
1010
ENDCHAR
STARTCHAR 4E18
ENCODING 19992
SWIDTH 840 0
DWIDTH 14 0
BBX 14 14 0 -2
BITMAP
0020
00C0
0F00
0800
0800
0FF8
0840
0840
0840
0840
0840
0840
7FFC
0000
ENDCHAR
STARTCHAR 4E19
ENCODING 19993
SWIDTH 840 0
DWIDTH 14 0
BBX 14 14 0 -2
BITMAP
0000
7FFC
0100
0100
3FF8
2108
2108
2288
2248
2428
2828
2008
2008
2018
ENDCHAR
STARTCHAR 4E1E
ENCODING 19998
SWIDTH 840 0
DWIDTH 14 0
BBX 14 14 0 -2
BITMAP
0000
0FE0
0040
0088
3D48
0550
0920
0920
1110
2108
4304
0000
3FF8
0000
ENDCHAR
STARTCHAR 4E21
ENCODING 20001
SWIDTH 840 0
DWIDTH 14 0
BBX 14 14 0 -2
BITMAP
0000
7FFC
0100
0100
3FF8
2108
2928
2928
2928
2928
2FE8
2828
2008
2018
ENDCHAR
STARTCHAR 4E26
ENCODING 20006
SWIDTH 840 0
DWIDTH 14 0
BBX 14 14 0 -2
BITMAP
0820
0420
0440
7FFC
0440
0440
2448
1448
1450
1460
0440
0440
7FFC
0000
ENDCHAR
STARTCHAR 4E28
ENCODING 20008
SWIDTH 840 0
DWIDTH 14 0
BBX 14 14 0 -2
BITMAP
0000
0100
0100
0100
0100
0100
0100
0100
0100
0100
0100
0100
0100
0100
ENDCHAR
STARTCHAR 4E2A
ENCODING 20010
SWIDTH 840 0
DWIDTH 14 0
BBX 14 14 0 -2
BITMAP
0100
0100
0280
0280
0440
0820
1110
2108
4104
0100
0100
0100
0100
0100
ENDCHAR
STARTCHAR 4E2D
ENCODING 20013
SWIDTH 840 0
DWIDTH 14 0
BBX 14 14 0 -2
BITMAP
0100
0100
0100
3FF8
2108
2108
2108
2108
3FF8
2108
0100
0100
0100
0100
ENDCHAR
STARTCHAR 4E2F
ENCODING 20015
SWIDTH 840 0
DWIDTH 14 0
BBX 14 14 0 -2
BITMAP
0000
0110
0160
0380
1D08
0130
03C0
1D08
0130
01C0
0700
3900
0100
0100
ENDCHAR
STARTCHAR 4E30
ENCODING 20016
SWIDTH 840 0
DWIDTH 14 0
BBX 14 14 0 -2
BITMAP
0000
0100
0100
3FF0
0100
0100
1FE0
0100
0100
7FFC
0100
0100
0100
0100
ENDCHAR
STARTCHAR 4E31
ENCODING 20017
SWIDTH 840 0
DWIDTH 14 0
BBX 14 14 0 -2
BITMAP
0480
0480
4488
4488
4488
4488
4488
4488
7CF8
4488
0880
0880
1080
2080
ENDCHAR
STARTCHAR 4E32
ENCODING 20018
SWIDTH 840 0
DWIDTH 14 0
BBX 14 14 0 -2
BITMAP
0100
0100
1FF0
1110
1110
1FF0
0100
3FF8
2108
2108
3FF8
2108
0100
0100
ENDCHAR
STARTCHAR 4E36
ENCODING 20022
SWIDTH 840 0
DWIDTH 14 0
BBX 14 14 0 -2
BITMAP
0000
0000
0000
0000
0200
0100
0080
0080
0000
0000
0000
0000
0000
0000
ENDCHAR
STARTCHAR 4E38
ENCODING 20024
SWIDTH 840 0
DWIDTH 14 0
BBX 14 14 0 -2
BITMAP
0200
0200
0200
0200
7FC0
0240
0240
1A40
0640
0540
08C4
1044
2044
403C
ENDCHAR
STARTCHAR 4E39
ENCODING 20025
SWIDTH 840 0
DWIDTH 14 0
BBX 14 14 0 -2
BITMAP
0000
0FE0
0820
0A20
0920
0920
0820
7FFC
0820
0820
1020
1020
2020
4060
ENDCHAR
STARTCHAR 4E3B
ENCODING 20027
SWIDTH 840 0
DWIDTH 14 0
BBX 14 14 0 -2
BITMAP
0200
0100
0100
3FF8
0100
0100
0100
1FF0
0100
0100
0100
0100
7FFC
0000
ENDCHAR
STARTCHAR 4E3C
ENCODING 20028
SWIDTH 840 0
DWIDTH 14 0
BBX 14 14 0 -2
BITMAP
0420
0420
0420
3FFC
0420
0520
04A0
04A0
7FFC
0420
0820
0820
1020
2020
ENDCHAR
STARTCHAR 4E3F
ENCODING 20031
SWIDTH 840 0
DWIDTH 14 0
BBX 14 14 0 -2
BITMAP
0020
0020
0020
0020
0020
0020
0020
0020
0040
0040
0080
0100
0600
1800
ENDCHAR
STARTCHAR 4E42
ENCODING 20034
SWIDTH 840 0
DWIDTH 14 0
BBX 14 14 0 -2
BITMAP
0020
1020
1020
0820
0840
0840
0440
0480
0280
0100
0280
0440
1830
600C
ENDCHAR
STARTCHAR 4E43
ENCODING 20035
SWIDTH 840 0
DWIDTH 14 0
BBX 14 14 0 -2
BITMAP
0000
3FC0
0440
0440
0440
0440
0478
0448
0408
0808
0808
1008
2008
4070
ENDCHAR
STARTCHAR 4E45
ENCODING 20037
SWIDTH 840 0
DWIDTH 14 0
BBX 14 14 0 -2
BITMAP
0200
0200
0200
03E0
0420
0420
0840
1040
20C0
0120
0220
0410
1808
6004
ENDCHAR
STARTCHAR 4E4B
ENCODING 20043
SWIDTH 840 0
DWIDTH 14 0
BBX 14 14 0 -2
BITMAP
0100
0100
0100
3FF0
0010
0020
0020
0040
0080
1100
1A00
1400
2300
40FC
ENDCHAR
STARTCHAR 4E4D
ENCODING 20045
SWIDTH 840 0
DWIDTH 14 0
BBX 14 14 0 -2
BITMAP
0400
0400
0400
0FFC
0900
1100
21F8
4100
0100
01F8
0100
0100
0100
0100
ENDCHAR
STARTCHAR 4E4E
ENCODING 20046
SWIDTH 840 0
DWIDTH 14 0
BBX 14 14 0 -2
BITMAP
0030
3FC0
0110
1110
0920
0940
0100
7FFC
0100
0100
0100
0100
0100
0300
ENDCHAR
STARTCHAR 4E4F
ENCODING 20047
SWIDTH 840 0
DWIDTH 14 0
BBX 14 14 0 -2
BITMAP
0018
00E0
3F00
0100
0100
1FF0
0010
0020
0040
0980
0E00
1400
2300
40FC
ENDCHAR
STARTCHAR 4E55
ENCODING 20053
SWIDTH 840 0
DWIDTH 14 0
BBX 14 14 0 -2
BITMAP
0078
1F80
1080
1FFC
1080
1FFC
1080
17F8
1488
1488
2488
24B0
4080
0080
ENDCHAR
STARTCHAR 4E56
ENCODING 20054
SWIDTH 840 0
DWIDTH 14 0
BBX 14 14 0 -2
BITMAP
0030
1FC0
0100
0100
7FFC
0100
0920
792C
0930
0920
1924
691C
0100
0100
ENDCHAR
STARTCHAR 4E57
ENCODING 20055
SWIDTH 840 0
DWIDTH 14 0
BBX 14 14 0 -2
BITMAP
0060
1F80
0100
3FF8
0920
7FFC
0920
3FF8
0380
0540
1930
610C
0100
0100
ENDCHAR
STARTCHAR 4E58
ENCODING 20056
SWIDTH 840 0
DWIDTH 14 0
BBX 14 14 0 -2
BITMAP
0060
1F80
0100
7FFC
0548
3D70
0540
1D48
6538
0380
0540
1930
610C
0100
ENDCHAR
STARTCHAR 4E59
ENCODING 20057
SWIDTH 840 0
DWIDTH 14 0
BBX 14 14 0 -2
BITMAP
0000
3FE0
0040
0080
0100
0200
0400
0800
1000
2008
2008
2008
1FF8
0000
ENDCHAR
STARTCHAR 4E5D
ENCODING 20061
SWIDTH 840 0
DWIDTH 14 0
BBX 14 14 0 -2
BITMAP
0200
0200
0200
0200
7FC0
0240
0240
0240
0440
0440
0844
1044
2044
403C
ENDCHAR
STARTCHAR 4E5E
ENCODING 20062
SWIDTH 840 0
DWIDTH 14 0
BBX 14 14 0 -2
BITMAP
0800
0800
0800
1FF8
1000
2000
4FC0
0100
0200
0400
0800
1008
1008
0FF8
ENDCHAR
STARTCHAR 4E5F
ENCODING 20063
SWIDTH 840 0
DWIDTH 14 0
BBX 14 14 0 -2
BITMAP
0100
1100
1100
1130
11D0
1710
1910
7110
1110
1110
1160
1004
1004
0FFC
ENDCHAR
STARTCHAR 4E62
ENCODING 20066
SWIDTH 840 0
DWIDTH 14 0
BBX 14 14 0 -2
BITMAP
1080
1080
1080
5480
5480
5480
5480
5480
5480
5480
7C84
4484
4084
007C
ENDCHAR
STARTCHAR 4E71
ENCODING 20081
SWIDTH 840 0
DWIDTH 14 0
BBX 14 14 0 -2
BITMAP
0240
0C40
3840
0840
0840
7F40
0840
0840
3E40
2240
2240
2244
3E44
223C
ENDCHAR
STARTCHAR 4E73
ENCODING 20083
SWIDTH 840 0
DWIDTH 14 0
BBX 14 14 0 -2
BITMAP
0340
7C40
1140
4940
2A40
2440
3F40
0240
0440
0740
7C40
0444
0444
0C3C
ENDCHAR
STARTCHAR 4E7E
ENCODING 20094
SWIDTH 840 0
DWIDTH 14 0
BBX 14 14 0 -2
BITMAP
0880
0880
7FFC
0880
3F00
22F8
3E10
2220
3E40
0840
7F80
0884
0884
087C
ENDCHAR
STARTCHAR 4E80
ENCODING 20096
SWIDTH 840 0
DWIDTH 14 0
BBX 14 14 0 -2
BITMAP
0200
03C0
0C80
7FE0
0920
0FE0
0FE0
1FF0
1110
1FF0
1110
1FF4
1104
00FC
ENDCHAR
STARTCHAR 4E82
ENCODING 20098
SWIDTH 840 0
DWIDTH 14 0
BBX 14 14 0 -2
BITMAP
0740
7A40
2940
3F40
5640
0840
7F40
5540
7D40
5D40
5540
4944
5544
633C
ENDCHAR
STARTCHAR 4E85
ENCODING 20101
SWIDTH 840 0
DWIDTH 14 0
BBX 14 14 0 -2
BITMAP
0100
0100
0100
0100
0100
0100
0100
0100
0100
0100
0100
0100
0100
0600
ENDCHAR
STARTCHAR 4E86
ENCODING 20102
SWIDTH 840 0
DWIDTH 14 0
BBX 14 14 0 -2
BITMAP
0000
3FF0
0020
0040
0180
0100
0100
0100
0100
0100
0100
0100
0100
0300
ENDCHAR
STARTCHAR 4E88
ENCODING 20104
SWIDTH 840 0
DWIDTH 14 0
BBX 14 14 0 -2
BITMAP
0000
1FF0
0220
0140
0180
7FFC
0108
0110
0120
0100
0100
0100
0100
0300
ENDCHAR
STARTCHAR 4E89
ENCODING 20105
SWIDTH 840 0
DWIDTH 14 0
BBX 14 14 0 -2
BITMAP
0100
03E0
0C40
3080
1FF0
0110
7FFC
0110
0110
1FF0
0110
0100
0100
0300
ENDCHAR
STARTCHAR 4E8A
ENCODING 20106
SWIDTH 840 0
DWIDTH 14 0
BBX 14 14 0 -2
BITMAP
0100
0100
7FFC
1110
0910
0920
1FF0
0110
7FFC
0110
1FF0
0110
0100
0300
ENDCHAR
STARTCHAR 4E8B
ENCODING 20107
SWIDTH 840 0
DWIDTH 14 0
BBX 14 14 0 -2
BITMAP
0100
7FFC
0100
0FE0
0920
0FE0
0100
1FF0
0110
7FFC
0110
1FF0
0110
0300
ENDCHAR
STARTCHAR 4E8C
ENCODING 20108
SWIDTH 840 0
DWIDTH 14 0
BBX 14 14 0 -2
BITMAP
0000
0000
3FF8
0000
0000
0000
0000
0000
0000
0000
0000
7FFC
0000
0000
ENDCHAR
STARTCHAR 4E8D
ENCODING 20109
SWIDTH 840 0
DWIDTH 14 0
BBX 14 14 0 -2
BITMAP
0000
0000
3FF0
0000
0000
7FFC
0100
0100
0100
0100
0100
0100
0100
0300
ENDCHAR
STARTCHAR 4E8E
ENCODING 20110
SWIDTH 840 0
DWIDTH 14 0
BBX 14 14 0 -2
BITMAP
0000
3FF8
0100
0100
0100
0100
7FFC
0100
0100
0100
0100
0100
0100
0600
ENDCHAR
STARTCHAR 4E91
ENCODING 20113
SWIDTH 840 0
DWIDTH 14 0
BBX 14 14 0 -2
BITMAP
0000
1FF0
0000
0000
0000
7FFC
0100
0100
0140
0220
0210
0470
3F88
0008
ENDCHAR
STARTCHAR 4E92
ENCODING 20114
SWIDTH 840 0
DWIDTH 14 0
BBX 14 14 0 -2
BITMAP
0000
3FF8
0200
0200
07E0
0420
0420
0420
0FE0
0840
0040
0040
7FFC
0000
ENDCHAR
STARTCHAR 4E94
ENCODING 20116
SWIDTH 840 0
DWIDTH 14 0
BBX 14 14 0 -2
BITMAP
0000
3FF8
0200
0200
0200
0200
3FE0
0420
0420
0420
0820
0820
7FFC
0000
ENDCHAR
STARTCHAR 4E95
ENCODING 20117
SWIDTH 840 0
DWIDTH 14 0
BBX 14 14 0 -2
BITMAP
0440
0440
0440
0440
3FF8
0440
0440
0440
7FFC
0440
0840
0840
1040
2040
ENDCHAR
STARTCHAR 4E98
ENCODING 20120
SWIDTH 840 0
DWIDTH 14 0
BBX 14 14 0 -2
BITMAP
0000
3FF8
0000
0000
0FE0
0820
0820
0FE0
0820
0820
0FE0
0820
0000
7FFC
ENDCHAR
STARTCHAR 4E99
ENCODING 20121
SWIDTH 840 0
DWIDTH 14 0
BBX 14 14 0 -2
BITMAP
0000
3FF8
0200
0200
07E0
0520
04A0
04A0
0A20
0940
0940
0040
7FFC
0000
ENDCHAR
STARTCHAR 4E9B
ENCODING 20123
SWIDTH 840 0
DWIDTH 14 0
BBX 14 14 0 -2
BITMAP
0880
0880
2898
2FE0
2880
2884
2E84
707C
0000
1FF0
0000
0000
7FFC
0000
ENDCHAR
STARTCHAR 4E9C
ENCODING 20124
SWIDTH 840 0
DWIDTH 14 0
BBX 14 14 0 -2
BITMAP
0000
7FF8
0480
0480
3FF0
2490
2490
2490
3FF0
2490
0480
0480
7FF8
0000
ENDCHAR
STARTCHAR 4E9E
ENCODING 20126
SWIDTH 840 0
DWIDTH 14 0
BBX 14 14 0 -2
BITMAP
0000
7FFC
0440
0440
0440
3C78
2008
2008
3C78
2448
0440
0440
7FFC
0000
ENDCHAR
STARTCHAR 4E9F
ENCODING 20127
SWIDTH 840 0
DWIDTH 14 0
BBX 14 14 0 -2
BITMAP
0000
7FFC
0200
0200
07F8
3CC8
24A8
24B0
2490
3CA8
20C4
0300
7FFC
0000
ENDCHAR
STARTCHAR 4EA0
ENCODING 20128
SWIDTH 840 0
DWIDTH 14 0
BBX 14 14 0 -2
BITMAP
0000
0000
0000
0100
0100
0100
0100
7FFC
0000
0000
0000
0000
0000
0000
ENDCHAR
STARTCHAR 4EA1
ENCODING 20129
SWIDTH 840 0
DWIDTH 14 0
BBX 14 14 0 -2
BITMAP
0100
0100
0100
7FFC
1000
1000
1000
1000
1000
1000
1000
1000
0FF8
0000
ENDCHAR
STARTCHAR 4EA2
ENCODING 20130
SWIDTH 840 0
DWIDTH 14 0
BBX 14 14 0 -2
BITMAP
0100
0100
7FFC
0000
0000
07C0
0440
0440
0440
0440
0840
0844
1044
203C
ENDCHAR
STARTCHAR 4EA4
ENCODING 20132
SWIDTH 840 0
DWIDTH 14 0
BBX 14 14 0 -2
BITMAP
0100
0100
7FFC
0440
0420
0850
1448
2248
0280
0180
0180
0240
0C30
700C
ENDCHAR
STARTCHAR 4EA5
ENCODING 20133
SWIDTH 840 0
DWIDTH 14 0
BBX 14 14 0 -2
BITMAP
0100
0100
7FFC
0100
0240
1A40
0490
0320
0240
0CC0
1120
0610
1808
6008
ENDCHAR
STARTCHAR 4EA6
ENCODING 20134
SWIDTH 840 0
DWIDTH 14 0
BBX 14 14 0 -2
BITMAP
0100
0100
0100
7FFC
0240
0240
1250
1248
2244
4244
0440
0440
0840
10C0
ENDCHAR
STARTCHAR 4EA8
ENCODING 20136
SWIDTH 840 0
DWIDTH 14 0
BBX 14 14 0 -2
BITMAP
0100
7FFC
0000
0FE0
0820
0FE0
0000
1FE0
0040
0180
0100
0100
0100
0300
ENDCHAR
STARTCHAR 4EAB
ENCODING 20139
SWIDTH 840 0
DWIDTH 14 0
BBX 14 14 0 -2
BITMAP
0100
7FFC
0000
0FE0
0820
0FE0
0000
1FE0
0040
0180
7FFC
0100
0100
0300
ENDCHAR
STARTCHAR 4EAC
ENCODING 20140
SWIDTH 840 0
DWIDTH 14 0
BBX 14 14 0 -2
BITMAP
0100
0100
7FFC
0000
0FE0
0820
0820
0FE0
0100
0920
0910
1108
2108
0300
ENDCHAR
STARTCHAR 4EAD
ENCODING 20141
SWIDTH 840 0
DWIDTH 14 0
BBX 14 14 0 -2
BITMAP
0100
7FFC
0000
0FE0
0820
0FE0
0000
3FFC
2008
5FF0
0100
0100
0100
0300
ENDCHAR
STARTCHAR 4EAE
ENCODING 20142
SWIDTH 840 0
DWIDTH 14 0
BBX 14 14 0 -2
BITMAP
0100
7FFC
0000
0FE0
0820
0FE0
0000
3FFC
2008
4480
0480
0484
1884
607C
ENDCHAR
STARTCHAR 4EB0
ENCODING 20144
SWIDTH 840 0
DWIDTH 14 0
BBX 14 14 0 -2
BITMAP
0100
0100
7FFC
0000
1FF0
1010
1FF0
1010
1FF0
0920
0910
1108
2108
0300
ENDCHAR
STARTCHAR 4EB3
ENCODING 20147
SWIDTH 840 0
DWIDTH 14 0
BBX 14 14 0 -2
BITMAP
0100
7FFC
0000
0FE0
0820
0FE0
0000
3FFC
20C8
4F00
01F8
3F00
0104
00FC
ENDCHAR
STARTCHAR 4EB6
ENCODING 20150
SWIDTH 840 0
DWIDTH 14 0
BBX 14 14 0 -2
BITMAP
0100
7FFC
1FF0
17D0
1450
17D0
1FF0
0FE0
0820
0FE0
0820
0FE0
7FFC
0000
ENDCHAR
STARTCHAR 4EBA
ENCODING 20154
SWIDTH 840 0
DWIDTH 14 0
BBX 14 14 0 -2
BITMAP
0100
0100
0100
0100
0100
0100
0380
0280
0440
0440
0820
1010
2008
4004
ENDCHAR
STARTCHAR 4EC0
ENCODING 20160
SWIDTH 840 0
DWIDTH 14 0
BBX 14 14 0 -2
BITMAP
0440
0440
0440
0840
0840
1FFC
2840
4840
0840
0840
0840
0840
0840
0840
ENDCHAR
STARTCHAR 4EC1
ENCODING 20161
SWIDTH 840 0
DWIDTH 14 0
BBX 14 14 0 -2
BITMAP
0800
0800
0BF8
1000
1000
3000
5000
1000
1000
1000
1000
17FC
1000
1000
ENDCHAR
STARTCHAR 4EC2
ENCODING 20162
SWIDTH 840 0
DWIDTH 14 0
BBX 14 14 0 -2
BITMAP
0880
0880
0880
1080
1FF8
3088
5088
1088
1088
1108
1108
1208
1408
1830
ENDCHAR
STARTCHAR 4EC4
ENCODING 20164
SWIDTH 840 0
DWIDTH 14 0
BBX 14 14 0 -2
BITMAP
0000
1FFC
1000
1080
1080
1080
1080
1140
1140
1220
2220
2410
4808
1004
ENDCHAR
STARTCHAR 4EC6
ENCODING 20166
SWIDTH 840 0
DWIDTH 14 0
BBX 14 14 0 -2
BITMAP
0440
0440
0440
0840
0860
1850
2848
4844
0844
0840
0840
0840
0840
0840
ENDCHAR
STARTCHAR 4EC7
ENCODING 20167
SWIDTH 840 0
DWIDTH 14 0
BBX 14 14 0 -2
BITMAP
0900
0900
0900
1100
11E0
3F20
5120
1120
1120
1120
1224
1224
1424
181C
ENDCHAR
STARTCHAR 4ECA
ENCODING 20170
SWIDTH 840 0
DWIDTH 14 0
BBX 14 14 0 -2
BITMAP
0100
0100
0280
0440
1830
67CC
0000
0000
1FE0
0020
0040
0040
0080
0080
ENDCHAR
STARTCHAR 4ECB
ENCODING 20171
SWIDTH 840 0
DWIDTH 14 0
BBX 14 14 0 -2
BITMAP
0100
0100
0280
0440
1830
644C
0440
0440
0440
0440
0840
0840
1040
2040
ENDCHAR
STARTCHAR 4ECD
ENCODING 20173
SWIDTH 840 0
DWIDTH 14 0
BBX 14 14 0 -2
BITMAP
0800
0FE0
0920
1120
1120
3120
5138
1128
1108
1108
1208
1208
1408
1830
ENDCHAR
STARTCHAR 4ECE
ENCODING 20174
SWIDTH 840 0
DWIDTH 14 0
BBX 14 14 0 -2
BITMAP
0820
0820
0820
0820
0820
0820
0820
0860
0C50
1250
1290
1188
2108
4204
ENDCHAR
STARTCHAR 4ECF
ENCODING 20175
SWIDTH 840 0
DWIDTH 14 0
BBX 14 14 0 -2
BITMAP
0880
0880
0880
0880
1080
1080
3080
5100
1120
1110
1208
1278
1F84
1004
ENDCHAR
STARTCHAR 4ED4
ENCODING 20180
SWIDTH 840 0
DWIDTH 14 0
BBX 14 14 0 -2
BITMAP
0800
0BF8
0810
1020
1040
3040
5040
17FC
1040
1040
1040
1040
1040
10C0
ENDCHAR
STARTCHAR 4ED5
ENCODING 20181
SWIDTH 840 0
DWIDTH 14 0
BBX 14 14 0 -2
BITMAP
0840
0840
0840
1040
1040
37FC
5040
1040
1040
1040
1040
1040
13F8
1000
ENDCHAR
STARTCHAR 4ED6
ENCODING 20182
SWIDTH 840 0
DWIDTH 14 0
BBX 14 14 0 -2
BITMAP
0840
0840
0A40
1248
1278
33C8
5E48
1248
1248
1258
1240
1204
1204
11FC
ENDCHAR
STARTCHAR 4ED7
ENCODING 20183
SWIDTH 840 0
DWIDTH 14 0
BBX 14 14 0 -2
BITMAP
0840
0840
0840
17FC
1040
3240
5240
1140
11C0
1080
10C0
1120
1210
140C
ENDCHAR
STARTCHAR 4ED8
ENCODING 20184
SWIDTH 840 0
DWIDTH 14 0
BBX 14 14 0 -2
BITMAP
0410
0410
0410
0810
0BFC
1810
2910
4890
0890
0810
0810
0810
0810
0830
ENDCHAR
STARTCHAR 4ED9
ENCODING 20185
SWIDTH 840 0
DWIDTH 14 0
BBX 14 14 0 -2
BITMAP
0840
0840
0840
1248
1248
3248
5248
1248
1248
1248
1248
13F8
1208
1208
ENDCHAR
STARTCHAR 4EDD
ENCODING 20189
SWIDTH 840 0
DWIDTH 14 0
BBX 14 14 0 -2
BITMAP
0100
0100
0280
0440
0820
1010
600C
0FE0
0100
0100
0100
0100
7FFC
0000
ENDCHAR
STARTCHAR 4EDE
ENCODING 20190
SWIDTH 840 0
DWIDTH 14 0
BBX 14 14 0 -2
BITMAP
0800
0FF8
0888
1088
1088
3088
5288
1288
1488
1088
1108
1108
1208
1430
ENDCHAR
STARTCHAR 4EDF
ENCODING 20191
SWIDTH 840 0
DWIDTH 14 0
BBX 14 14 0 -2
BITMAP
0808
0830
0BC0
1040
1040
3040
5FFC
1040
1040
1040
1040
1040
1040
1040
ENDCHAR
STARTCHAR 4EE1
ENCODING 20193
SWIDTH 840 0
DWIDTH 14 0
BBX 14 14 0 -2
BITMAP
0900
0900
0900
11FC
1200
33F0
5420
1040
1080
1100
1200
1208
1208
11F8
ENDCHAR
STARTCHAR 4EE3
ENCODING 20195
SWIDTH 840 0
DWIDTH 14 0
BBX 14 14 0 -2
BITMAP
0490
0488
0488
0880
08FC
1F40
2840
4840
0820
0820
0814
0814
080C
0804
ENDCHAR
STARTCHAR 4EE4
ENCODING 20196
SWIDTH 840 0
DWIDTH 14 0
BBX 14 14 0 -2
BITMAP
0100
0100
0280
0440
1830
6FEC
0000
1FF0
0110
0110
0110
01E0
0100
0100
ENDCHAR
STARTCHAR 4EE5
ENCODING 20197
SWIDTH 840 0
DWIDTH 14 0
BBX 14 14 0 -2
BITMAP
1010
1010
1210
1110
1090
1090
1010
1010
1010
1030
1628
1848
6184
0604
ENDCHAR
STARTCHAR 4EED
ENCODING 20205
SWIDTH 840 0
DWIDTH 14 0
BBX 14 14 0 -2
BITMAP
0800
0FF8
0888
1088
1088
3488
5288
1188
1088
1168
111C
1208
1408
1830
ENDCHAR
STARTCHAR 4EEE
ENCODING 20206
SWIDTH 840 0
DWIDTH 14 0
BBX 14 14 0 -2
BITMAP
0800
0BFC
0A00
1200
13F8
3288
5288
1250
1250
1220
1420
1450
1988
1604
ENDCHAR
STARTCHAR 4EF0
ENCODING 20208
SWIDTH 840 0
DWIDTH 14 0
BBX 14 14 0 -2
BITMAP
0840
0880
0B78
1248
1248
3248
5248
1248
1248
13C8
1E70
1040
1040
1040
ENDCHAR
STARTCHAR 4EF2
ENCODING 20210
SWIDTH 840 0
DWIDTH 14 0
BBX 14 14 0 -2
BITMAP
0840
0840
0840
17FC
1444
3444
5444
1444
17FC
1444
1040
1040
1040
1040
ENDCHAR
STARTCHAR 4EF6
ENCODING 20214
SWIDTH 840 0
DWIDTH 14 0
BBX 14 14 0 -2
BITMAP
0840
0940
0940
13F8
1240
3440
5040
17FC
1040
1040
1040
1040
1040
1040
ENDCHAR
STARTCHAR 4EF7
ENCODING 20215
SWIDTH 840 0
DWIDTH 14 0
BBX 14 14 0 -2
BITMAP
0880
0880
08C0
1140
1120
3210
5528
1924
1120
1120
1220
1220
1420
1820
ENDCHAR
STARTCHAR 4EFB
ENCODING 20219
SWIDTH 840 0
DWIDTH 14 0
BBX 14 14 0 -2
BITMAP
0818
0BE0
0840
1040
1040
3040
57FC
1040
1040
1040
1040
1040
13F8
1000
ENDCHAR
STARTCHAR 4EFD
ENCODING 20221
SWIDTH 840 0
DWIDTH 14 0
BBX 14 14 0 -2
BITMAP
08E0
0820
0920
1120
1110
3210
53F8
1494
1090
1090
1110
1110
1210
1460
ENDCHAR
STARTCHAR 4EFF
ENCODING 20223
SWIDTH 840 0
DWIDTH 14 0
BBX 14 14 0 -2
BITMAP
0840
0840
0840
13FC
1040
3040
5078
1048
1048
1088
1088
1108
1208
1430
ENDCHAR
STARTCHAR 4F01
ENCODING 20225
SWIDTH 840 0
DWIDTH 14 0
BBX 14 14 0 -2
BITMAP
0100
0100
0280
0440
1930
610C
0100
0900
09F0
0900
0900
0900
7FFC
0000
ENDCHAR
STARTCHAR 4F03
ENCODING 20227
SWIDTH 840 0
DWIDTH 14 0
BBX 14 14 0 -2
BITMAP
0800
0BFC
0888
1070
1040
33FC
5044
1048
1050
1040
1040
1040
1040
10C0
ENDCHAR
STARTCHAR 4F09
ENCODING 20233
SWIDTH 840 0
DWIDTH 14 0
BBX 14 14 0 -2
BITMAP
0840
0840
0FFC
1000
1000
31E0
5120
1120
1120
1120
1220
1224
1424
181C
ENDCHAR
STARTCHAR 4F0A
ENCODING 20234
SWIDTH 840 0
DWIDTH 14 0
BBX 14 14 0 -2
BITMAP
0800
0BF8
0848
1048
17FC
3048
5048
13F8
1048
1040
1080
1080
1100
1200
ENDCHAR
STARTCHAR 4F0B
ENCODING 20235
SWIDTH 840 0
DWIDTH 14 0
BBX 14 14 0 -2
BITMAP
0800
0FF0
0910
1120
1120
31F8
5188
1188
1250
1250
1220
1450
1488
1B04
ENDCHAR
STARTCHAR 4F0D
ENCODING 20237
SWIDTH 840 0
DWIDTH 14 0
BBX 14 14 0 -2
BITMAP
0800
0FF8
0880
1080
1080
3080
57F0
1110
1110
1110
1110
1110
1FFC
1000
ENDCHAR
STARTCHAR 4F0E
ENCODING 20238
SWIDTH 840 0
DWIDTH 14 0
BBX 14 14 0 -2
BITMAP
0840
0840
0840
17FC
1040
3040
53F8
1108
1110
1090
10A0
1040
11B0
160C
ENDCHAR
ENDFONT
